<svg width="461" height="317" viewBox="0 0 461 317" fill="none" xmlns="http://www.w3.org/2000/svg">
<path d="M461 317H0V66.6641L14.5 47L27 62.323L36 91.9871L50 104.5L61.5 138L71.5 154.209L83 125.992L98.5495 116.587L109 82.5814L120.5 104.5L133 87.5L144.5 0L156.5 34L171 42.5L181.5 62.323L194.5 53.5L207 87.5L217 112.5L231 125.992L242.5 150.592L253 116.587L265.726 104.287L279.5 78.9638L288 138L300.278 154.209L315.5 194.5L325.5 174.5L339 123L352 87.5L362.5 110L375.5 145L387.5 135.5L397 100.5L414.5 39L424 112.5L433.5 158L447.5 250.5L461 227.5V317Z" fill="url(#paint0_linear_121_316)"/>
<defs>
<linearGradient id="paint0_linear_121_316" x1="230.5" y1="0" x2="230.5" y2="317" gradientUnits="userSpaceOnUse">
<stop stop-color="#FEC60D"/>
<stop offset="1" stop-color="#FEC60D" stop-opacity="0"/>
</linearGradient>
</defs>
</svg>
