<svg width="28" height="28" viewBox="0 0 28 28" fill="none" xmlns="http://www.w3.org/2000/svg">
<path d="M14 0C6.26719 0 0 6.26719 0 14C0 21.7328 6.26719 28 14 28C21.7328 28 28 21.7328 28 14C28 6.26719 21.7328 0 14 0ZM14 25.375C7.72734 25.375 2.625 20.2721 2.625 14C2.625 7.72789 7.72734 2.625 14 2.625C20.2727 2.625 25.375 7.72789 25.375 14C25.375 20.2721 20.2727 25.375 14 25.375ZM13.9508 9.625C15.1025 9.625 16.1886 10.0796 17.004 10.9036C17.5167 11.4146 18.3455 11.4231 18.8617 10.9121C19.3761 10.4011 19.3796 9.57065 18.8703 9.0544C17.5578 7.72987 15.8105 7.00034 13.9511 7.00034C13.9511 7.00034 13.9528 7.00034 13.9511 7.00034C12.0934 7.00034 10.3445 7.72987 9.03198 9.0544C6.32823 11.7822 6.32823 16.2185 9.03198 18.9474C10.3445 20.2719 12.0934 21.0014 13.9511 21.0014C13.9528 21.0014 13.9511 21.0014 13.9511 21.0014C15.8105 21.0014 17.5578 20.2719 18.8703 18.9474C19.3795 18.4312 19.3761 17.601 18.8617 17.0896C18.3456 16.5804 17.517 16.5855 17.004 17.0982C16.1886 17.9218 15.1025 18.3768 13.9508 18.3768C13.9508 18.3768 13.9525 18.3768 13.9508 18.3768C12.7974 18.3768 11.7113 17.9222 10.8943 17.0982C9.20227 15.3908 9.20227 12.6122 10.8943 10.9021C11.7141 10.0789 12.7969 9.625 13.9508 9.625Z" fill="url(#paint0_linear_29_67)"/>
<defs>
<linearGradient id="paint0_linear_29_67" x1="32.281" y1="9.05881" x2="-10.0325" y2="9.90808" gradientUnits="userSpaceOnUse">
<stop stop-color="#EF4523"/>
<stop offset="1" stop-color="#FFF33B"/>
</linearGradient>
</defs>
</svg>
