<svg width="225" height="46" viewBox="0 0 225 46" fill="none" xmlns="http://www.w3.org/2000/svg">
<path fill-rule="evenodd" clip-rule="evenodd" d="M0 41.5V4.5L10.5788 15.0714H5.28943V36.2143H21.1575L26.4469 41.5H0Z" fill="#FEC60D"/>
<path fill-rule="evenodd" clip-rule="evenodd" d="M15.8404 25.6347H31.7019L21.1275 36.2021V30.9183H10.553V4.5L15.8403 9.78369L15.8404 25.6347Z" fill="#FEC60D"/>
<path d="M64.9621 36V31.248H53.5861V10.476H48.6181V36H64.9621ZM73.1907 36V18.288H68.4027V36H73.1907ZM67.8267 12.492C67.8267 14.076 69.1587 15.408 70.7787 15.408C72.4347 15.408 73.7307 14.076 73.7307 12.492C73.7307 10.836 72.4347 9.504 70.7787 9.504C69.1587 9.504 67.8267 10.836 67.8267 12.492ZM77.0567 36.972C77.5607 40.356 80.8007 43.38 85.6607 43.38C92.3207 43.38 94.9487 38.952 94.9487 34.092V18.288H90.3407V20.376C89.7287 19.188 88.1087 17.964 85.3007 17.964C80.4407 17.964 77.0567 21.924 77.0567 26.604C77.0567 31.572 80.5847 35.208 85.3007 35.208C87.8567 35.208 89.5127 34.092 90.2327 32.94V34.236C90.2327 37.656 88.5407 39.168 85.5167 39.168C83.2487 39.168 81.7007 37.764 81.3767 35.82L77.0567 36.972ZM86.1287 31.104C83.6447 31.104 81.8807 29.376 81.8807 26.604C81.8807 23.868 83.7527 22.14 86.1287 22.14C88.4327 22.14 90.3047 23.868 90.3047 26.604C90.3047 29.34 88.5767 31.104 86.1287 31.104ZM104.585 25.596C104.693 23.652 105.881 22.14 107.897 22.14C110.201 22.14 111.173 23.688 111.173 25.668V36H115.961V24.84C115.961 20.952 113.873 17.82 109.373 17.82C107.681 17.82 105.737 18.396 104.585 19.764V9.936H99.7972V36H104.585V25.596ZM126.725 12.996H122.405V15.48C122.405 17.064 121.541 18.288 119.669 18.288H118.769V22.536H121.973V30.78C121.973 34.2 124.133 36.252 127.589 36.252C128.993 36.252 129.857 36 130.289 35.82V31.86C130.037 31.932 129.389 32.004 128.813 32.004C127.445 32.004 126.725 31.5 126.725 29.952V22.536H130.289V18.288H126.725V12.996Z" fill="#FEC60D"/>
<path d="M151.782 16.56C151.206 13.68 148.83 9.936 142.638 9.936C137.814 9.936 133.746 13.392 133.746 17.928C133.746 21.78 136.374 24.408 140.442 25.236L144.006 25.956C145.986 26.352 147.102 27.504 147.102 28.98C147.102 30.78 145.626 32.112 142.962 32.112C139.362 32.112 137.598 29.844 137.382 27.324L132.774 28.548C133.17 32.184 136.158 36.54 142.926 36.54C148.866 36.54 152.142 32.58 152.142 28.656C152.142 25.056 149.658 22.032 145.014 21.132L141.45 20.448C139.578 20.088 138.678 18.972 138.678 17.568C138.678 15.876 140.262 14.328 142.674 14.328C145.914 14.328 147.066 16.524 147.318 17.928L151.782 16.56ZM165.529 18.288L161.677 29.664L158.401 18.288H153.361L159.013 36H163.873L167.941 23.904L172.081 36H176.869L182.413 18.288H177.661L174.385 29.7L170.569 18.288H165.529ZM184.252 31.176C184.252 33.948 186.556 36.504 190.336 36.504C192.964 36.504 194.656 35.28 195.556 33.876C195.556 34.56 195.628 35.532 195.736 36H200.128C200.02 35.388 199.912 34.128 199.912 33.192V24.48C199.912 20.916 197.824 17.748 192.208 17.748C187.456 17.748 184.9 20.808 184.612 23.58L188.86 24.48C189.004 22.932 190.156 21.6 192.244 21.6C194.26 21.6 195.232 22.644 195.232 23.904C195.232 24.516 194.908 25.02 193.9 25.164L189.544 25.812C186.592 26.244 184.252 28.008 184.252 31.176ZM191.344 32.94C189.796 32.94 189.04 31.932 189.04 30.888C189.04 29.52 190.012 28.836 191.236 28.656L195.232 28.044V28.836C195.232 31.968 193.36 32.94 191.344 32.94ZM209.527 42.84V34.272C210.391 35.46 212.191 36.432 214.639 36.432C219.643 36.432 222.991 32.472 222.991 27.108C222.991 21.852 220.003 17.892 214.819 17.892C212.155 17.892 210.175 19.08 209.383 20.448V18.288H204.739V42.84H209.527ZM218.275 27.144C218.275 30.312 216.331 32.148 213.883 32.148C211.435 32.148 209.455 30.276 209.455 27.144C209.455 24.012 211.435 22.176 213.883 22.176C216.331 22.176 218.275 24.012 218.275 27.144Z" fill="white"/>
</svg>
