<svg width="60" height="60" viewBox="0 0 60 60" fill="none" xmlns="http://www.w3.org/2000/svg">
<path fill-rule="evenodd" clip-rule="evenodd" d="M60 30C60 13.4426 46.5577 0 30.0007 0H29.9993C13.4423 0 0 13.4426 0 30C0 46.5574 13.4423 60 29.9993 60H30.0007C46.5577 60 60 46.5574 60 30ZM33.0122 30.0002C33.0122 37.3747 27.0748 43.3529 19.7509 43.3529C12.427 43.3529 6.48903 37.3733 6.48903 30.0002C6.48903 22.627 12.4265 16.6471 19.7509 16.6471C27.0752 16.6471 33.0122 22.6257 33.0122 30.0002ZM47.5605 30.0002C47.5605 36.9418 44.5916 42.5711 40.9295 42.5711C37.2674 42.5711 34.2986 36.9418 34.2986 30.0002C34.2986 23.0587 37.2669 17.4292 40.9291 17.4292C44.5913 17.4292 47.56 23.0569 47.56 30.0002H47.5605ZM53.511 30.0002C53.511 36.2181 52.467 41.2618 51.1789 41.2618C49.8907 41.2618 48.8472 36.2195 48.8472 30.0002C48.8472 23.781 49.8911 18.7387 51.1789 18.7387C52.4666 18.7387 53.511 23.7805 53.511 30.0002Z" fill="url(#paint0_linear_29_62)"/>
<defs>
<linearGradient id="paint0_linear_29_62" x1="69.1736" y1="19.4117" x2="-21.4983" y2="21.2316" gradientUnits="userSpaceOnUse">
<stop stop-color="#EF4523"/>
<stop offset="1" stop-color="#FFF33B"/>
</linearGradient>
</defs>
</svg>
