<svg width="402" height="41" viewBox="0 0 402 41" fill="none" xmlns="http://www.w3.org/2000/svg">
<path d="M30.375 9.89844C29.1562 9.89844 27.2578 9.8125 24.6797 9.64062C22.1953 9.46875 20.2969 9.39062 18.9844 9.40625C19.0469 11.1875 19.2578 14.3594 19.6172 18.9219C19.9453 22.9531 20.1094 26.1406 20.1094 28.4844C20.1094 29.0156 20.1641 29.8047 20.2734 30.8516C20.3828 31.8984 20.4375 32.6875 20.4375 33.2188C20.4375 34.3906 20.1875 35.4453 19.6875 36.3828C19.0469 37.5859 18.1328 38.1875 16.9453 38.1875C16.0859 38.1875 15.3281 37.9141 14.6719 37.3672C13.9375 36.7578 13.5703 35.9922 13.5703 35.0703C13.5703 34.8516 13.6094 34.5234 13.6875 34.0859C13.7656 33.6328 13.8047 33.2891 13.8047 33.0547C13.8047 32.3359 13.75 31.25 13.6406 29.7969C13.5469 28.3438 13.5 27.25 13.5 26.5156C13.5 24.4219 13.3359 21.5859 13.0078 18.0078C12.6328 13.8984 12.4141 11.0625 12.3516 9.5H11.1328C7.64844 9.5 4.88281 9.25 2.83594 8.75C1.10156 8.32812 0.234375 7.30469 0.234375 5.67969C0.234375 4.88281 0.515625 4.16406 1.07812 3.52344C1.73438 2.75781 2.59375 2.41406 3.65625 2.49219C4.20312 2.52344 5.44531 2.65625 7.38281 2.89062C8.92969 3.0625 10.1797 3.14844 11.1328 3.14844C12.0859 3.14844 13.5078 3.13281 15.3984 3.10156C17.3047 3.07031 18.7344 3.05469 19.6875 3.05469C20.875 3.05469 22.6562 3.14062 25.0312 3.3125C27.4062 3.46875 29.1875 3.54688 30.375 3.54688C31.3125 3.54688 32.0938 3.85156 32.7188 4.46094C33.3594 5.07031 33.6797 5.82031 33.6797 6.71094C33.6797 7.60156 33.3594 8.35938 32.7188 8.98438C32.0938 9.59375 31.3125 9.89844 30.375 9.89844ZM68.6016 5.49219C68.2891 6.63281 68.1328 7.625 68.1328 8.46875C68.1328 8.90625 68.0859 9.58594 67.9922 10.5078C67.9141 11.4141 67.875 12.0859 67.875 12.5234C67.875 14.0078 67.7969 16.2109 67.6406 19.1328C67.4844 22.0547 67.4062 24.2578 67.4062 25.7422C67.4062 26.8828 67.4922 28.5859 67.6641 30.8516C67.8359 33.1172 67.9219 34.8203 67.9219 35.9609C67.9219 36.8203 67.6172 37.5469 67.0078 38.1406C66.3984 38.7344 65.6406 39.0312 64.7344 39.0312C63.8125 39.0312 63.0156 38.7344 62.3438 38.1406C61.6719 37.5625 61.3359 36.8516 61.3359 36.0078C61.3359 34.8672 61.2812 33.1562 61.1719 30.875C61.0781 28.5938 61.0312 26.8828 61.0312 25.7422C61.0312 24.8516 61.0469 24.0625 61.0781 23.375C58.625 23.4844 55.5938 23.8672 51.9844 24.5234C48.9844 25.0703 45.9844 25.625 42.9844 26.1875C42.9531 27.25 42.8438 29.0234 42.6562 31.5078C42.5 33.6953 42.4219 35.4844 42.4219 36.875C42.4219 37.7344 42.1172 38.4609 41.5078 39.0547C40.8984 39.6484 40.1406 39.9453 39.2344 39.9453C38.3281 39.9453 37.5703 39.6484 36.9609 39.0547C36.3516 38.4609 36.0469 37.7344 36.0469 36.875C36.0469 35.2969 36.1797 32.9375 36.4453 29.7969C36.7266 26.6562 36.8672 24.2969 36.8672 22.7188C36.8672 20.7188 36.9141 17.7109 37.0078 13.6953C37.1016 9.66406 37.1484 6.64844 37.1484 4.64844C37.1484 3.78906 37.4531 3.0625 38.0625 2.46875C38.6719 1.875 39.4297 1.57812 40.3359 1.57812C41.2422 1.57812 42 1.875 42.6094 2.46875C43.2188 3.0625 43.5234 3.78906 43.5234 4.64844C43.5234 5.83594 43.4766 7.625 43.3828 10.0156C43.3047 12.3906 43.2656 14.1719 43.2656 15.3594C43.2656 15.75 43.2109 16.5 43.1016 17.6094C43.0078 18.6406 42.9688 19.4297 42.9844 19.9766L51.9844 18.2891C55.5 17.6641 58.5312 17.3047 61.0781 17.2109C61.1406 16.1641 61.2422 13.3516 61.3828 8.77344C61.4141 7.57031 61.7812 6.1875 62.4844 4.625C63.3594 2.70312 64.3516 1.74219 65.4609 1.74219C66.2891 1.74219 67.0234 2.01562 67.6641 2.5625C68.3516 3.15625 68.6953 3.89844 68.6953 4.78906C68.6953 5.02344 68.6641 5.25781 68.6016 5.49219ZM96.3047 7.95312C95.9922 7.95312 95.6641 7.90625 95.3203 7.8125C92.7891 7.125 90.3281 6.78125 87.9375 6.78125C86.7656 6.78125 85.5078 6.875 84.1641 7.0625C82.8203 7.25 81.3906 7.53125 79.875 7.90625C79.875 9.98438 79.8047 13.0703 79.6641 17.1641C80.5391 17.1016 83.5938 16.8125 88.8281 16.2969C91.8125 16 93.7031 15.8516 94.5 15.8516C95.4219 15.8516 96.2109 16.1484 96.8672 16.7422C97.5234 17.3203 97.8516 18.0938 97.8516 19.0625C97.8516 20.9219 96.8594 21.9766 94.875 22.2266C93.625 22.3203 91.7578 22.4766 89.2734 22.6953C87.0547 22.9453 83.7109 23.25 79.2422 23.6094C79.1328 25.5938 79.0781 27.1953 79.0781 28.4141C79.0781 31.4766 79.2578 33.2188 79.6172 33.6406C79.7891 33.8438 80.7734 33.9453 82.5703 33.9453C83.5391 33.9453 85 33.9219 86.9531 33.875C88.9062 33.8281 90.3672 33.8047 91.3359 33.8047C91.6484 33.8047 92.1094 33.7578 92.7188 33.6641C93.3281 33.5703 93.7812 33.5234 94.0781 33.5234C94.9844 33.5234 95.7578 33.7812 96.3984 34.2969C97.1328 34.875 97.5 35.6875 97.5 36.7344C97.5 38.4844 96.5859 39.5312 94.7578 39.875C93.1953 40.1719 89.9531 40.3203 85.0312 40.3203C79.9375 40.3203 76.6172 39.6328 75.0703 38.2578C73.3672 36.7422 72.5156 33.4609 72.5156 28.4141C72.5156 26.3203 72.6641 23.1797 72.9609 18.9922C73.2734 14.7891 73.4297 11.6484 73.4297 9.57031C73.4297 9.02344 73.3516 8.21875 73.1953 7.15625C73.0391 6.07812 72.9609 5.26562 72.9609 4.71875C72.9609 2.34375 74.0547 1.15625 76.2422 1.15625C76.9297 1.15625 77.5625 1.35156 78.1406 1.74219C79.9531 1.28906 81.6719 0.953125 83.2969 0.734375C84.9375 0.5 86.4844 0.382812 87.9375 0.382812C91.875 0.382812 95.0234 0.835937 97.3828 1.74219C98.8203 2.28906 99.5391 3.28125 99.5391 4.71875C99.5391 5.53125 99.2578 6.25 98.6953 6.875C98.0703 7.59375 97.2734 7.95312 96.3047 7.95312ZM134.508 39.4297C130.539 39.4297 127.414 38.5469 125.133 36.7812C123.211 35.3125 122.25 33.6172 122.25 31.6953C122.25 30.7109 122.547 29.8984 123.141 29.2578C123.734 28.6016 124.555 28.2734 125.602 28.2734C127.008 28.2734 128.039 28.9922 128.695 30.4297C129.586 32.3516 131.602 33.3125 134.742 33.3125C137.43 33.3125 140.031 32.7266 142.547 31.5547C145.156 30.3516 146.461 29.0312 146.461 27.5938C146.461 25.625 145.648 24.3281 144.023 23.7031C142.867 23.25 140.547 22.9844 137.062 22.9062C134.359 22.8438 131.938 22.3359 129.797 21.3828C126.906 20.0859 125.484 18.2266 125.531 15.8047C125.578 12.7578 127.203 9.96875 130.406 7.4375C133.609 4.89062 137.141 3.61719 141 3.61719C142.531 3.61719 144.422 3.96875 146.672 4.67188C149.469 5.54688 150.867 6.55469 150.867 7.69531C150.867 8.50781 150.586 9.22656 150.023 9.85156C149.398 10.5547 148.594 10.9062 147.609 10.9062C146.875 10.9062 145.773 10.75 144.305 10.4375C142.852 10.125 141.75 9.96875 141 9.96875C138.984 9.98438 137.07 10.4688 135.258 11.4219C133.383 12.3906 132.445 13.4453 132.445 14.5859C132.445 15.1797 132.727 15.6719 133.289 16.0625C133.867 16.4375 134.727 16.7031 135.867 16.8594C137.867 16.9688 139.859 17.0781 141.844 17.1875C145.312 17.4531 148.055 18.4297 150.07 20.1172C152.289 21.9922 153.398 24.5859 153.398 27.8984C153.398 31.9297 151.102 34.9844 146.508 37.0625C143.008 38.6406 139.008 39.4297 134.508 39.4297ZM164.086 24.9219C163.82 24.9219 163.164 24.8672 162.117 24.7578C162.023 26.9453 161.977 30.5391 161.977 35.5391C161.977 36.3672 161.688 37.0781 161.109 37.6719C160.531 38.2656 159.797 38.5625 158.906 38.5625C158.016 38.5625 157.273 38.2656 156.68 37.6719C156.102 37.0781 155.812 36.3672 155.812 35.5391V29C155.812 26.5781 155.969 22.9922 156.281 18.2422C156.578 13.4141 156.734 9.8125 156.75 7.4375C156.766 3.375 157.906 1.42969 160.172 1.60156C160.703 1.46094 161.438 1.35938 162.375 1.29688C163.312 1.21875 164.453 1.17969 165.797 1.17969C168.859 1.17969 171.734 2.17188 174.422 4.15625C177.406 6.375 178.898 9.07812 178.898 12.2656C178.898 16.2656 177.312 19.4453 174.141 21.8047C171.328 23.8828 167.977 24.9219 164.086 24.9219ZM165.258 7.22656C164.758 7.22656 164.312 7.23438 163.922 7.25C163.547 7.25 163.227 7.26562 162.961 7.29688C162.961 8.03125 162.953 9.13281 162.938 10.6016C162.906 12.3359 162.758 15.0391 162.492 18.7109C163.289 18.8359 163.82 18.8984 164.086 18.8984C166.523 18.8984 168.547 18.3203 170.156 17.1641C171.875 15.9297 172.734 14.2969 172.734 12.2656C172.734 10.9375 171.93 9.75781 170.32 8.72656C168.773 7.72656 167.086 7.22656 165.258 7.22656ZM205.992 7.95312C205.68 7.95312 205.352 7.90625 205.008 7.8125C202.477 7.125 200.016 6.78125 197.625 6.78125C196.453 6.78125 195.195 6.875 193.852 7.0625C192.508 7.25 191.078 7.53125 189.562 7.90625C189.562 9.98438 189.492 13.0703 189.352 17.1641C190.227 17.1016 193.281 16.8125 198.516 16.2969C201.5 16 203.391 15.8516 204.188 15.8516C205.109 15.8516 205.898 16.1484 206.555 16.7422C207.211 17.3203 207.539 18.0938 207.539 19.0625C207.539 20.9219 206.547 21.9766 204.562 22.2266C203.312 22.3203 201.445 22.4766 198.961 22.6953C196.742 22.9453 193.398 23.25 188.93 23.6094C188.82 25.5938 188.766 27.1953 188.766 28.4141C188.766 31.4766 188.945 33.2188 189.305 33.6406C189.477 33.8438 190.461 33.9453 192.258 33.9453C193.227 33.9453 194.688 33.9219 196.641 33.875C198.594 33.8281 200.055 33.8047 201.023 33.8047C201.336 33.8047 201.797 33.7578 202.406 33.6641C203.016 33.5703 203.469 33.5234 203.766 33.5234C204.672 33.5234 205.445 33.7812 206.086 34.2969C206.82 34.875 207.188 35.6875 207.188 36.7344C207.188 38.4844 206.273 39.5312 204.445 39.875C202.883 40.1719 199.641 40.3203 194.719 40.3203C189.625 40.3203 186.305 39.6328 184.758 38.2578C183.055 36.7422 182.203 33.4609 182.203 28.4141C182.203 26.3203 182.352 23.1797 182.648 18.9922C182.961 14.7891 183.117 11.6484 183.117 9.57031C183.117 9.02344 183.039 8.21875 182.883 7.15625C182.727 6.07812 182.648 5.26562 182.648 4.71875C182.648 2.34375 183.742 1.15625 185.93 1.15625C186.617 1.15625 187.25 1.35156 187.828 1.74219C189.641 1.28906 191.359 0.953125 192.984 0.734375C194.625 0.5 196.172 0.382812 197.625 0.382812C201.562 0.382812 204.711 0.835937 207.07 1.74219C208.508 2.28906 209.227 3.28125 209.227 4.71875C209.227 5.53125 208.945 6.25 208.383 6.875C207.758 7.59375 206.961 7.95312 205.992 7.95312ZM235.992 7.95312C235.68 7.95312 235.352 7.90625 235.008 7.8125C232.477 7.125 230.016 6.78125 227.625 6.78125C226.453 6.78125 225.195 6.875 223.852 7.0625C222.508 7.25 221.078 7.53125 219.562 7.90625C219.562 9.98438 219.492 13.0703 219.352 17.1641C220.227 17.1016 223.281 16.8125 228.516 16.2969C231.5 16 233.391 15.8516 234.188 15.8516C235.109 15.8516 235.898 16.1484 236.555 16.7422C237.211 17.3203 237.539 18.0938 237.539 19.0625C237.539 20.9219 236.547 21.9766 234.562 22.2266C233.312 22.3203 231.445 22.4766 228.961 22.6953C226.742 22.9453 223.398 23.25 218.93 23.6094C218.82 25.5938 218.766 27.1953 218.766 28.4141C218.766 31.4766 218.945 33.2188 219.305 33.6406C219.477 33.8438 220.461 33.9453 222.258 33.9453C223.227 33.9453 224.688 33.9219 226.641 33.875C228.594 33.8281 230.055 33.8047 231.023 33.8047C231.336 33.8047 231.797 33.7578 232.406 33.6641C233.016 33.5703 233.469 33.5234 233.766 33.5234C234.672 33.5234 235.445 33.7812 236.086 34.2969C236.82 34.875 237.188 35.6875 237.188 36.7344C237.188 38.4844 236.273 39.5312 234.445 39.875C232.883 40.1719 229.641 40.3203 224.719 40.3203C219.625 40.3203 216.305 39.6328 214.758 38.2578C213.055 36.7422 212.203 33.4609 212.203 28.4141C212.203 26.3203 212.352 23.1797 212.648 18.9922C212.961 14.7891 213.117 11.6484 213.117 9.57031C213.117 9.02344 213.039 8.21875 212.883 7.15625C212.727 6.07812 212.648 5.26562 212.648 4.71875C212.648 2.34375 213.742 1.15625 215.93 1.15625C216.617 1.15625 217.25 1.35156 217.828 1.74219C219.641 1.28906 221.359 0.953125 222.984 0.734375C224.625 0.5 226.172 0.382812 227.625 0.382812C231.562 0.382812 234.711 0.835937 237.07 1.74219C238.508 2.28906 239.227 3.28125 239.227 4.71875C239.227 5.53125 238.945 6.25 238.383 6.875C237.758 7.59375 236.961 7.95312 235.992 7.95312ZM246.609 38.2344C245.688 38.2188 244.914 37.9062 244.289 37.2969C243.664 36.6719 243.352 35.9219 243.352 35.0469C243.352 33.4844 243.422 31.1406 243.562 28.0156C243.719 24.8906 243.797 22.5469 243.797 20.9844C243.797 19.25 243.758 16.6484 243.68 13.1797C243.617 9.71094 243.586 7.10938 243.586 5.375C243.586 4.51562 244 3.66406 244.828 2.82031C245.656 1.96094 246.539 1.53125 247.477 1.53125C247.992 1.53125 249.289 2.01562 251.367 2.98438C253.789 4.14062 255.227 4.78906 255.68 4.92969C260.258 6.41406 264.164 8.71094 267.398 11.8203C271.258 15.5234 273.188 19.6172 273.188 24.1016C273.188 26.8047 272.523 29.375 271.195 31.8125C269.867 34.2969 268.047 36.2891 265.734 37.7891C263.141 39.4766 259.492 40.3203 254.789 40.3203C253.648 40.3203 252.336 40.1562 250.852 39.8281C249.055 39.4219 247.641 38.8906 246.609 38.2344ZM259.781 14.1406C258.266 13.1875 255.016 11.6875 250.031 9.64062V32.8438C250.641 33.2344 251.336 33.5312 252.117 33.7344C252.914 33.9219 253.797 34.0156 254.766 34.0156C258.141 34.0156 260.562 33.5469 262.031 32.6094C263.422 31.7188 264.523 30.5078 265.336 28.9766C266.164 27.4453 266.578 25.8516 266.578 24.1953C266.578 20.3203 264.312 16.9688 259.781 14.1406ZM288.023 39.4297C284.055 39.4297 280.93 38.5469 278.648 36.7812C276.727 35.3125 275.766 33.6172 275.766 31.6953C275.766 30.7109 276.062 29.8984 276.656 29.2578C277.25 28.6016 278.07 28.2734 279.117 28.2734C280.523 28.2734 281.555 28.9922 282.211 30.4297C283.102 32.3516 285.117 33.3125 288.258 33.3125C290.945 33.3125 293.547 32.7266 296.062 31.5547C298.672 30.3516 299.977 29.0312 299.977 27.5938C299.977 25.625 299.164 24.3281 297.539 23.7031C296.383 23.25 294.062 22.9844 290.578 22.9062C287.875 22.8438 285.453 22.3359 283.312 21.3828C280.422 20.0859 279 18.2266 279.047 15.8047C279.094 12.7578 280.719 9.96875 283.922 7.4375C287.125 4.89062 290.656 3.61719 294.516 3.61719C296.047 3.61719 297.938 3.96875 300.188 4.67188C302.984 5.54688 304.383 6.55469 304.383 7.69531C304.383 8.50781 304.102 9.22656 303.539 9.85156C302.914 10.5547 302.109 10.9062 301.125 10.9062C300.391 10.9062 299.289 10.75 297.82 10.4375C296.367 10.125 295.266 9.96875 294.516 9.96875C292.5 9.98438 290.586 10.4688 288.773 11.4219C286.898 12.3906 285.961 13.4453 285.961 14.5859C285.961 15.1797 286.242 15.6719 286.805 16.0625C287.383 16.4375 288.242 16.7031 289.383 16.8594C291.383 16.9688 293.375 17.0781 295.359 17.1875C298.828 17.4531 301.57 18.4297 303.586 20.1172C305.805 21.9922 306.914 24.5859 306.914 27.8984C306.914 31.9297 304.617 34.9844 300.023 37.0625C296.523 38.6406 292.523 39.4297 288.023 39.4297ZM338.297 9.89844C337.078 9.89844 335.18 9.8125 332.602 9.64062C330.117 9.46875 328.219 9.39062 326.906 9.40625C326.969 11.1875 327.18 14.3594 327.539 18.9219C327.867 22.9531 328.031 26.1406 328.031 28.4844C328.031 29.0156 328.086 29.8047 328.195 30.8516C328.305 31.8984 328.359 32.6875 328.359 33.2188C328.359 34.3906 328.109 35.4453 327.609 36.3828C326.969 37.5859 326.055 38.1875 324.867 38.1875C324.008 38.1875 323.25 37.9141 322.594 37.3672C321.859 36.7578 321.492 35.9922 321.492 35.0703C321.492 34.8516 321.531 34.5234 321.609 34.0859C321.688 33.6328 321.727 33.2891 321.727 33.0547C321.727 32.3359 321.672 31.25 321.562 29.7969C321.469 28.3438 321.422 27.25 321.422 26.5156C321.422 24.4219 321.258 21.5859 320.93 18.0078C320.555 13.8984 320.336 11.0625 320.273 9.5H319.055C315.57 9.5 312.805 9.25 310.758 8.75C309.023 8.32812 308.156 7.30469 308.156 5.67969C308.156 4.88281 308.438 4.16406 309 3.52344C309.656 2.75781 310.516 2.41406 311.578 2.49219C312.125 2.52344 313.367 2.65625 315.305 2.89062C316.852 3.0625 318.102 3.14844 319.055 3.14844C320.008 3.14844 321.43 3.13281 323.32 3.10156C325.227 3.07031 326.656 3.05469 327.609 3.05469C328.797 3.05469 330.578 3.14062 332.953 3.3125C335.328 3.46875 337.109 3.54688 338.297 3.54688C339.234 3.54688 340.016 3.85156 340.641 4.46094C341.281 5.07031 341.602 5.82031 341.602 6.71094C341.602 7.60156 341.281 8.35938 340.641 8.98438C340.016 9.59375 339.234 9.89844 338.297 9.89844ZM367.336 7.95312C367.023 7.95312 366.695 7.90625 366.352 7.8125C363.82 7.125 361.359 6.78125 358.969 6.78125C357.797 6.78125 356.539 6.875 355.195 7.0625C353.852 7.25 352.422 7.53125 350.906 7.90625C350.906 9.98438 350.836 13.0703 350.695 17.1641C351.57 17.1016 354.625 16.8125 359.859 16.2969C362.844 16 364.734 15.8516 365.531 15.8516C366.453 15.8516 367.242 16.1484 367.898 16.7422C368.555 17.3203 368.883 18.0938 368.883 19.0625C368.883 20.9219 367.891 21.9766 365.906 22.2266C364.656 22.3203 362.789 22.4766 360.305 22.6953C358.086 22.9453 354.742 23.25 350.273 23.6094C350.164 25.5938 350.109 27.1953 350.109 28.4141C350.109 31.4766 350.289 33.2188 350.648 33.6406C350.82 33.8438 351.805 33.9453 353.602 33.9453C354.57 33.9453 356.031 33.9219 357.984 33.875C359.938 33.8281 361.398 33.8047 362.367 33.8047C362.68 33.8047 363.141 33.7578 363.75 33.6641C364.359 33.5703 364.812 33.5234 365.109 33.5234C366.016 33.5234 366.789 33.7812 367.43 34.2969C368.164 34.875 368.531 35.6875 368.531 36.7344C368.531 38.4844 367.617 39.5312 365.789 39.875C364.227 40.1719 360.984 40.3203 356.062 40.3203C350.969 40.3203 347.648 39.6328 346.102 38.2578C344.398 36.7422 343.547 33.4609 343.547 28.4141C343.547 26.3203 343.695 23.1797 343.992 18.9922C344.305 14.7891 344.461 11.6484 344.461 9.57031C344.461 9.02344 344.383 8.21875 344.227 7.15625C344.07 6.07812 343.992 5.26562 343.992 4.71875C343.992 2.34375 345.086 1.15625 347.273 1.15625C347.961 1.15625 348.594 1.35156 349.172 1.74219C350.984 1.28906 352.703 0.953125 354.328 0.734375C355.969 0.5 357.516 0.382812 358.969 0.382812C362.906 0.382812 366.055 0.835937 368.414 1.74219C369.852 2.28906 370.57 3.28125 370.57 4.71875C370.57 5.53125 370.289 6.25 369.727 6.875C369.102 7.59375 368.305 7.95312 367.336 7.95312ZM397.734 38.2812C396.891 38.2812 396.117 37.9531 395.414 37.2969C390.68 32.8594 385.477 29.7812 379.805 28.0625C379.977 32.6094 380.062 35.1328 380.062 35.6328C380.062 36.5234 379.75 37.2812 379.125 37.9062C378.5 38.5156 377.719 38.8203 376.781 38.8203C375.844 38.8203 375.062 38.5156 374.438 37.9062C373.812 37.2812 373.5 36.5234 373.5 35.6328C373.5 34.4609 373.516 32.7109 373.547 30.3828C373.578 28.0391 373.594 26.2812 373.594 25.1094L373.641 6.19531C373.641 5.17969 373.945 4.25781 374.555 3.42969C375.352 2.36719 376.453 1.89062 377.859 2C381.656 2.28125 383.602 2.42969 383.695 2.44531C385.883 2.71094 387.742 3.23438 389.273 4.01562C395.945 7.375 399.281 11.5391 399.281 16.5078C399.281 18.5547 398.578 20.3672 397.172 21.9453C395.781 23.5078 393.688 24.8281 390.891 25.9062C395.031 28.2188 398.148 30.5781 400.242 32.9844C400.789 33.6094 401.062 34.3047 401.062 35.0703C401.062 35.9453 400.734 36.7031 400.078 37.3438C399.422 37.9688 398.641 38.2812 397.734 38.2812ZM382.711 8.79688C382.586 8.78125 381.672 8.71875 379.969 8.60938V21.0547C380.359 21.0703 380.703 21.0781 381 21.0781C384.828 21.0781 387.664 20.6016 389.508 19.6484C390.305 19.2422 391.031 18.7031 391.688 18.0312C392.359 17.3594 392.695 16.8516 392.695 16.5078C392.695 14.7578 391.586 13.0703 389.367 11.4453C387.258 9.91406 385.039 9.03125 382.711 8.79688Z" fill="url(#paint0_linear_242_154)"/>
<defs>
<linearGradient id="paint0_linear_242_154" x1="464.616" y1="6.67645" x2="-135.89" y2="79.1723" gradientUnits="userSpaceOnUse">
<stop stop-color="#EF4523"/>
<stop offset="1" stop-color="#FFF33B"/>
</linearGradient>
</defs>
</svg>
