<svg width="65" height="33" viewBox="0 0 65 33" fill="none" xmlns="http://www.w3.org/2000/svg">
<rect width="65" height="33" rx="16.5" fill="white"/>
<circle cx="48" cy="17" r="14" fill="#FEC60D"/>
<g clip-path="url(#clip0_126_529)">
<path d="M49.8746 8C49.7978 8.00057 49.723 8.02482 49.6605 8.06944C49.5979 8.11406 49.5507 8.17689 49.5251 8.24935C49.4996 8.3218 49.497 8.40037 49.5178 8.47434C49.5385 8.54831 49.5816 8.61408 49.6411 8.66268L49.6449 8.66598C49.6556 8.67484 49.6663 8.6838 49.6769 8.69272C49.6883 8.70236 49.6999 8.71196 49.7114 8.72166C49.7114 8.72176 49.7114 8.72185 49.7114 8.72195C49.7228 8.73164 49.7344 8.74113 49.7458 8.75089C49.7458 8.75098 49.7458 8.75108 49.7458 8.75117C49.7572 8.76093 49.7684 8.77086 49.7797 8.78067C49.791 8.79039 49.8022 8.80009 49.8134 8.80989C49.8246 8.81978 49.8358 8.8297 49.847 8.83966C49.8583 8.84959 49.8695 8.8597 49.8806 8.86971C49.8916 8.87963 49.9027 8.88976 49.9137 8.89975C49.9248 8.90982 49.9357 8.91995 49.9468 8.93007C49.9578 8.94022 49.9688 8.95019 49.9798 8.9604C49.9907 8.97052 50.0016 8.98082 50.0124 8.99099C50.0124 8.99109 50.0124 8.99118 50.0124 8.99127C50.0232 9.00153 50.034 9.01182 50.0449 9.02214C50.0558 9.03245 50.0666 9.04292 50.0774 9.05329C50.0883 9.06368 50.0989 9.07399 50.1097 9.08444C50.1204 9.09487 50.1312 9.10538 50.1419 9.11587C50.1525 9.12623 50.1629 9.13687 50.1733 9.14729C50.1839 9.15787 50.1947 9.16835 50.2053 9.17899C50.2159 9.1896 50.2265 9.20029 50.237 9.21097C50.237 9.21106 50.237 9.21116 50.237 9.21126C50.2476 9.22193 50.258 9.23277 50.2685 9.24351C50.2789 9.25421 50.2892 9.26473 50.2996 9.27548C50.31 9.28627 50.3204 9.29717 50.3308 9.30801C50.3411 9.31888 50.3513 9.32962 50.3616 9.34054C50.3718 9.35136 50.3818 9.36218 50.392 9.37307C50.3924 9.37335 50.3929 9.37363 50.3934 9.37391C50.4037 9.38487 50.4138 9.39569 50.424 9.40671L50.4225 9.40614C50.4327 9.41718 50.4428 9.42813 50.4529 9.43922C50.4529 9.4395 50.4529 9.43978 50.4529 9.44006C50.463 9.45113 50.4732 9.46202 50.4832 9.47314C50.4932 9.48429 50.5033 9.49557 50.5132 9.50677C50.523 9.51778 50.5327 9.52879 50.5425 9.53985C50.5425 9.53994 50.5425 9.54003 50.5425 9.54013C50.5523 9.55137 50.5624 9.56272 50.5722 9.57403C50.582 9.58525 50.5915 9.59639 50.6012 9.60766C50.6012 9.60794 50.6012 9.60822 50.6012 9.6085C50.6109 9.61985 50.6209 9.63128 50.6307 9.64268C50.6401 9.65382 50.6497 9.66513 50.6591 9.67631C50.6591 9.6765 50.6591 9.67669 50.6591 9.67688C50.6687 9.68834 50.6784 9.69982 50.688 9.71134C50.6976 9.72281 50.7072 9.73427 50.7167 9.74579C50.7261 9.75728 50.7354 9.7687 50.7448 9.78025C50.7448 9.78035 50.7448 9.78044 50.7448 9.78054C50.7542 9.79217 50.7638 9.80386 50.7732 9.81555C50.7826 9.82723 50.792 9.8391 50.8013 9.85083C50.8106 9.86254 50.8202 9.87434 50.8294 9.88611C50.8387 9.89791 50.848 9.90955 50.8572 9.9214C50.8663 9.93304 50.8753 9.94471 50.8843 9.95641C50.8843 9.95669 50.8843 9.95697 50.8843 9.95725C50.8934 9.96913 50.9025 9.98115 50.9116 9.99308C50.9206 10.0049 50.9294 10.0168 50.9383 10.0286C50.9472 10.0406 50.9562 10.0525 50.965 10.0645C50.965 10.0647 50.965 10.0649 50.965 10.065C50.9739 10.0771 50.9826 10.0891 50.9915 10.1012C51.0004 10.1132 51.0092 10.1252 51.018 10.1373C51.0267 10.1494 51.0354 10.1617 51.0441 10.1739C51.0529 10.1861 51.0615 10.1981 51.0701 10.2103C51.0787 10.2225 51.0874 10.2347 51.096 10.247C51.096 10.2471 51.096 10.2472 51.096 10.2473C51.1046 10.2595 51.1131 10.2719 51.1216 10.2842C51.1216 10.2843 51.1216 10.2844 51.1216 10.2845C51.1301 10.2968 51.1385 10.309 51.147 10.3214C51.1553 10.3337 51.1638 10.346 51.1721 10.3584C51.1721 10.3584 51.1721 10.3585 51.1721 10.3586C51.1804 10.3711 51.1888 10.3834 51.1971 10.3959C51.2055 10.4083 51.2137 10.4208 51.222 10.4333C51.222 10.4334 51.222 10.4335 51.222 10.4336C51.2301 10.4461 51.2386 10.4586 51.2468 10.4711C51.2548 10.4836 51.2627 10.4961 51.2707 10.5086C51.2707 10.5087 51.2707 10.5088 51.2707 10.5089C51.2788 10.5215 51.287 10.5343 51.295 10.5469C51.303 10.5596 51.311 10.5723 51.319 10.585C51.3269 10.5977 51.3348 10.6103 51.3427 10.623C51.3506 10.6358 51.3586 10.6485 51.3664 10.6613C51.3742 10.674 51.3819 10.6869 51.3896 10.6996C51.3973 10.7125 51.405 10.7253 51.4127 10.7382C51.4127 10.7384 51.4127 10.7386 51.4127 10.7388C51.4203 10.7517 51.428 10.7645 51.4356 10.7774C51.4431 10.79 51.4503 10.8027 51.4576 10.8154C51.4576 10.8156 51.4576 10.8158 51.4576 10.816C51.4651 10.829 51.4728 10.8421 51.4802 10.8551C51.4877 10.8681 51.4952 10.8812 51.5026 10.8943C51.5099 10.9072 51.5171 10.9202 51.5243 10.9331C51.5315 10.9462 51.5389 10.9592 51.5461 10.9723C51.5461 10.9724 51.5461 10.9725 51.5461 10.9726C51.5533 10.9857 51.5607 10.9991 51.5679 11.0123C51.5751 11.0254 51.582 11.0385 51.5891 11.0517C51.5962 11.0648 51.6031 11.0779 51.6101 11.0911C51.6101 11.0912 51.6101 11.0913 51.6101 11.0914C51.6171 11.1047 51.624 11.1181 51.631 11.1314C51.6379 11.1445 51.6446 11.1578 51.6514 11.1711C51.6583 11.1844 51.6652 11.1979 51.6721 11.2113C51.6789 11.2245 51.6855 11.238 51.6922 11.2513C51.699 11.2647 51.7058 11.2783 51.7123 11.2918C51.7188 11.3051 51.7255 11.3184 51.7319 11.3318C51.7319 11.3319 51.7319 11.3319 51.7319 11.332C51.7384 11.3455 51.7453 11.359 51.7518 11.3726C51.7581 11.386 51.7645 11.3996 51.7708 11.4131C51.7771 11.4266 51.7838 11.4403 51.7901 11.4539C51.7964 11.4674 51.8026 11.4811 51.8088 11.4947C51.815 11.5083 51.8214 11.5221 51.8276 11.5357C51.8336 11.5493 51.8397 11.5629 51.8458 11.5765C51.8518 11.5902 51.8579 11.6039 51.864 11.6176C51.864 11.6178 51.864 11.618 51.864 11.6182C51.87 11.6319 51.876 11.6455 51.8819 11.6593C51.8877 11.6727 51.8934 11.6862 51.8992 11.6998C51.8992 11.7001 51.8992 11.7003 51.8992 11.7006C51.9052 11.7144 51.9111 11.7284 51.9169 11.7422C51.9225 11.7558 51.9282 11.7694 51.9337 11.783C51.9337 11.7831 51.9337 11.7832 51.9337 11.7833C51.9393 11.7972 51.9451 11.8111 51.9508 11.825C51.9564 11.8388 51.9621 11.8527 51.9676 11.8666C51.9731 11.8805 51.9786 11.8945 51.9841 11.9085C51.9895 11.9224 51.995 11.9362 52.0004 11.9501C52.0058 11.9641 52.0111 11.9783 52.0164 11.9923C52.0164 11.9924 52.0164 11.9925 52.0164 11.9926C52.0217 12.0066 52.0268 12.0207 52.0321 12.0348C52.0373 12.0488 52.0424 12.0629 52.0475 12.0769C52.0526 12.0909 52.058 12.1048 52.063 12.1188C52.068 12.1329 52.0731 12.1471 52.0781 12.1613C52.0832 12.1754 52.0881 12.1896 52.093 12.2037C52.0978 12.2178 52.1026 12.2318 52.1073 12.2459C52.1073 12.246 52.1073 12.2461 52.1073 12.2462C52.1121 12.2604 52.1169 12.2747 52.1217 12.2889C52.1217 12.2891 52.1217 12.2893 52.1217 12.2895C52.1265 12.3037 52.1313 12.318 52.136 12.3322C52.1405 12.3462 52.1453 12.3601 52.1499 12.3741C52.1545 12.3884 52.1589 12.4026 52.1634 12.4169C52.1634 12.417 52.1634 12.4172 52.1634 12.4174C52.1679 12.4317 52.1724 12.4461 52.177 12.4604C52.1813 12.4746 52.1856 12.4887 52.1899 12.5029C52.1943 12.5172 52.1987 12.5315 52.2029 12.5459C52.2029 12.5462 52.2029 12.5464 52.2029 12.5467C52.2073 12.5611 52.2117 12.5756 52.2159 12.59C52.22 12.6039 52.2238 12.6179 52.2278 12.6319C52.2278 12.6322 52.2278 12.6325 52.2278 12.6327C52.2319 12.6472 52.2361 12.6616 52.2402 12.676V12.6757C52.2443 12.6901 52.2484 12.7048 52.2523 12.7193C52.2563 12.7336 52.2601 12.7479 52.2639 12.7623C52.2677 12.7767 52.2716 12.7911 52.2755 12.8055C52.2755 12.8058 52.2755 12.8061 52.2755 12.8064C52.2793 12.8209 52.2834 12.8354 52.287 12.8499V12.8496C52.2907 12.8642 52.2944 12.8786 52.298 12.8932C52.3017 12.9077 52.3052 12.9222 52.3088 12.9368C52.3123 12.9513 52.3161 12.9657 52.3195 12.9803V12.98C52.3229 12.9946 52.3263 13.0092 52.3297 13.0238C52.3297 13.0241 52.3297 13.0244 52.3297 13.0247C52.3331 13.0393 52.3366 13.0539 52.3398 13.0685C52.3432 13.0831 52.3462 13.0977 52.3494 13.1123C52.3527 13.1269 52.3559 13.1413 52.359 13.1559C52.3621 13.1705 52.3654 13.1853 52.3683 13.2C52.3714 13.2146 52.3743 13.2292 52.3772 13.2438C52.3802 13.2584 52.3832 13.273 52.3861 13.2876C52.3889 13.3023 52.3919 13.317 52.3947 13.3318C52.3976 13.3464 52.4001 13.3609 52.4028 13.3756C52.4028 13.3759 52.4028 13.3761 52.4028 13.3764C52.4055 13.3912 52.4081 13.406 52.4108 13.4208C52.4135 13.4355 52.4163 13.4502 52.4189 13.4649V13.4646C52.4214 13.4794 52.4241 13.4942 52.4266 13.509C52.429 13.5238 52.4314 13.5386 52.4338 13.5534C52.4362 13.5681 52.4385 13.5827 52.4407 13.5975C52.4407 13.5979 52.4407 13.5982 52.4407 13.5986C52.4431 13.6134 52.4454 13.6282 52.4477 13.643C52.4499 13.6577 52.4522 13.6726 52.4543 13.6874C52.4564 13.7021 52.4585 13.717 52.4606 13.7317C52.4628 13.7465 52.4647 13.7614 52.4667 13.7761C52.4687 13.7909 52.4707 13.8057 52.4725 13.8205C52.4725 13.8208 52.4725 13.8211 52.4725 13.8213C52.4745 13.8362 52.4765 13.8511 52.4783 13.866C52.48 13.8805 52.4815 13.8948 52.4832 13.9093C52.4832 13.9097 52.4832 13.91 52.4832 13.9104C52.4849 13.9253 52.4865 13.9402 52.4882 13.9551C52.4899 13.9699 52.4916 13.9849 52.4931 13.9997C52.4947 14.0145 52.4961 14.0293 52.4975 14.0441C52.4989 14.059 52.5005 14.0738 52.5019 14.0888C52.5033 14.1037 52.5047 14.1185 52.506 14.1334C52.5074 14.1483 52.5087 14.1631 52.5098 14.1781C52.5112 14.1929 52.5123 14.2079 52.5133 14.2227C52.5133 14.2231 52.5133 14.2235 52.5133 14.2239C52.5147 14.2388 52.5156 14.2536 52.5166 14.2685C52.518 14.2835 52.5188 14.2985 52.5198 14.3134C52.5212 14.3283 52.5216 14.3432 52.5226 14.3581C52.524 14.3731 52.5243 14.3878 52.5252 14.4028C52.5266 14.4177 52.5267 14.4327 52.5274 14.4477C52.5288 14.4626 52.529 14.4775 52.5297 14.4924C52.5297 14.5072 52.5311 14.5221 52.5314 14.537C52.5314 14.5374 52.5314 14.5378 52.5314 14.5381C52.5314 14.5531 52.5328 14.5681 52.5331 14.5831C52.5331 14.5981 52.5345 14.613 52.5345 14.628C52.5345 14.6286 52.5345 14.6293 52.5345 14.6299C52.5345 14.6449 52.5359 14.6599 52.5359 14.6749C52.5359 14.6756 52.5359 14.6763 52.5359 14.6771C52.5359 14.6921 52.5373 14.707 52.5373 14.722C52.5373 14.734 52.5373 14.7459 52.5373 14.7578C52.5373 14.7586 52.5373 14.7593 52.5373 14.76C52.5373 14.775 52.5373 14.79 52.5373 14.805C52.5373 14.8057 52.5373 14.8064 52.5373 14.8072C52.5373 14.8222 52.5373 14.8371 52.5373 14.8521C52.5373 14.8528 52.5373 14.8534 52.5373 14.854C52.5373 14.869 52.5373 14.884 52.5373 14.899C52.5373 14.8997 52.5373 14.9004 52.5373 14.9012C52.5373 14.9131 52.5373 14.9251 52.5373 14.937C52.5373 14.952 52.5359 14.967 52.5359 14.9819C52.5359 14.9827 52.5359 14.9834 52.5359 14.9841C52.5359 14.9991 52.5345 15.0141 52.5345 15.0291C52.5345 15.0298 52.5345 15.0305 52.5345 15.0313C52.5345 15.0463 52.5331 15.0612 52.5331 15.0762C52.5331 15.0765 52.5331 15.0768 52.5331 15.0771C52.5331 15.092 52.5317 15.107 52.5317 15.122C52.5317 15.137 52.5303 15.152 52.5297 15.1669C52.5297 15.1818 52.5283 15.1967 52.5277 15.2116C52.5277 15.212 52.5277 15.2123 52.5277 15.2127C52.5277 15.2277 52.5263 15.2427 52.5255 15.2576C52.5241 15.2725 52.5238 15.2874 52.5229 15.3023C52.5215 15.3172 52.5211 15.3321 52.5202 15.347C52.5188 15.3619 52.5185 15.3767 52.5174 15.3916C52.516 15.4066 52.5153 15.4216 52.5142 15.4365C52.5128 15.4514 52.5118 15.4664 52.5106 15.4812C52.5092 15.496 52.5084 15.511 52.5071 15.5259C52.5071 15.5261 52.5071 15.5264 52.5071 15.5267C52.5057 15.5416 52.5046 15.5567 52.5033 15.5716C52.5019 15.5865 52.5006 15.6014 52.4992 15.6163C52.4978 15.6308 52.4964 15.6454 52.4948 15.6598C52.4948 15.6601 52.4948 15.6604 52.4948 15.6607C52.4933 15.6756 52.4917 15.6904 52.4902 15.7053C52.4885 15.7202 52.4869 15.7351 52.4852 15.75C52.4852 15.7503 52.4852 15.7505 52.4852 15.7508C52.4835 15.7657 52.4817 15.7806 52.48 15.7955C52.4782 15.81 52.4766 15.8243 52.4748 15.8388C52.473 15.8536 52.471 15.8686 52.469 15.8834C52.467 15.8982 52.465 15.913 52.4629 15.9278C52.4629 15.9281 52.4629 15.9284 52.4629 15.9286C52.461 15.9435 52.459 15.9585 52.4569 15.9733C52.4547 15.9881 52.4528 16.0029 52.4505 16.0177C52.4484 16.0324 52.4459 16.0471 52.4436 16.0618C52.4413 16.0766 52.4391 16.0914 52.4367 16.1062C52.4343 16.1209 52.432 16.1356 52.4295 16.1503C52.4269 16.1651 52.4243 16.1799 52.4217 16.1946C52.4217 16.1949 52.4217 16.1952 52.4217 16.1955C52.4192 16.2103 52.4166 16.2251 52.414 16.2399C52.4114 16.2546 52.4086 16.2693 52.4059 16.284C52.4032 16.2986 52.4004 16.3132 52.3976 16.3278C52.3948 16.3425 52.3922 16.3572 52.3893 16.3719C52.3864 16.3865 52.3833 16.4011 52.3804 16.4157C52.3804 16.4161 52.3804 16.4165 52.3804 16.4169C52.3774 16.4316 52.3746 16.446 52.3715 16.4607C52.3685 16.4754 52.3654 16.4899 52.3624 16.5045C52.3593 16.5192 52.3562 16.5337 52.3531 16.5484C52.3499 16.563 52.3468 16.5775 52.3435 16.5922C52.3403 16.6067 52.3369 16.6212 52.3337 16.6357C52.3303 16.6504 52.3269 16.665 52.3235 16.6796C52.3235 16.6798 52.3235 16.6799 52.3235 16.6801C52.3201 16.6947 52.3166 16.7094 52.313 16.724C52.3097 16.7382 52.3061 16.7522 52.3026 16.7664C52.3026 16.7667 52.3026 16.767 52.3026 16.7673C52.2991 16.7818 52.2956 16.7965 52.2919 16.8111C52.2882 16.8255 52.2844 16.8399 52.2806 16.8544C52.2768 16.8688 52.2731 16.8832 52.2693 16.8976C52.2693 16.8979 52.2693 16.8982 52.2693 16.8985C52.2655 16.913 52.2617 16.9273 52.2577 16.9418C52.2539 16.9559 52.2501 16.9701 52.2462 16.9842C52.2462 16.9844 52.2462 16.9846 52.2462 16.9848C52.2422 16.9992 52.2381 17.0136 52.234 17.0281C52.2299 17.0425 52.2258 17.0567 52.2216 17.0711C52.2216 17.0713 52.2216 17.0716 52.2216 17.0719C52.2175 17.0863 52.2134 17.1008 52.2092 17.1152C52.2051 17.1291 52.2007 17.1429 52.1965 17.1568C52.1965 17.1572 52.1965 17.1575 52.1965 17.1579C52.1921 17.1723 52.1879 17.1866 52.1835 17.2009C52.1791 17.2152 52.1744 17.2294 52.1699 17.2437V17.2434C52.1654 17.2576 52.1608 17.2718 52.1561 17.2861C52.1561 17.2862 52.1561 17.2863 52.1561 17.2864C52.1516 17.3007 52.1469 17.3149 52.1423 17.3291C52.1376 17.3433 52.133 17.3574 52.1282 17.3716C52.1234 17.3858 52.1187 17.3998 52.1138 17.414C52.1138 17.4142 52.1138 17.4144 52.1138 17.4146C52.109 17.4288 52.1044 17.4431 52.0995 17.4573V17.4567C52.0946 17.4709 52.0899 17.485 52.0849 17.4992C52.0849 17.4993 52.0849 17.4994 52.0849 17.4995C52.0799 17.5136 52.075 17.5276 52.07 17.5417C52.0649 17.5557 52.0597 17.5698 52.0546 17.5838C52.0546 17.5839 52.0546 17.584 52.0546 17.5841C52.0495 17.5982 52.0444 17.6123 52.0391 17.6263C52.0391 17.6264 52.0391 17.6265 52.0391 17.6266C52.0339 17.6407 52.0287 17.6547 52.0234 17.6688C52.0182 17.6825 52.013 17.6964 52.0077 17.7101C52.0077 17.7102 52.0077 17.7103 52.0077 17.7104C52.0024 17.7244 51.9968 17.7384 51.9914 17.7523C51.9914 17.7524 51.9914 17.7525 51.9914 17.7526C51.9859 17.7666 51.9807 17.7806 51.9752 17.7945C51.9697 17.8084 51.964 17.8221 51.9584 17.8359C51.9527 17.8498 51.9469 17.8637 51.9413 17.8775C51.9413 17.8776 51.9413 17.8777 51.9413 17.8778C51.9356 17.8917 51.9297 17.9056 51.9239 17.9194C51.9181 17.9332 51.9126 17.9468 51.9068 17.9605C51.9068 17.9606 51.9068 17.9607 51.9068 17.9608C51.901 17.9746 51.8951 17.9884 51.8892 18.0022C51.8832 18.0159 51.8773 18.0298 51.8712 18.0435C51.8653 18.0571 51.8594 18.0707 51.8533 18.0843C51.8533 18.0844 51.8533 18.0845 51.8533 18.0846C51.8472 18.0983 51.841 18.112 51.8348 18.1257C51.8348 18.1259 51.8348 18.1261 51.8348 18.1262C51.8288 18.1399 51.8226 18.1534 51.8164 18.167C51.8103 18.1804 51.8038 18.1939 51.7976 18.2073C51.7976 18.2074 51.7976 18.2075 51.7976 18.2076C51.7913 18.2212 51.7849 18.2348 51.7786 18.2484C51.7786 18.2485 51.7786 18.2486 51.7786 18.2487C51.7723 18.2623 51.7661 18.2757 51.7596 18.2892C51.7533 18.3025 51.7468 18.3156 51.7403 18.3289C51.7403 18.3292 51.7403 18.3295 51.7403 18.3297C51.7338 18.3433 51.727 18.3568 51.7205 18.3703V18.3697C51.7138 18.3832 51.707 18.3965 51.7003 18.4099C51.7003 18.41 51.7003 18.4101 51.7003 18.4102C51.6937 18.4237 51.6869 18.4368 51.6802 18.4502C51.6734 18.4636 51.6667 18.4771 51.6598 18.4905C51.6598 18.4906 51.6598 18.4907 51.6598 18.4908C51.653 18.5041 51.6463 18.5174 51.6394 18.5307C51.6325 18.544 51.6254 18.557 51.6185 18.5702C51.6185 18.5703 51.6185 18.5705 51.6185 18.5707C51.6116 18.584 51.6045 18.5972 51.5975 18.6104C51.5905 18.6236 51.5834 18.6367 51.5763 18.6498C51.5692 18.6629 51.562 18.6762 51.5548 18.6893C51.5548 18.6894 51.5548 18.6895 51.5548 18.6896C51.5476 18.7027 51.5406 18.7159 51.5333 18.729C51.5261 18.742 51.5188 18.7548 51.5115 18.7678C51.5042 18.7809 51.4966 18.794 51.4892 18.807C51.4892 18.8071 51.4892 18.8072 51.4892 18.8073C51.4819 18.8202 51.4743 18.833 51.4669 18.8459C51.4594 18.8588 51.452 18.8719 51.4445 18.8847C51.4445 18.8848 51.4445 18.8849 51.4445 18.885C51.4371 18.898 51.4293 18.9107 51.4217 18.9236C51.414 18.9364 51.4064 18.9495 51.3988 18.9622C51.3912 18.975 51.3834 18.9876 51.3756 19.0003C51.3756 19.0005 51.3756 19.0006 51.3756 19.0008C51.3679 19.0137 51.3598 19.0264 51.3519 19.0391C51.3442 19.0518 51.3364 19.0646 51.3285 19.0772C51.3206 19.0898 51.3127 19.1024 51.3048 19.115C51.3048 19.1151 51.3048 19.1153 51.3048 19.1155C51.2967 19.1282 51.2889 19.1407 51.2808 19.1533C51.2728 19.1659 51.2647 19.1785 51.2565 19.191C51.2565 19.1911 51.2565 19.1912 51.2565 19.1913C51.2484 19.2039 51.2402 19.2163 51.232 19.2288C51.2238 19.2414 51.2158 19.2541 51.2075 19.2666V19.266C51.1991 19.2785 51.191 19.2911 51.1827 19.3035C51.1827 19.3036 51.1827 19.3037 51.1827 19.3038C51.1743 19.3163 51.166 19.3289 51.1576 19.3413C51.1493 19.3537 51.1407 19.366 51.1322 19.3783C51.1237 19.3906 51.1151 19.4032 51.1066 19.4155C51.098 19.4278 51.0896 19.4399 51.0809 19.4521C51.0723 19.4643 51.0637 19.4764 51.055 19.4885C51.055 19.4886 51.055 19.4887 51.055 19.4888C51.0463 19.501 51.0376 19.5133 51.0288 19.5255C51.0201 19.5375 51.0114 19.5496 51.0027 19.5616C51.0027 19.5617 51.0027 19.5618 51.0027 19.5619C50.9938 19.574 50.9851 19.5862 50.9762 19.5983C50.9675 19.6102 50.9586 19.6217 50.9497 19.6336C50.9497 19.6338 50.9497 19.6341 50.9497 19.6344C50.9409 19.6464 50.9318 19.6585 50.9227 19.6705C50.9138 19.6824 50.9047 19.6943 50.8957 19.7061C50.8867 19.7179 50.8776 19.7298 50.8684 19.7416C50.8592 19.7534 50.85 19.7649 50.8409 19.7766C50.8409 19.7768 50.8409 19.777 50.8409 19.7772C50.8317 19.789 50.8223 19.8007 50.813 19.8125C50.813 19.8126 50.813 19.8127 50.813 19.8128C50.8037 19.8245 50.7943 19.8361 50.7849 19.8478C50.7756 19.8595 50.7662 19.8712 50.7568 19.8828C50.7473 19.8944 50.7378 19.9057 50.7284 19.9173C50.7284 19.9175 50.7284 19.9176 50.7284 19.9178C50.7189 19.9294 50.7096 19.941 50.7 19.9526C50.6904 19.9641 50.6809 19.9753 50.6713 19.9867C50.6617 19.9982 50.652 20.0096 50.6424 20.0209C50.6424 20.021 50.6424 20.0211 50.6424 20.0212C50.6326 20.0327 50.6229 20.044 50.6132 20.0554C50.6132 20.0555 50.6132 20.0556 50.6132 20.0557C50.6034 20.0671 50.5935 20.0786 50.5837 20.0899C50.5741 20.101 50.5644 20.112 50.5547 20.123C50.5547 20.1233 50.5547 20.1236 50.5547 20.1238C50.5449 20.1351 50.5349 20.1462 50.525 20.1575C50.5151 20.1686 50.5054 20.1798 50.4955 20.1908C50.4854 20.202 50.4752 20.2131 50.4652 20.2242C50.4551 20.2353 50.445 20.2465 50.4348 20.2575C50.4248 20.2685 50.4146 20.2795 50.4045 20.2903C50.3943 20.3013 50.3841 20.3123 50.3739 20.3231C50.3636 20.3341 50.3534 20.3451 50.343 20.356C50.343 20.356 50.343 20.3561 50.343 20.3562C50.3327 20.3671 50.3223 20.3779 50.3119 20.3887C50.3016 20.3994 50.2914 20.41 50.281 20.4207C50.281 20.4208 50.281 20.4209 50.281 20.421C50.2706 20.4317 50.2604 20.4425 50.2499 20.4532C50.2394 20.4638 50.2289 20.4744 50.2184 20.4849C50.2079 20.4955 50.1973 20.5061 50.1867 20.5166C50.1867 20.5167 50.1867 20.5168 50.1867 20.5169C50.1762 20.5274 50.1657 20.5381 50.155 20.5486C50.1443 20.5591 50.1335 20.5698 50.1228 20.5803C50.1122 20.5906 50.1015 20.6008 50.0908 20.6111C50.0908 20.6112 50.0908 20.6113 50.0908 20.6114C50.0801 20.6218 50.0691 20.6322 50.0583 20.6425C50.0476 20.6528 50.0369 20.6632 50.026 20.6734V20.6729C50.0152 20.6832 50.0042 20.6936 49.9932 20.7038C49.9928 20.7039 49.9923 20.7041 49.9918 20.7043C49.9808 20.7145 49.9698 20.7247 49.9587 20.7349C49.9479 20.7448 49.9373 20.7548 49.9265 20.7646C49.9265 20.7648 49.9265 20.765 49.9265 20.7652C49.9155 20.7752 49.9043 20.7852 49.8931 20.7952C49.8821 20.805 49.8711 20.8149 49.8601 20.8247C49.8601 20.8249 49.8601 20.8251 49.8601 20.8253C49.8489 20.8353 49.8377 20.8454 49.8264 20.8554V20.8547C49.8151 20.8646 49.8041 20.8747 49.7928 20.8845V20.8843C49.7815 20.8941 49.77 20.904 49.7586 20.9138C49.7586 20.9139 49.7586 20.9141 49.7586 20.9143C49.7473 20.924 49.7358 20.9337 49.7244 20.9435C49.7133 20.953 49.7023 20.9624 49.6911 20.9719C49.6906 20.972 49.6901 20.9722 49.6897 20.9724C49.6782 20.982 49.6667 20.9917 49.6552 21.0013C49.6438 21.0108 49.6322 21.0203 49.6207 21.0297C49.6093 21.0391 49.5978 21.0485 49.5863 21.0578C49.5863 21.0579 49.5863 21.058 49.5863 21.0581C49.5747 21.0675 49.563 21.0771 49.5513 21.0865C49.5396 21.0959 49.5277 21.1053 49.516 21.1146C49.5043 21.1239 49.4925 21.1332 49.4807 21.1424C49.469 21.1516 49.4575 21.1609 49.4457 21.17V21.1697C49.4339 21.1789 49.4221 21.1882 49.4102 21.1973C49.4102 21.1975 49.4102 21.1976 49.4102 21.1978C49.3983 21.207 49.3863 21.216 49.3743 21.2251C49.3625 21.2341 49.3507 21.2429 49.3388 21.2518C49.3269 21.2607 49.3149 21.2697 49.3029 21.2786C49.3029 21.2787 49.3029 21.2787 49.3029 21.2788C49.2909 21.2878 49.2789 21.2967 49.2668 21.3056C49.2548 21.3143 49.2427 21.323 49.2307 21.3317C49.2186 21.3405 49.2062 21.3495 49.194 21.3582C49.1819 21.3669 49.1698 21.3755 49.1577 21.3841C49.1454 21.3928 49.133 21.4012 49.1207 21.4098C49.1207 21.4098 49.1207 21.4099 49.1207 21.41C49.1084 21.4186 49.0961 21.4271 49.0838 21.4356C49.0715 21.4442 49.0589 21.4526 49.0466 21.461C49.0343 21.4694 49.022 21.4778 49.0096 21.4861C48.9972 21.4945 48.9846 21.5029 48.9721 21.5112C48.9597 21.5195 48.9472 21.5278 48.9346 21.536C48.9346 21.5361 48.9346 21.5362 48.9346 21.5362C48.9221 21.5445 48.9097 21.5526 48.8972 21.5608C48.8847 21.5689 48.8722 21.577 48.8597 21.585C48.8471 21.5931 48.8343 21.6013 48.8216 21.6093C48.8091 21.6172 48.7964 21.6251 48.7839 21.633C48.7839 21.6331 48.7839 21.6332 48.7839 21.6332C48.7712 21.6412 48.7586 21.6491 48.7458 21.6569C48.7331 21.6649 48.7203 21.6728 48.7075 21.6807C48.6948 21.6884 48.6822 21.6961 48.6695 21.7038C48.6568 21.7115 48.6439 21.7191 48.6311 21.7267C48.6311 21.7268 48.6311 21.7269 48.6311 21.7269C48.6183 21.7346 48.6052 21.7422 48.5923 21.7498C48.5794 21.7574 48.5665 21.765 48.5537 21.7724C48.5407 21.78 48.5278 21.7876 48.5148 21.795C48.502 21.8024 48.4889 21.8098 48.476 21.8171C48.463 21.8244 48.4498 21.8316 48.4368 21.8389C48.4368 21.8389 48.4368 21.839 48.4368 21.8391C48.4237 21.8464 48.4105 21.8537 48.3974 21.8609C48.3844 21.868 48.3715 21.8751 48.3585 21.8821C48.358 21.8823 48.3576 21.8824 48.3571 21.8826C48.344 21.8898 48.3306 21.897 48.3174 21.9041C48.3044 21.911 48.2915 21.9179 48.2786 21.9248C48.2653 21.9318 48.2519 21.9388 48.2386 21.9457C48.2253 21.9526 48.2124 21.9596 48.1992 21.9664C48.1859 21.9733 48.1726 21.98 48.1592 21.9868C48.1459 21.9935 48.1326 22.0003 48.1192 22.0069C48.1192 22.007 48.1192 22.0071 48.1192 22.0072C48.1058 22.0139 48.0924 22.0204 48.079 22.027C48.0656 22.0336 48.0524 22.0401 48.039 22.0466C48.039 22.0467 48.039 22.0468 48.039 22.0469C48.0255 22.0534 48.012 22.0599 47.9985 22.0664C47.9851 22.0729 47.9717 22.0794 47.9582 22.0857C47.9447 22.0921 47.9313 22.0984 47.9177 22.1047C47.9042 22.111 47.8907 22.1173 47.8772 22.1235C47.8635 22.1297 47.8498 22.1361 47.8361 22.1422C47.8224 22.1484 47.8087 22.1546 47.795 22.1607C47.7813 22.1668 47.7677 22.1729 47.754 22.1789C47.7403 22.1849 47.7266 22.1909 47.7129 22.1968C47.6992 22.2027 47.6856 22.2086 47.6718 22.2145C47.658 22.2203 47.6443 22.2263 47.6305 22.2321C47.6166 22.2379 47.603 22.2435 47.5891 22.2492C47.5753 22.2549 47.5614 22.2606 47.5475 22.2663C47.5337 22.2719 47.5198 22.2775 47.5059 22.2831C47.4919 22.2887 47.4782 22.2941 47.4643 22.2996C47.4504 22.3051 47.4365 22.3105 47.4226 22.3159C47.4087 22.3213 47.3945 22.3266 47.3804 22.3319C47.3804 22.332 47.3804 22.3321 47.3804 22.3321C47.3665 22.3375 47.3523 22.3426 47.3383 22.3478C47.3243 22.3531 47.3104 22.3582 47.2964 22.3633C47.2964 22.3634 47.2964 22.3635 47.2964 22.3635C47.2823 22.3687 47.2683 22.3739 47.2542 22.379C47.2402 22.384 47.2261 22.3889 47.212 22.3939C47.1979 22.3989 47.1837 22.4038 47.1696 22.4087C47.1554 22.4136 47.1411 22.4185 47.1269 22.4234C47.1127 22.4282 47.0986 22.4332 47.0844 22.438C47.0702 22.4427 47.0559 22.4473 47.0417 22.452C47.0275 22.4567 47.0134 22.4612 46.9992 22.4658C46.9992 22.4659 46.9992 22.466 46.9992 22.4661C46.985 22.4707 46.9705 22.475 46.9562 22.4796C46.9419 22.4841 46.9278 22.4886 46.9135 22.4931C46.8992 22.4975 46.885 22.502 46.8708 22.5063C46.8564 22.5107 46.8421 22.515 46.8278 22.5193C46.8134 22.5235 46.7991 22.5278 46.7848 22.5319C46.7703 22.5361 46.7559 22.5405 46.7415 22.5446V22.5444C46.7271 22.5485 46.7126 22.5525 46.6982 22.5565C46.6982 22.5566 46.6982 22.5567 46.6982 22.5567C46.6838 22.5608 46.6694 22.5649 46.6549 22.5689C46.6405 22.5728 46.6261 22.5766 46.6117 22.5804C46.5973 22.5843 46.5828 22.5882 46.5684 22.592C46.5539 22.5958 46.5393 22.5996 46.5248 22.6033C46.5106 22.6069 46.4963 22.6105 46.4821 22.6141C46.4816 22.6141 46.4812 22.6142 46.4807 22.6143C46.4661 22.618 46.4517 22.6215 46.4371 22.6251C46.4227 22.6286 46.4083 22.6321 46.3938 22.6355C46.3793 22.639 46.3648 22.6424 46.3503 22.6457C46.3498 22.6458 46.3494 22.6459 46.3489 22.646C46.3343 22.6494 46.3197 22.6526 46.305 22.6559H46.3065C46.2918 22.6592 46.277 22.6624 46.2623 22.6656C46.2477 22.6688 46.2332 22.6721 46.2185 22.6752C46.2038 22.6784 46.1891 22.6815 46.1744 22.6846C46.1599 22.6876 46.1453 22.6908 46.1309 22.6937C46.1162 22.6967 46.1015 22.6996 46.0867 22.7025C46.072 22.7054 46.0574 22.7082 46.0426 22.711C46.0282 22.7138 46.0138 22.7167 45.9994 22.7193C45.9846 22.722 45.9697 22.7246 45.955 22.7273C45.9402 22.73 45.9254 22.7327 45.9106 22.7353C45.896 22.7378 45.8814 22.7403 45.8668 22.7427C45.852 22.7452 45.8374 22.7478 45.8227 22.7502C45.8079 22.7526 45.7933 22.7548 45.7786 22.7571C45.7638 22.7594 45.749 22.7617 45.7342 22.764C45.7194 22.7662 45.7048 22.7685 45.6901 22.7706C45.6753 22.7727 45.6606 22.7749 45.6457 22.7769C45.6309 22.779 45.6159 22.781 45.6011 22.783C45.5862 22.785 45.5715 22.7869 45.5567 22.7888C45.5418 22.7907 45.5269 22.7925 45.512 22.7943C45.4973 22.7961 45.4824 22.7981 45.4676 22.7998C45.4527 22.8015 45.4379 22.8031 45.423 22.8048C45.4081 22.8064 45.3932 22.8082 45.3783 22.8098C45.3634 22.8113 45.3486 22.8127 45.3337 22.8142C45.3189 22.8156 45.3043 22.8172 45.2896 22.8186C45.2891 22.8186 45.2886 22.8186 45.2882 22.8186C45.2732 22.82 45.2584 22.8214 45.2435 22.8227C45.2286 22.824 45.2135 22.825 45.1986 22.8263C45.1838 22.8275 45.169 22.8287 45.1542 22.8299C45.1392 22.831 45.1242 22.8321 45.1092 22.8332C45.0944 22.8342 45.0795 22.8352 45.0646 22.8362C45.0496 22.8372 45.0346 22.8384 45.0197 22.8392C45.0047 22.8401 44.9897 22.8409 44.9747 22.8417C44.9599 22.8426 44.945 22.8432 44.9301 22.8439C44.9151 22.8447 44.9001 22.8455 44.8851 22.8461C44.8702 22.8469 44.8554 22.8473 44.8405 22.8478C44.8255 22.8484 44.8105 22.8489 44.7955 22.8494C44.7806 22.8498 44.7656 22.8504 44.7506 22.8508C44.7361 22.8511 44.7216 22.8515 44.707 22.8517C44.7066 22.8517 44.7061 22.8517 44.7056 22.8517C44.6906 22.852 44.6757 22.8522 44.6607 22.8526C44.6458 22.8528 44.6309 22.853 44.616 22.8531C44.6011 22.8532 44.5861 22.8534 44.5711 22.8534C44.5561 22.8534 44.5409 22.8534 44.5259 22.8534C44.5109 22.8533 44.496 22.8534 44.481 22.8534C44.4665 22.8533 44.4519 22.8532 44.4374 22.8531H44.436C44.4215 22.8528 44.407 22.8526 44.3925 22.8522C44.392 22.8522 44.3915 22.8522 44.391 22.8522C44.3761 22.852 44.3611 22.8515 44.3461 22.8511C44.3312 22.8507 44.3164 22.8503 44.3015 22.85C44.2866 22.8496 44.2717 22.8488 44.2568 22.8483C44.2418 22.8477 44.2269 22.8473 44.2119 22.8467C44.1969 22.846 44.1822 22.8454 44.1672 22.8447C44.1523 22.844 44.1374 22.8433 44.1226 22.8425C44.1077 22.8417 44.0931 22.8409 44.0782 22.84C44.0632 22.8392 44.0485 22.8382 44.0335 22.8373C44.0185 22.8363 44.0036 22.8353 43.9886 22.8343C43.9738 22.8333 43.959 22.8323 43.9442 22.8312C43.9294 22.8301 43.9146 22.8288 43.8998 22.8276C43.8849 22.8264 43.8698 22.8251 43.8549 22.8238C43.8401 22.8225 43.8255 22.8213 43.8108 22.8199C43.796 22.8185 43.7811 22.8172 43.7664 22.8158C43.7664 22.8157 43.7664 22.8156 43.7664 22.8155C43.7514 22.8141 43.7367 22.8127 43.7217 22.8111C43.707 22.8096 43.6923 22.808 43.6776 22.8065C43.6629 22.8048 43.6482 22.8032 43.6335 22.8015C43.6187 22.7998 43.6037 22.798 43.5889 22.7963C43.574 22.7945 43.5594 22.7926 43.5445 22.7907C43.5297 22.7889 43.5149 22.7869 43.5001 22.7849C43.4853 22.783 43.4707 22.7809 43.456 22.7789C43.4411 22.7769 43.4262 22.7749 43.4113 22.7728C43.3966 22.7707 43.3817 22.7684 43.367 22.7662C43.3522 22.764 43.3376 22.7619 43.3229 22.7596C43.3229 22.7595 43.3229 22.7594 43.3229 22.7593C43.3082 22.7571 43.2935 22.7548 43.2788 22.7524C43.2641 22.7501 43.2493 22.7477 43.2346 22.7453C43.2199 22.7428 43.205 22.7404 43.1903 22.7378C43.1757 22.7353 43.161 22.7327 43.1464 22.7301C43.1318 22.7275 43.1172 22.7248 43.1026 22.7221C43.088 22.7194 43.0734 22.7166 43.0588 22.7139C43.0441 22.7111 43.0296 22.7082 43.015 22.7053C43.0002 22.7024 42.9856 22.6994 42.9709 22.6965C42.9562 22.6936 42.9416 22.6907 42.927 22.6877C42.9124 22.6847 42.8978 22.6814 42.8832 22.6783C42.8686 22.6752 42.8542 22.6721 42.8396 22.6689C42.8251 22.6657 42.8106 22.6626 42.7961 22.6593C42.7814 22.656 42.7668 22.6524 42.7522 22.6491V22.6493C42.7376 22.646 42.7233 22.6426 42.7087 22.6391C42.7087 22.639 42.7087 22.639 42.7087 22.6389C42.6943 22.6355 42.6798 22.6321 42.6654 22.6287V22.6284C42.651 22.6249 42.6365 22.6215 42.6221 22.618C42.6076 22.6143 42.5931 22.6106 42.5786 22.6069C42.5641 22.6032 42.5498 22.5994 42.5353 22.5956C42.5208 22.5919 42.5065 22.5882 42.492 22.5843C42.492 22.5842 42.492 22.5842 42.492 22.5841C42.4777 22.5803 42.4633 22.5766 42.449 22.5728V22.5725C42.4347 22.5686 42.4203 22.5646 42.406 22.5607V22.5609C42.3916 22.5569 42.3771 22.5526 42.3627 22.5485C42.3485 22.5445 42.3342 22.5402 42.32 22.5361C42.3058 22.532 42.2915 22.5276 42.2773 22.5234C42.2629 22.5192 42.2486 22.5148 42.2343 22.5105C42.2201 22.5062 42.2061 22.5021 42.1921 22.4978L42.1907 22.4975C42.1766 22.4932 42.1625 22.4887 42.1485 22.4843C42.148 22.4842 42.1476 22.4841 42.1471 22.4841C42.1331 22.4797 42.1192 22.475 42.1052 22.4705L42.1038 22.4703C42.0898 22.4658 42.0758 22.4614 42.0619 22.4568C42.0614 22.4567 42.0609 22.4566 42.0605 22.4565C42.0464 22.452 42.0323 22.4474 42.0183 22.4427V22.4425C42.0043 22.4378 41.9904 22.4332 41.9764 22.4284C41.9622 22.4236 41.9481 22.4187 41.9339 22.4138C41.9339 22.4137 41.9339 22.4137 41.9339 22.4136C41.9198 22.4087 41.9056 22.4039 41.8915 22.399C41.8775 22.394 41.8636 22.3891 41.8496 22.3841V22.3838C41.8356 22.3788 41.8214 22.3738 41.8074 22.3687C41.8074 22.3686 41.8074 22.3685 41.8074 22.3684C41.7942 22.3636 41.7808 22.3587 41.7675 22.3538L41.7652 22.3529L41.7629 22.3521C41.674 22.3185 41.5756 22.32 41.4878 22.3565C41.4284 22.3812 41.3764 22.4208 41.3368 22.4716C41.2972 22.5223 41.2714 22.5824 41.2619 22.6461C41.2524 22.7097 41.2595 22.7747 41.2825 22.8348C41.3055 22.8949 41.3437 22.9481 41.3933 22.9891C41.4098 23.0027 41.4274 23.0149 41.4459 23.0255C41.8091 23.3212 42.1923 23.592 42.5982 23.8264C46.7856 26.244 52.1509 24.8063 54.5685 20.6188C56.9861 16.4314 55.5487 11.0661 51.3613 8.64844C51.3613 8.64835 51.3613 8.64826 51.3613 8.64816C50.9368 8.40373 50.4925 8.19483 50.0331 8.02409C49.9908 8.00844 49.946 8.0006 49.9008 8.00094L49.8746 8ZM51.665 9.75179C54.9518 12.1324 55.9699 16.6522 53.8956 20.2449C51.8214 23.8376 47.3983 25.2159 43.6933 23.56C43.7041 23.561 43.715 23.562 43.7258 23.563C43.742 23.5645 43.7584 23.566 43.7746 23.5674C43.7908 23.5688 43.8071 23.5699 43.8234 23.5712C43.8397 23.5725 43.8561 23.5739 43.8725 23.5751C43.8886 23.5762 43.9048 23.5776 43.921 23.5787C43.9373 23.5798 43.9537 23.581 43.97 23.582C43.9863 23.583 44.0026 23.5841 44.0188 23.585C44.0352 23.586 44.0515 23.5869 44.0679 23.5878C44.0843 23.5887 44.1006 23.5892 44.117 23.59C44.117 23.5901 44.117 23.5901 44.117 23.5902C44.1332 23.591 44.1495 23.5915 44.1658 23.5922C44.1821 23.5929 44.1984 23.5936 44.2148 23.5941C44.2312 23.5947 44.2475 23.5952 44.2639 23.5958C44.2803 23.5961 44.2966 23.5968 44.3129 23.5972C44.329 23.5975 44.3452 23.5977 44.3612 23.598C44.3776 23.5983 44.3942 23.5989 44.4105 23.5992C44.411 23.5992 44.4115 23.5992 44.4119 23.5992C44.4283 23.5993 44.4446 23.5993 44.461 23.5994C44.4773 23.5995 44.4935 23.5997 44.5098 23.5997C44.5262 23.5997 44.5425 23.5997 44.5589 23.5997C44.5751 23.5996 44.5914 23.5993 44.6077 23.5992C44.6241 23.599 44.6406 23.5989 44.657 23.5985C44.673 23.5983 44.6892 23.598 44.7052 23.5977C44.7216 23.5974 44.7379 23.5969 44.7543 23.5965C44.7548 23.5965 44.7553 23.5965 44.7557 23.5965C44.7721 23.5962 44.7884 23.5957 44.8048 23.5951C44.8211 23.5946 44.8373 23.5941 44.8536 23.5935C44.87 23.5928 44.8863 23.5922 44.9027 23.5915C44.9189 23.5908 44.9352 23.5898 44.9514 23.589C44.9678 23.5882 44.9841 23.5874 45.0005 23.5866C45.0168 23.5857 45.0331 23.5848 45.0493 23.5838C45.0657 23.5828 45.082 23.5818 45.0984 23.5808C45.1147 23.5796 45.1311 23.5786 45.1474 23.5775C45.1637 23.5763 45.18 23.5751 45.1962 23.5739C45.2126 23.5726 45.2289 23.5714 45.2453 23.57C45.2616 23.5686 45.2778 23.5671 45.2941 23.5656C45.3101 23.5642 45.3263 23.5627 45.3423 23.5612C45.3587 23.5597 45.3751 23.5584 45.3914 23.5568C45.3914 23.5567 45.3914 23.5566 45.3914 23.5566C45.4077 23.5549 45.4242 23.5533 45.4405 23.5516C45.4568 23.5499 45.473 23.5482 45.4892 23.5464C45.5054 23.5446 45.5218 23.5427 45.538 23.5408C45.5543 23.5389 45.5706 23.537 45.5868 23.5351C45.6031 23.5331 45.6196 23.5308 45.6359 23.5287V23.529C45.6521 23.5269 45.6682 23.5248 45.6844 23.5226C45.6844 23.5225 45.6844 23.5225 45.6844 23.5224C45.7007 23.5202 45.7167 23.518 45.7329 23.5158C45.7492 23.5135 45.7655 23.5112 45.7817 23.5089C45.798 23.5065 45.814 23.5041 45.8302 23.5017C45.8463 23.4993 45.8625 23.4968 45.8785 23.4943C45.8947 23.4917 45.9111 23.4892 45.9273 23.4865C45.9433 23.4839 45.9592 23.4812 45.9752 23.4785C45.9914 23.4758 46.0076 23.4731 46.0238 23.4703C46.0399 23.4675 46.0561 23.4646 46.0723 23.4617C46.0882 23.4589 46.104 23.4559 46.12 23.4529C46.1361 23.4499 46.1524 23.4469 46.1685 23.4438C46.1844 23.4407 46.2005 23.4376 46.2164 23.4344C46.2325 23.4313 46.2486 23.428 46.2647 23.4248C46.2807 23.4215 46.2966 23.4182 46.3126 23.4149C46.3286 23.4115 46.3444 23.4081 46.3603 23.4047C46.3764 23.4012 46.3923 23.3977 46.4083 23.3942V23.3944C46.4243 23.3909 46.4403 23.3873 46.4562 23.3837C46.4567 23.3836 46.4572 23.3835 46.4577 23.3834C46.4734 23.3799 46.4889 23.3764 46.5045 23.3727L46.5059 23.3724C46.5216 23.3688 46.5374 23.3651 46.5531 23.3614C46.569 23.3576 46.5849 23.3537 46.6008 23.3498C46.6164 23.346 46.6323 23.3422 46.6479 23.3383L46.6493 23.338C46.6649 23.3341 46.6806 23.3301 46.6962 23.3262C46.6962 23.3261 46.6962 23.326 46.6962 23.3259C46.7119 23.3219 46.7276 23.3179 46.7433 23.3138V23.3135C46.759 23.3094 46.7748 23.3053 46.7904 23.3011C46.8063 23.2969 46.822 23.2925 46.8378 23.2882C46.8535 23.2839 46.8691 23.2796 46.8847 23.2752C46.9005 23.2708 46.9164 23.2665 46.9321 23.262C46.9321 23.2619 46.9321 23.2618 46.9321 23.2617C46.9479 23.2572 46.9638 23.2528 46.9795 23.2482C46.9952 23.2436 47.0107 23.2388 47.0264 23.2342C47.0421 23.2295 47.0579 23.2249 47.0735 23.2201C47.0892 23.2153 47.1047 23.2106 47.1204 23.2058C47.1204 23.2057 47.1204 23.2056 47.1204 23.2055C47.1359 23.2007 47.1515 23.1959 47.167 23.1909C47.1826 23.186 47.1982 23.1808 47.2138 23.1758V23.176C47.2294 23.171 47.2448 23.166 47.2604 23.1608C47.2604 23.1608 47.2604 23.1607 47.2604 23.1606C47.276 23.1555 47.2915 23.1504 47.307 23.1452C47.3224 23.14 47.3377 23.135 47.353 23.1297V23.1295C47.3684 23.1243 47.3838 23.1191 47.3991 23.1138C47.3991 23.1137 47.3991 23.1136 47.3991 23.1135C47.4145 23.1081 47.43 23.1027 47.4454 23.0972C47.4608 23.0918 47.4763 23.0863 47.4917 23.0807C47.507 23.0752 47.5224 23.0695 47.5377 23.0639C47.5531 23.0583 47.5684 23.0525 47.5838 23.0468C47.5989 23.0411 47.6141 23.0355 47.6292 23.0297V23.0295C47.6444 23.0237 47.6596 23.0179 47.6747 23.0121C47.69 23.0062 47.7052 23.0001 47.7205 22.9942C47.7357 22.9882 47.751 22.9821 47.7662 22.976C47.7814 22.9699 47.7965 22.9639 47.8117 22.9578C47.8269 22.9516 47.842 22.9453 47.8572 22.939C47.8723 22.9328 47.8876 22.9266 47.9027 22.9203C47.9178 22.914 47.9328 22.9077 47.9479 22.9013C47.963 22.8949 47.978 22.8882 47.9931 22.8817C48.0079 22.8753 48.0227 22.8687 48.0375 22.8621V22.8619C48.0522 22.8554 48.0671 22.8489 48.0818 22.8423C48.0968 22.8357 48.1119 22.8289 48.1268 22.8222C48.1417 22.8154 48.1566 22.8086 48.1714 22.8018C48.1863 22.795 48.201 22.7883 48.2158 22.7814C48.2158 22.7813 48.2158 22.7812 48.2158 22.7811C48.2306 22.7743 48.2455 22.7674 48.2602 22.7605V22.7602C48.2749 22.7533 48.2896 22.7463 48.3043 22.7393C48.3189 22.7323 48.3336 22.7251 48.3481 22.718V22.7178C48.3627 22.7107 48.3772 22.7034 48.3917 22.6963C48.4063 22.6891 48.4207 22.6818 48.4352 22.6745V22.6743C48.4498 22.667 48.4643 22.6598 48.4788 22.6525C48.4788 22.6524 48.4788 22.6523 48.4788 22.6522C48.4933 22.6449 48.5079 22.6376 48.5223 22.6302V22.6299C48.5368 22.6225 48.5515 22.6151 48.5659 22.6076C48.5659 22.6075 48.5659 22.6074 48.5659 22.6074C48.5803 22.5998 48.5948 22.5924 48.6092 22.5848V22.5845C48.6235 22.5769 48.6378 22.5693 48.6522 22.5616C48.6526 22.5615 48.6531 22.5615 48.6536 22.5614C48.6678 22.5537 48.6818 22.546 48.696 22.5382V22.538C48.7102 22.5302 48.7243 22.5226 48.7385 22.5148C48.7385 22.5147 48.7385 22.5146 48.7385 22.5146C48.7526 22.5068 48.7668 22.4987 48.7809 22.4909V22.4906C48.7951 22.4827 48.8093 22.4748 48.8234 22.4669C48.8376 22.4588 48.8519 22.4508 48.8661 22.4426C48.8661 22.4426 48.8661 22.4425 48.8661 22.4424C48.8802 22.4343 48.8945 22.4263 48.9086 22.4181V22.4179C48.9227 22.4097 48.9367 22.4016 48.9507 22.3933C48.9507 22.3933 48.9507 22.3932 48.9507 22.3931C48.9649 22.3848 48.9788 22.3764 48.9929 22.368C49.0067 22.3598 49.0207 22.3515 49.0345 22.3432C49.0487 22.3347 49.0627 22.3261 49.0767 22.3176C49.0767 22.3175 49.0767 22.3174 49.0767 22.3173C49.0907 22.3088 49.1045 22.3003 49.1184 22.2917C49.1323 22.2831 49.1464 22.2745 49.1602 22.2658C49.1741 22.2572 49.1879 22.2485 49.2016 22.2398C49.2016 22.2398 49.2016 22.2397 49.2016 22.2396C49.2153 22.2309 49.229 22.2222 49.2427 22.2134V22.2132C49.2564 22.2044 49.2701 22.1955 49.2838 22.1867C49.2838 22.1866 49.2838 22.1865 49.2838 22.1864C49.2974 22.1775 49.3109 22.1687 49.3246 22.1597C49.3381 22.1508 49.3518 22.1417 49.3654 22.1327C49.3791 22.1236 49.3928 22.1146 49.4064 22.1054C49.42 22.0962 49.4334 22.0871 49.4469 22.0778C49.4469 22.0778 49.4469 22.0777 49.4469 22.0776C49.4605 22.0684 49.474 22.0591 49.4875 22.0497V22.05C49.5009 22.0407 49.5143 22.0312 49.5277 22.0219C49.5411 22.0126 49.5544 22.0032 49.5677 21.9938C49.5811 21.9843 49.5946 21.9749 49.6079 21.9654C49.6079 21.9653 49.6079 21.9652 49.6079 21.9651C49.6212 21.9556 49.6344 21.9461 49.6476 21.9365C49.6609 21.9268 49.6744 21.9172 49.6876 21.9075C49.7006 21.8979 49.7138 21.8882 49.7268 21.8786V21.8783C49.7397 21.8687 49.7526 21.8588 49.7656 21.8491C49.7787 21.8393 49.792 21.8292 49.805 21.8193C49.805 21.8192 49.805 21.8192 49.805 21.8191C49.8179 21.8093 49.8306 21.7996 49.8434 21.7899L49.8448 21.7892C49.8575 21.7795 49.8704 21.7696 49.8831 21.7597C49.8831 21.7596 49.8831 21.7596 49.8831 21.7595C49.8961 21.7494 49.9091 21.7395 49.9219 21.7294C49.9219 21.7293 49.9219 21.7293 49.9219 21.7292C49.9348 21.7191 49.9474 21.709 49.9603 21.6989C49.973 21.6887 49.9859 21.6784 49.9986 21.6683V21.668C50.0111 21.6579 50.0238 21.6476 50.0363 21.6374V21.6372C50.0489 21.6269 50.0616 21.6169 50.0741 21.6066C50.0741 21.6065 50.0741 21.6064 50.0741 21.6063C50.0868 21.5959 50.0995 21.5854 50.1121 21.5749C50.1121 21.5748 50.1121 21.5747 50.1121 21.5746C50.1246 21.5643 50.1368 21.5541 50.1491 21.5438V21.5433C50.1614 21.5329 50.1737 21.5225 50.186 21.5121C50.1865 21.5118 50.187 21.5115 50.1874 21.5112C50.1997 21.5008 50.2119 21.4903 50.2241 21.4798L50.2255 21.4793C50.2376 21.4688 50.2497 21.4581 50.2619 21.4476C50.2741 21.4369 50.2865 21.4262 50.2988 21.4154C50.2988 21.4152 50.2988 21.415 50.2988 21.4149C50.3108 21.4042 50.3229 21.3936 50.3349 21.3829L50.3363 21.3824C50.3483 21.3717 50.3602 21.3609 50.3722 21.3501C50.3726 21.35 50.3731 21.3498 50.3736 21.3496C50.3854 21.3389 50.3973 21.3281 50.4091 21.3174L50.4105 21.3165C50.4224 21.3057 50.4343 21.2948 50.4461 21.284C50.4466 21.2838 50.4471 21.2835 50.4475 21.2833C50.4595 21.2722 50.4714 21.2609 50.4834 21.2497V21.2506C50.4954 21.2394 50.5072 21.2282 50.5192 21.217C50.5192 21.2169 50.5192 21.2168 50.5192 21.2167C50.5312 21.2055 50.5432 21.1941 50.555 21.1828C50.555 21.1827 50.555 21.1826 50.555 21.1825C50.5667 21.1713 50.5783 21.1602 50.59 21.1489V21.1487C50.6018 21.1374 50.6134 21.1261 50.6251 21.1148C50.6251 21.1147 50.6251 21.1146 50.6251 21.1145C50.6368 21.1031 50.6485 21.0917 50.6601 21.0803V21.0801C50.6716 21.0687 50.683 21.0574 50.6945 21.0459C50.7061 21.0343 50.7177 21.0228 50.7293 21.0112C50.7293 21.0111 50.7293 21.011 50.7293 21.0109C50.7408 20.9993 50.7525 20.9879 50.764 20.9762C50.764 20.976 50.764 20.9758 50.764 20.9755C50.7754 20.9639 50.7866 20.9525 50.7979 20.9408V20.9406C50.8092 20.9289 50.8206 20.9173 50.8318 20.9056C50.8318 20.9055 50.8318 20.9054 50.8318 20.9053C50.8431 20.8935 50.8545 20.8816 50.8657 20.8697C50.8769 20.8579 50.8882 20.846 50.8994 20.8342V20.8339C50.9105 20.8221 50.9217 20.8103 50.9327 20.7984C50.9439 20.7864 50.955 20.7743 50.9661 20.7623C50.9661 20.7622 50.9661 20.7621 50.9661 20.762C50.9771 20.75 50.9882 20.7378 50.9992 20.7256C51.0102 20.7135 51.021 20.7015 51.032 20.6892C51.0428 20.6771 51.0539 20.6648 51.0648 20.6526C51.0648 20.6525 51.0648 20.6524 51.0648 20.6523C51.0756 20.6401 51.0865 20.6277 51.0973 20.6154L51.0959 20.6159C51.1068 20.6036 51.1177 20.5913 51.1284 20.579C51.1284 20.5788 51.1284 20.5786 51.1284 20.5784C51.1392 20.5661 51.1497 20.5537 51.1604 20.5412C51.171 20.5289 51.1813 20.5167 51.1918 20.5043V20.504C51.2023 20.4917 51.2128 20.4793 51.2232 20.4668C51.2232 20.4667 51.2232 20.4667 51.2232 20.4666C51.2338 20.454 51.2442 20.4414 51.2547 20.4288C51.2547 20.4287 51.2547 20.4286 51.2547 20.4286C51.265 20.416 51.2752 20.4034 51.2855 20.3908V20.3906C51.2958 20.378 51.3062 20.3654 51.3164 20.3528C51.3164 20.3527 51.3164 20.3526 51.3164 20.3525C51.3267 20.3398 51.3368 20.3273 51.347 20.3145C51.347 20.3144 51.347 20.3143 51.347 20.3142C51.3571 20.3015 51.3672 20.2887 51.3773 20.2759V20.2757C51.3875 20.2629 51.3976 20.2502 51.4076 20.2374V20.2376C51.4178 20.2247 51.4279 20.2117 51.438 20.1987C51.448 20.1858 51.458 20.1726 51.468 20.1596C51.468 20.1595 51.468 20.1594 51.468 20.1593C51.4779 20.1463 51.4879 20.1336 51.4978 20.1205C51.4978 20.1204 51.4978 20.1203 51.4978 20.1202C51.5075 20.1074 51.5171 20.0945 51.5267 20.0816V20.0808C51.5363 20.0679 51.5461 20.0551 51.5557 20.0422C51.5557 20.0419 51.5557 20.0416 51.5557 20.0414C51.5653 20.0283 51.5748 20.0151 51.5843 20.0019V20.0016C51.5939 19.9885 51.6035 19.9754 51.613 19.9622C51.613 19.9621 51.613 19.962 51.613 19.9619C51.6225 19.9488 51.632 19.9357 51.6414 19.9225V19.9219C51.6509 19.9088 51.6602 19.8955 51.6695 19.8822C51.6695 19.8821 51.6695 19.882 51.6695 19.8819C51.679 19.8685 51.6883 19.8552 51.6977 19.8417C51.707 19.8283 51.7163 19.8149 51.7255 19.8015V19.8012C51.7347 19.7877 51.7439 19.7741 51.7531 19.7606C51.7622 19.7472 51.7713 19.7336 51.7803 19.7201V19.7198C51.7894 19.7063 51.7984 19.6928 51.8074 19.6793C51.8074 19.6792 51.8074 19.6791 51.8074 19.679C51.8164 19.6653 51.8257 19.6516 51.8346 19.6379C51.8435 19.6243 51.8523 19.6105 51.8611 19.5968V19.5965C51.87 19.5829 51.8788 19.5692 51.8876 19.5555C51.8876 19.5554 51.8876 19.5553 51.8876 19.5552C51.8963 19.5415 51.9051 19.5278 51.9137 19.5141V19.5138C51.9225 19.5 51.931 19.4862 51.9397 19.4724C51.9397 19.4723 51.9397 19.4722 51.9397 19.4721C51.9483 19.4582 51.957 19.4445 51.9656 19.4305C51.9656 19.4304 51.9656 19.4303 51.9656 19.4302C51.974 19.4164 51.9825 19.4024 51.9909 19.3886V19.388C51.9994 19.3742 52.0077 19.3603 52.016 19.3464C52.016 19.3463 52.016 19.3462 52.016 19.3461C52.0245 19.3321 52.0327 19.318 52.0411 19.3039C52.0494 19.2899 52.0577 19.2758 52.0659 19.2618V19.2615C52.0741 19.2474 52.0823 19.2334 52.0904 19.2193C52.0904 19.2192 52.0904 19.2191 52.0904 19.219C52.0985 19.205 52.1067 19.1911 52.1147 19.1771V19.1768C52.1227 19.1626 52.1307 19.1482 52.1387 19.134C52.1467 19.1197 52.1547 19.1054 52.1627 19.091C52.1627 19.0909 52.1627 19.0908 52.1627 19.0907C52.1706 19.0765 52.1786 19.0623 52.1864 19.048V19.0477C52.1943 19.0334 52.202 19.0193 52.2098 19.005C52.2098 19.0049 52.2098 19.0048 52.2098 19.0047C52.2176 18.9903 52.2255 18.9759 52.2332 18.9614C52.2332 18.9613 52.2332 18.9612 52.2332 18.9611C52.241 18.9466 52.2485 18.9321 52.2561 18.9176V18.9181C52.2637 18.9036 52.2712 18.8891 52.2787 18.8746C52.2787 18.8745 52.2787 18.8744 52.2787 18.8743C52.2862 18.8598 52.2936 18.8452 52.301 18.8307V18.8304C52.3085 18.8159 52.3158 18.8014 52.3231 18.7869C52.3305 18.7722 52.3378 18.7577 52.3452 18.743C52.3525 18.7284 52.3597 18.7139 52.3669 18.6992C52.3669 18.6989 52.3669 18.6986 52.3669 18.6984C52.374 18.6839 52.3809 18.6695 52.3879 18.6551V18.6542C52.3949 18.6398 52.4018 18.6252 52.4088 18.6107C52.4088 18.6104 52.4088 18.6101 52.4088 18.6098C52.4159 18.5951 52.4228 18.5803 52.4298 18.5655V18.566C52.4367 18.5513 52.4436 18.5364 52.4504 18.5217V18.5213C52.4574 18.5066 52.464 18.4918 52.4708 18.477C52.4708 18.4767 52.4708 18.4764 52.4708 18.4761C52.4776 18.4613 52.484 18.4466 52.4907 18.4317V18.4314C52.4973 18.4167 52.5039 18.4019 52.5105 18.3871V18.3868C52.5172 18.3719 52.5238 18.357 52.5304 18.3421C52.5304 18.342 52.5304 18.3419 52.5304 18.3418C52.5369 18.3268 52.5435 18.3117 52.55 18.2966C52.5563 18.2816 52.5627 18.2667 52.569 18.2517V18.2514C52.5753 18.2364 52.5817 18.2212 52.588 18.2062C52.5942 18.1911 52.6005 18.176 52.6067 18.161V18.1607C52.6129 18.1456 52.6191 18.1305 52.6252 18.1154C52.6252 18.1153 52.6252 18.1152 52.6252 18.1151C52.6313 18.0999 52.6373 18.0849 52.6434 18.0697C52.6434 18.0696 52.6434 18.0695 52.6434 18.0694C52.6493 18.0542 52.6551 18.039 52.661 18.0239V18.0236C52.667 18.0085 52.6726 17.9932 52.6784 17.9781V17.9778C52.6842 17.9626 52.69 17.9475 52.6958 17.9323C52.6958 17.932 52.6958 17.9317 52.6958 17.9315C52.7016 17.9162 52.7072 17.901 52.7129 17.8857V17.8854C52.7185 17.8703 52.7242 17.8551 52.7297 17.8399V17.8396C52.7353 17.8243 52.7407 17.8089 52.7462 17.7936C52.7462 17.7935 52.7462 17.7934 52.7462 17.7933C52.7517 17.778 52.7571 17.7626 52.7625 17.7472V17.7469C52.7679 17.7316 52.7732 17.7163 52.7785 17.7009C52.7785 17.7007 52.7785 17.7005 52.7785 17.7003C52.7837 17.685 52.7889 17.6697 52.7942 17.6543V17.6537C52.7994 17.6384 52.8045 17.623 52.8096 17.6077C52.8149 17.5922 52.8199 17.5764 52.8251 17.5609C52.8251 17.5608 52.8251 17.5607 52.8251 17.5606C52.8302 17.545 52.8352 17.5296 52.8402 17.514C52.8452 17.4984 52.8502 17.483 52.8551 17.4674C52.8551 17.4672 52.8551 17.467 52.8551 17.4668C52.8601 17.4512 52.8648 17.4356 52.8697 17.42C52.8697 17.4199 52.8697 17.4198 52.8697 17.4197C52.8745 17.404 52.8793 17.3882 52.8841 17.3725V17.3736C52.8889 17.358 52.8937 17.3422 52.8984 17.3265C52.8984 17.326 52.8984 17.3256 52.8984 17.3251C52.9029 17.3097 52.9074 17.2943 52.9119 17.2788V17.2779C52.9165 17.2625 52.9208 17.2471 52.9252 17.2316C52.9252 17.2315 52.9252 17.2314 52.9252 17.2313C52.9296 17.2158 52.9341 17.2003 52.9385 17.1847V17.1842C52.9429 17.1686 52.9468 17.153 52.9512 17.1373C52.9512 17.1369 52.9512 17.1366 52.9512 17.1362C52.9554 17.1207 52.9595 17.1052 52.9636 17.0896V17.0888C52.9677 17.0732 52.9716 17.0575 52.9757 17.0419C52.9798 17.0261 52.9841 17.0101 52.9882 16.9942C52.9882 16.9941 52.9882 16.994 52.9882 16.9939C52.9923 16.978 52.9961 16.9621 53 16.9462V16.9471C53.004 16.9312 53.0076 16.9153 53.0116 16.8994C53.0116 16.899 53.0116 16.8986 53.0116 16.8983C53.0154 16.8826 53.0192 16.8668 53.0229 16.8511V16.8503C53.0265 16.8346 53.0304 16.8188 53.0339 16.8031C53.0376 16.7872 53.0411 16.7712 53.0446 16.7552C53.0446 16.7551 53.0446 16.755 53.0446 16.7549C53.0481 16.7389 53.0518 16.7229 53.0553 16.7069C53.0553 16.7068 53.0553 16.7067 53.0553 16.7066C53.0589 16.6906 53.0621 16.6747 53.0655 16.6586C53.0689 16.6426 53.0722 16.6264 53.0754 16.6104C53.0754 16.6103 53.0754 16.6102 53.0754 16.6101C53.0786 16.594 53.0819 16.5779 53.085 16.5619V16.563C53.0882 16.5469 53.0915 16.5308 53.0946 16.5147C53.0946 16.5146 53.0946 16.5145 53.0946 16.5144C53.0977 16.4984 53.1007 16.4823 53.1036 16.4662C53.1036 16.4661 53.1036 16.466 53.1036 16.4659C53.1067 16.4498 53.1097 16.4338 53.1127 16.4177C53.1127 16.4176 53.1127 16.4175 53.1127 16.4174C53.1156 16.4012 53.1186 16.3853 53.1216 16.3691C53.1216 16.369 53.1216 16.3689 53.1216 16.3688C53.1244 16.3527 53.1271 16.3365 53.1299 16.3203V16.3214C53.1327 16.3053 53.1354 16.2891 53.1382 16.2729C53.1409 16.2568 53.1436 16.2406 53.1462 16.2244C53.1462 16.2243 53.1462 16.2242 53.1462 16.2241C53.1488 16.2079 53.1515 16.1918 53.154 16.1756C53.154 16.1755 53.154 16.1754 53.154 16.1753C53.1565 16.1591 53.1588 16.143 53.1612 16.1268C53.1612 16.1267 53.1612 16.1266 53.1612 16.1265C53.1636 16.1103 53.1657 16.0939 53.1681 16.0777C53.1704 16.0615 53.1728 16.0454 53.175 16.0292V16.03C53.1773 16.0138 53.1795 15.9975 53.1817 15.9812C53.1838 15.965 53.1859 15.9487 53.188 15.9324C53.188 15.9323 53.188 15.9322 53.188 15.9321C53.1901 15.9159 53.1921 15.8996 53.1941 15.8833C53.1941 15.883 53.1941 15.8826 53.1941 15.8822C53.1959 15.8662 53.1977 15.8502 53.1996 15.8342V15.8334C53.2014 15.8174 53.2034 15.8012 53.2051 15.7852C53.2069 15.7689 53.2086 15.7527 53.2103 15.7364V15.7372C53.212 15.7209 53.2137 15.7047 53.2153 15.6884C53.2153 15.688 53.2153 15.6875 53.2153 15.687C53.2168 15.6707 53.2182 15.6543 53.2196 15.6379C53.221 15.622 53.2225 15.6059 53.2237 15.59V15.5888C53.2251 15.5729 53.2266 15.5569 53.2278 15.5409C53.2292 15.5246 53.2305 15.5082 53.2316 15.4918C53.2316 15.4917 53.2316 15.4916 53.2316 15.4915C53.2331 15.4752 53.234 15.4588 53.2352 15.4425C53.2366 15.4261 53.2371 15.4097 53.2383 15.3934C53.2383 15.3933 53.2383 15.3932 53.2383 15.3931C53.2397 15.3767 53.2404 15.3604 53.2414 15.344C53.2428 15.3277 53.2433 15.3113 53.2441 15.295C53.2441 15.2948 53.2441 15.2947 53.2441 15.2946C53.2455 15.2786 53.2456 15.2627 53.2463 15.2467V15.2456C53.2477 15.2295 53.2479 15.2133 53.2486 15.1973C53.2486 15.181 53.25 15.1646 53.2505 15.1482C53.2505 15.1481 53.2505 15.148 53.2505 15.1479C53.2505 15.1318 53.2519 15.1158 53.2522 15.0997V15.0989C53.2522 15.0835 53.2537 15.0682 53.2537 15.0528V15.0506C53.2537 15.0357 53.2551 15.0206 53.2551 15.0057V15.0035C53.2551 14.9879 53.2565 14.9723 53.2568 14.9566C53.2568 14.9536 53.2568 14.9506 53.2568 14.9475C53.2568 14.9319 53.2568 14.916 53.2568 14.9004C53.2568 14.8847 53.2568 14.869 53.2568 14.8533C53.2568 14.8376 53.2568 14.8218 53.2568 14.8061V14.8039C53.2568 14.789 53.2568 14.7742 53.2568 14.7593C53.2568 14.7429 53.2568 14.7266 53.2568 14.7102C53.2568 14.7072 53.2568 14.7041 53.2568 14.7011C53.2568 14.6854 53.2553 14.6696 53.2553 14.654V14.6518C53.2553 14.6368 53.2539 14.6218 53.2539 14.6068V14.6046C53.2539 14.589 53.2525 14.5734 53.2525 14.5578C53.2525 14.5577 53.2525 14.5576 53.2525 14.5575C53.2525 14.5411 53.2511 14.5248 53.2506 14.5084V14.5095C53.2506 14.4931 53.2492 14.4766 53.2486 14.4602C53.2486 14.4438 53.2472 14.4275 53.2463 14.4111C53.2463 14.411 53.2463 14.4109 53.2463 14.4108C53.2449 14.3944 53.2445 14.3781 53.2435 14.3617C53.2435 14.3616 53.2435 14.3615 53.2435 14.3614C53.2421 14.3451 53.2417 14.3287 53.2407 14.3124C53.2393 14.296 53.2387 14.2797 53.2377 14.2633C53.2377 14.2632 53.2377 14.2631 53.2377 14.263C53.2363 14.2467 53.2356 14.2303 53.2345 14.2139C53.2331 14.1976 53.2319 14.1812 53.2307 14.1649V14.166C53.2293 14.1497 53.2281 14.1333 53.2268 14.1169C53.2268 14.1168 53.2268 14.1167 53.2268 14.1166C53.2254 14.1003 53.2242 14.0839 53.2228 14.0676C53.2213 14.0513 53.2199 14.0348 53.2184 14.0185C53.2168 14.0022 53.2153 13.9858 53.2137 13.9694C53.212 13.9531 53.2105 13.9367 53.2088 13.9204C53.2071 13.9041 53.2054 13.8876 53.2036 13.8713C53.2017 13.855 53.1997 13.8388 53.1978 13.8225V13.8234C53.1959 13.8071 53.194 13.7908 53.192 13.7746C53.192 13.7742 53.192 13.7738 53.192 13.7734C53.19 13.7574 53.188 13.7415 53.1859 13.7255V13.7246C53.1839 13.7087 53.1817 13.6926 53.1796 13.6767C53.1796 13.6766 53.1796 13.6765 53.1796 13.6764C53.1774 13.6601 53.1752 13.6441 53.1729 13.6279C53.1729 13.6278 53.1729 13.6277 53.1729 13.6276C53.1707 13.6113 53.1684 13.5953 53.166 13.579C53.166 13.5789 53.166 13.5788 53.166 13.5787C53.1636 13.5625 53.1614 13.5464 53.1588 13.5302C53.1588 13.5301 53.1588 13.53 53.1588 13.5299C53.1564 13.514 53.1539 13.4981 53.1513 13.4822V13.4814C53.1489 13.4655 53.1464 13.4496 53.1438 13.4337C53.1438 13.4336 53.1438 13.4335 53.1438 13.4334C53.1413 13.4172 53.1386 13.401 53.1358 13.3849C53.1331 13.3687 53.1303 13.3525 53.1275 13.3364C53.1275 13.3363 53.1275 13.3362 53.1275 13.3361C53.1246 13.3199 53.1218 13.304 53.1189 13.2878C53.1189 13.2877 53.1189 13.2876 53.1189 13.2875C53.116 13.2717 53.1129 13.256 53.11 13.2401V13.2393C53.107 13.2234 53.1042 13.2077 53.1011 13.1919C53.1011 13.1918 53.1011 13.1917 53.1011 13.1916C53.098 13.1755 53.0949 13.1594 53.0918 13.1433C53.0918 13.1432 53.0918 13.1431 53.0918 13.143C53.0887 13.1269 53.0854 13.1108 53.0822 13.0948C53.0789 13.0787 53.0755 13.0626 53.0723 13.0465C53.0723 13.0464 53.0723 13.0463 53.0723 13.0462C53.0689 13.0302 53.0655 13.0143 53.0621 12.9983C53.0621 12.9982 53.0621 12.9981 53.0621 12.998C53.0587 12.9819 53.0552 12.966 53.0517 12.95C53.0517 12.9499 53.0517 12.9498 53.0517 12.9497C53.0482 12.9337 53.0446 12.9177 53.041 12.9017C53.041 12.9016 53.041 12.9015 53.041 12.9014C53.0374 12.8857 53.0336 12.8703 53.0299 12.8546V12.8537C53.0263 12.838 53.0229 12.8223 53.0192 12.8066C53.0192 12.8065 53.0192 12.8064 53.0192 12.8063C53.0154 12.7904 53.0117 12.7745 53.0079 12.7586C53.0079 12.7585 53.0079 12.7584 53.0079 12.7583C53.004 12.7424 53.0003 12.7265 52.9964 12.7106C52.9924 12.6947 52.9883 12.6788 52.9842 12.6629C52.9842 12.6628 52.9842 12.6627 52.9842 12.6626C52.9801 12.6468 52.976 12.6311 52.9718 12.6152V12.6161C52.9677 12.6002 52.9636 12.5842 52.9594 12.5684C52.9594 12.5683 52.9594 12.5682 52.9594 12.5681C52.9551 12.5522 52.9508 12.5365 52.9464 12.5207C52.9464 12.5206 52.9464 12.5205 52.9464 12.5204C52.942 12.5046 52.9376 12.489 52.9331 12.4732C52.9331 12.4731 52.9331 12.473 52.9331 12.4729C52.9287 12.4571 52.9244 12.4415 52.9199 12.4258V12.4266C52.9153 12.4109 52.911 12.395 52.9063 12.3792C52.9063 12.3787 52.9063 12.3783 52.9063 12.3778C52.9018 12.3624 52.8971 12.3469 52.8925 12.3315V12.3306C52.8878 12.3152 52.8834 12.3 52.8786 12.2846C52.8786 12.2845 52.8786 12.2844 52.8786 12.2843C52.8738 12.2686 52.8692 12.2531 52.8643 12.2374C52.8643 12.2373 52.8643 12.2371 52.8643 12.2369C52.8595 12.2214 52.8546 12.206 52.8497 12.1906V12.19C52.8448 12.1746 52.8401 12.1591 52.8351 12.1437C52.83 12.1281 52.8248 12.1127 52.8196 12.0971C52.8196 12.0968 52.8196 12.0966 52.8196 12.0963C52.8146 12.0809 52.8096 12.0656 52.8045 12.0502V12.0497C52.7994 12.0344 52.7943 12.0192 52.789 12.0039V12.0036C52.7838 11.9882 52.7785 11.9727 52.7731 11.9573C52.7731 11.9571 52.7731 11.9569 52.7731 11.9567C52.7677 11.9414 52.7625 11.926 52.7571 11.9107V11.9104C52.7517 11.8951 52.7464 11.8797 52.7408 11.8644C52.7353 11.849 52.7297 11.8334 52.724 11.8181C52.724 11.818 52.724 11.8179 52.724 11.8178C52.7184 11.8024 52.7127 11.7871 52.7069 11.7717C52.7013 11.7566 52.6956 11.7414 52.6898 11.7262V11.7257C52.684 11.7105 52.6783 11.6953 52.6725 11.6802C52.6665 11.6649 52.6608 11.6497 52.6548 11.6344C52.6548 11.6343 52.6548 11.6342 52.6548 11.6342C52.6489 11.6189 52.643 11.6036 52.6369 11.5884C52.6308 11.5732 52.6246 11.5581 52.6184 11.5429C52.6124 11.5278 52.6062 11.5128 52.6 11.4977V11.4974C52.5938 11.4823 52.5875 11.4673 52.5812 11.4522C52.5812 11.452 52.5812 11.4518 52.5812 11.4516C52.5749 11.4365 52.5684 11.4212 52.5619 11.4062V11.407C52.5556 11.3919 52.5491 11.3768 52.5426 11.3618C52.5426 11.3616 52.5426 11.3614 52.5426 11.3612C52.5363 11.3464 52.5298 11.3314 52.5233 11.3166V11.316C52.5168 11.3012 52.5103 11.2864 52.5038 11.2716C52.4971 11.2567 52.4903 11.2416 52.4836 11.2267C52.4836 11.2266 52.4836 11.2265 52.4836 11.2264C52.4769 11.2116 52.4702 11.1966 52.4635 11.1818V11.1815C52.4567 11.1667 52.45 11.1518 52.4431 11.1371C52.4362 11.1223 52.4291 11.1075 52.4222 11.0927V11.0924C52.4153 11.0777 52.4082 11.063 52.4012 11.0483C52.4012 11.0482 52.4012 11.0481 52.4012 11.048C52.3942 11.0333 52.3871 11.0184 52.38 11.0037V11.0042C52.3728 10.9895 52.3657 10.9748 52.3585 10.9601C52.3585 10.96 52.3585 10.9599 52.3585 10.9598C52.3513 10.9452 52.344 10.9306 52.3367 10.916V10.9157C52.3294 10.9011 52.322 10.8864 52.3146 10.8719C52.3073 10.8573 52.2998 10.8429 52.2923 10.8283V10.8281C52.2848 10.8136 52.2772 10.799 52.2697 10.7845C52.2697 10.7844 52.2697 10.7843 52.2697 10.7842C52.2622 10.7698 52.2545 10.7554 52.2468 10.7409V10.7407C52.2392 10.7263 52.2314 10.712 52.2237 10.6977C52.2237 10.6976 52.2237 10.6975 52.2237 10.6974C52.2159 10.683 52.2081 10.6685 52.2002 10.6541C52.1925 10.6397 52.1847 10.6252 52.1768 10.6108V10.6114C52.1689 10.597 52.1611 10.5827 52.1531 10.5684C52.1531 10.5683 52.1531 10.5682 52.1531 10.5681C52.1452 10.5538 52.1372 10.5396 52.1291 10.5254C52.1291 10.5253 52.1291 10.5252 52.1291 10.5251C52.1211 10.5108 52.113 10.4966 52.1049 10.4824C52.0968 10.4683 52.0887 10.4545 52.0806 10.4405V10.4399C52.0726 10.4259 52.0643 10.4117 52.0561 10.3977C52.0561 10.3975 52.0561 10.3972 52.0561 10.3969C52.0479 10.383 52.0396 10.3692 52.0313 10.3553V10.3547C52.023 10.3408 52.0146 10.327 52.0062 10.3131C51.9977 10.299 51.9894 10.2849 51.9808 10.2709C51.9724 10.2569 51.9638 10.2429 51.9552 10.229C51.9466 10.2151 51.938 10.201 51.9293 10.1871C51.9207 10.1733 51.9118 10.1595 51.9031 10.1458V10.1455C51.8944 10.1318 51.8854 10.1181 51.8767 10.1044V10.1041C51.8679 10.0904 51.8591 10.0767 51.8502 10.0631C51.8502 10.0629 51.8502 10.0627 51.8502 10.0625C51.8413 10.0489 51.8324 10.0353 51.8234 10.0217V10.0214C51.8146 10.0078 51.8054 9.99413 51.7964 9.98061C51.7874 9.96696 51.7783 9.9534 51.7691 9.93981C51.76 9.9262 51.7508 9.91284 51.7416 9.89929C51.7416 9.89919 51.7416 9.8991 51.7416 9.89901C51.7324 9.88547 51.723 9.87197 51.7137 9.85849C51.7045 9.84511 51.6952 9.83158 51.6859 9.81824V9.81795C51.6766 9.80463 51.6671 9.79126 51.6578 9.77799C51.6513 9.76876 51.6448 9.75963 51.6382 9.75042L51.665 9.75179Z" fill="black"/>
</g>
<defs>
<clipPath id="clip0_126_529">
<rect width="17" height="17" fill="white" transform="translate(40 8)"/>
</clipPath>
</defs>
</svg>
