<svg width="340" height="41" viewBox="0 0 340 41" fill="none" xmlns="http://www.w3.org/2000/svg">
<path d="M30.375 9.89844C29.1562 9.89844 27.2578 9.8125 24.6797 9.64062C22.1953 9.46875 20.2969 9.39062 18.9844 9.40625C19.0469 11.1875 19.2578 14.3594 19.6172 18.9219C19.9453 22.9531 20.1094 26.1406 20.1094 28.4844C20.1094 29.0156 20.1641 29.8047 20.2734 30.8516C20.3828 31.8984 20.4375 32.6875 20.4375 33.2188C20.4375 34.3906 20.1875 35.4453 19.6875 36.3828C19.0469 37.5859 18.1328 38.1875 16.9453 38.1875C16.0859 38.1875 15.3281 37.9141 14.6719 37.3672C13.9375 36.7578 13.5703 35.9922 13.5703 35.0703C13.5703 34.8516 13.6094 34.5234 13.6875 34.0859C13.7656 33.6328 13.8047 33.2891 13.8047 33.0547C13.8047 32.3359 13.75 31.25 13.6406 29.7969C13.5469 28.3438 13.5 27.25 13.5 26.5156C13.5 24.4219 13.3359 21.5859 13.0078 18.0078C12.6328 13.8984 12.4141 11.0625 12.3516 9.5H11.1328C7.64844 9.5 4.88281 9.25 2.83594 8.75C1.10156 8.32812 0.234375 7.30469 0.234375 5.67969C0.234375 4.88281 0.515625 4.16406 1.07812 3.52344C1.73438 2.75781 2.59375 2.41406 3.65625 2.49219C4.20312 2.52344 5.44531 2.65625 7.38281 2.89062C8.92969 3.0625 10.1797 3.14844 11.1328 3.14844C12.0859 3.14844 13.5078 3.13281 15.3984 3.10156C17.3047 3.07031 18.7344 3.05469 19.6875 3.05469C20.875 3.05469 22.6562 3.14062 25.0312 3.3125C27.4062 3.46875 29.1875 3.54688 30.375 3.54688C31.3125 3.54688 32.0938 3.85156 32.7188 4.46094C33.3594 5.07031 33.6797 5.82031 33.6797 6.71094C33.6797 7.60156 33.3594 8.35938 32.7188 8.98438C32.0938 9.59375 31.3125 9.89844 30.375 9.89844ZM51.8438 39.4297C47.2188 39.4297 43.2812 38.1016 40.0312 35.4453C36.5625 32.6016 34.8281 28.9219 34.8281 24.4062C34.8281 19.0938 36.4922 14.25 39.8203 9.875C43.5547 4.95312 48.2578 2.49219 53.9297 2.49219C59.3828 2.49219 63.4688 3.74219 66.1875 6.24219C68.9062 8.74219 70.2656 12.5 70.2656 17.5156C70.2656 22.8281 68.7344 27.6406 65.6719 31.9531C62.1406 36.9375 57.5312 39.4297 51.8438 39.4297ZM53.9297 8.84375C50.4453 8.84375 47.4609 10.5312 44.9766 13.9062C42.6484 17.0625 41.4844 20.5625 41.4844 24.4062C41.4844 27 42.4922 29.1094 44.5078 30.7344C46.4453 32.2969 48.8906 33.0781 51.8438 33.0781C55.2812 33.0781 58.1484 31.3906 60.4453 28.0156C62.5547 24.9375 63.6094 21.4375 63.6094 17.5156C63.6094 14.2344 62.875 11.9531 61.4062 10.6719C60 9.45312 57.5078 8.84375 53.9297 8.84375ZM81.0234 27.6172L81 37.4844C81 38.1719 80.8047 38.8047 80.4141 39.3828C79.8672 40.1797 79.0703 40.5781 78.0234 40.5781C76.7891 40.5781 75.8203 40.0781 75.1172 39.0781C74.5703 38.2969 74.2969 37.4609 74.2969 36.5703C74.2969 33.1016 74.4062 27.8906 74.625 20.9375C74.8438 13.9844 74.9531 8.77344 74.9531 5.30469C74.9531 4.42969 75.2656 3.67969 75.8906 3.05469C76.5156 2.42969 77.2969 2.11719 78.2344 2.11719C79.1719 2.11719 79.9453 2.42969 80.5547 3.05469C81.1797 3.67969 81.4922 4.42969 81.4922 5.30469C81.4922 6.71094 81.4219 8.60938 81.2812 11C81.1094 13.7812 81.0078 15.6797 80.9766 16.6953C82.0703 15.6641 86.125 11.3203 93.1406 3.66406C93.8594 2.88281 94.6875 2.49219 95.625 2.49219C96.5156 2.49219 97.2891 2.80469 97.9453 3.42969C98.6172 4.05469 98.9531 4.8125 98.9531 5.70312C98.9531 6.67188 97.0938 9.1875 93.375 13.25C90.625 16.2344 87.7266 19.1797 84.6797 22.0859C86.3828 23.6953 88.0938 25.3047 89.8125 26.9141C91.8125 28.7578 93.6094 30.2734 95.2031 31.4609C96 32.0391 96.8594 32.4766 97.7812 32.7734C99.4531 33.3047 100.289 34.3281 100.289 35.8438C100.289 36.5156 100.078 37.1641 99.6562 37.7891C99.0781 38.6328 98.2734 39.0547 97.2422 39.0547C95.0078 39.0547 92.1094 37.5938 88.5469 34.6719C87.4844 33.7969 84.9766 31.4453 81.0234 27.6172ZM127.102 7.95312C126.789 7.95312 126.461 7.90625 126.117 7.8125C123.586 7.125 121.125 6.78125 118.734 6.78125C117.562 6.78125 116.305 6.875 114.961 7.0625C113.617 7.25 112.188 7.53125 110.672 7.90625C110.672 9.98438 110.602 13.0703 110.461 17.1641C111.336 17.1016 114.391 16.8125 119.625 16.2969C122.609 16 124.5 15.8516 125.297 15.8516C126.219 15.8516 127.008 16.1484 127.664 16.7422C128.32 17.3203 128.648 18.0938 128.648 19.0625C128.648 20.9219 127.656 21.9766 125.672 22.2266C124.422 22.3203 122.555 22.4766 120.07 22.6953C117.852 22.9453 114.508 23.25 110.039 23.6094C109.93 25.5938 109.875 27.1953 109.875 28.4141C109.875 31.4766 110.055 33.2188 110.414 33.6406C110.586 33.8438 111.57 33.9453 113.367 33.9453C114.336 33.9453 115.797 33.9219 117.75 33.875C119.703 33.8281 121.164 33.8047 122.133 33.8047C122.445 33.8047 122.906 33.7578 123.516 33.6641C124.125 33.5703 124.578 33.5234 124.875 33.5234C125.781 33.5234 126.555 33.7812 127.195 34.2969C127.93 34.875 128.297 35.6875 128.297 36.7344C128.297 38.4844 127.383 39.5312 125.555 39.875C123.992 40.1719 120.75 40.3203 115.828 40.3203C110.734 40.3203 107.414 39.6328 105.867 38.2578C104.164 36.7422 103.312 33.4609 103.312 28.4141C103.312 26.3203 103.461 23.1797 103.758 18.9922C104.07 14.7891 104.227 11.6484 104.227 9.57031C104.227 9.02344 104.148 8.21875 103.992 7.15625C103.836 6.07812 103.758 5.26562 103.758 4.71875C103.758 2.34375 104.852 1.15625 107.039 1.15625C107.727 1.15625 108.359 1.35156 108.938 1.74219C110.75 1.28906 112.469 0.953125 114.094 0.734375C115.734 0.5 117.281 0.382812 118.734 0.382812C122.672 0.382812 125.82 0.835937 128.18 1.74219C129.617 2.28906 130.336 3.28125 130.336 4.71875C130.336 5.53125 130.055 6.25 129.492 6.875C128.867 7.59375 128.07 7.95312 127.102 7.95312ZM168.164 32.2344C168.164 33.0156 168.031 34.25 167.766 35.9375C167.453 37.9531 166.312 38.9609 164.344 38.9609C163.25 38.9609 162.016 38.3438 160.641 37.1094C154.625 31.6875 147.836 24.0859 140.273 14.3047C140.18 18.3672 140.133 20.8594 140.133 21.7812C140.133 23.0156 140.156 24.875 140.203 27.3594C140.266 29.8438 140.297 31.7031 140.297 32.9375C140.297 37.5469 139.172 39.8516 136.922 39.8516C135.781 39.8516 134.867 39.5 134.18 38.7969C133.57 38.1719 133.266 37.4141 133.266 36.5234C133.266 35.8984 133.312 34.9531 133.406 33.6875C133.516 32.4219 133.57 31.4766 133.57 30.8516C133.57 29.9297 133.602 28.5469 133.664 26.7031C133.727 24.8594 133.758 23.4766 133.758 22.5547C133.758 21.5703 133.734 20.0859 133.688 18.1016C133.641 16.1172 133.617 14.6328 133.617 13.6484C133.617 12.7109 133.523 11.3125 133.336 9.45312C133.148 7.59375 133.055 6.19531 133.055 5.25781C133.055 4.32031 133.453 3.48438 134.25 2.75C135.062 2.01562 135.984 1.64844 137.016 1.64844C138.172 1.64844 139.453 2.64844 140.859 4.64844C147.953 14.7734 154.953 23.0312 161.859 29.4219C161.875 28.9219 161.883 27.7344 161.883 25.8594C161.883 18.1562 161.805 12.9609 161.648 10.2734C161.617 9.82031 161.516 8.97656 161.344 7.74219C161.188 6.64844 161.109 5.78906 161.109 5.16406C161.109 3.00781 162.25 1.92969 164.531 1.92969C167.078 1.92969 168.352 5.85938 168.352 13.7188C168.352 13.8906 168.336 15.125 168.305 17.4219C168.211 25.3594 168.164 30.2969 168.164 32.2344ZM188.578 39.4297C183.953 39.4297 180.016 38.1016 176.766 35.4453C173.297 32.6016 171.562 28.9219 171.562 24.4062C171.562 19.0938 173.227 14.25 176.555 9.875C180.289 4.95312 184.992 2.49219 190.664 2.49219C196.117 2.49219 200.203 3.74219 202.922 6.24219C205.641 8.74219 207 12.5 207 17.5156C207 22.8281 205.469 27.6406 202.406 31.9531C198.875 36.9375 194.266 39.4297 188.578 39.4297ZM190.664 8.84375C187.18 8.84375 184.195 10.5312 181.711 13.9062C179.383 17.0625 178.219 20.5625 178.219 24.4062C178.219 27 179.227 29.1094 181.242 30.7344C183.18 32.2969 185.625 33.0781 188.578 33.0781C192.016 33.0781 194.883 31.3906 197.18 28.0156C199.289 24.9375 200.344 21.4375 200.344 17.5156C200.344 14.2344 199.609 11.9531 198.141 10.6719C196.734 9.45312 194.242 8.84375 190.664 8.84375ZM220.898 19.4844C220.195 22.0156 219.211 25.8359 217.945 30.9453C217.648 32.7109 217.359 34.4688 217.078 36.2188C216.438 38.4375 215.258 39.5469 213.539 39.5469C212.461 39.5469 211.609 39.1797 210.984 38.4453C210.453 37.8203 210.188 37.0781 210.188 36.2188C210.188 33.6875 210.727 30.6016 211.805 26.9609C213.414 21.5078 214.281 18.4844 214.406 17.8906C214.859 15.4844 215.32 13.0781 215.789 10.6719C216.492 7.35938 217.25 5.15625 218.062 4.0625C218.891 2.95312 219.93 2.39844 221.18 2.39844C222.602 2.39844 223.648 3.11719 224.32 4.55469C224.945 5.91406 225.617 8.69531 226.336 12.8984C227.023 16.9766 228.047 21.3672 229.406 26.0703C231.188 21.4297 232.844 16.3359 234.375 10.7891L235.688 5.39844C236.531 3.16406 237.836 2.04688 239.602 2.04688C241.305 2.04688 242.57 3.34375 243.398 5.9375C243.742 6.98438 244.109 8.9375 244.5 11.7969C245.406 18.4531 246.547 24.1562 247.922 28.9062C249.312 33.7344 250.008 36.3594 250.008 36.7812C250.008 37.7031 249.641 38.4766 248.906 39.1016C248.219 39.6641 247.445 39.9453 246.586 39.9453C244.883 39.9453 243.617 38.7266 242.789 36.2891L241.477 30.6172C240.727 27.8047 239.914 23.7656 239.039 18.5C238.336 20.5938 237.172 23.8828 235.547 28.3672L234.141 32.6797C233.562 34.3828 232.961 35.7812 232.336 36.875C231.508 38.3281 230.352 39.0547 228.867 39.0547C227.398 39.0547 226.273 38.1875 225.492 36.4531L224.18 32.0938C222.961 28.0938 221.867 23.8906 220.898 19.4844ZM273.305 10.2969C272.492 10.2969 270.266 10.0781 266.625 9.64062C266.406 12.5156 266.297 16.3359 266.297 21.1016L266.273 31.625C268.352 31.5781 270.469 31.5547 272.625 31.5547C273.562 31.5547 274.336 31.8672 274.945 32.4922C275.57 33.1172 275.883 33.8672 275.883 34.7422C275.883 35.6172 275.57 36.3672 274.945 36.9922C274.336 37.6016 273.562 37.9062 272.625 37.9062C271.75 37.9062 270.438 37.9297 268.688 37.9766C266.938 38.0078 265.625 38.0234 264.75 38.0234C263.719 38.0234 262.172 38.1562 260.109 38.4219C258.047 38.7031 256.5 38.8438 255.469 38.8438C254.531 38.8438 253.75 38.5391 253.125 37.9297C252.516 37.3047 252.211 36.5547 252.211 35.6797C252.211 34.8047 252.516 34.0547 253.125 33.4297C253.75 32.8047 254.531 32.4922 255.469 32.4922C256.531 32.4922 257.93 32.375 259.664 32.1406C259.633 30.2969 259.617 26.7656 259.617 21.5469C259.617 17.2969 259.773 13.2422 260.086 9.38281L255 9.52344C254.062 9.52344 253.273 9.21875 252.633 8.60938C252.008 8 251.695 7.24219 251.695 6.33594C251.695 5.41406 252.008 4.66406 252.633 4.08594C253.211 3.55469 253.922 3.25 254.766 3.17188C256.141 3.04688 258.531 2.98438 261.938 2.98438C265 2.98438 268.945 3.3125 273.773 3.96875C275.695 4.23438 276.656 5.3125 276.656 7.20312C276.656 8.20312 276.266 8.99219 275.484 9.57031C274.844 10.0547 274.117 10.2969 273.305 10.2969ZM303 13.0391C301.594 13.0391 300.555 12.2969 299.883 10.8125C299.57 10.1094 299.258 9.6875 298.945 9.54688C298.711 9.4375 298.094 9.38281 297.094 9.38281C295.125 9.38281 292.852 10.9141 290.273 13.9766C286.664 18.2578 284.859 22.2656 284.859 26C284.859 27.7031 285.43 29.1641 286.57 30.3828C287.711 31.6016 289.078 32.2109 290.672 32.2109C292.219 32.2109 293.789 31.8047 295.383 30.9922C295.945 30.6953 297.133 29.9297 298.945 28.6953C300.164 27.8828 301.086 27.4766 301.711 27.4766C302.648 27.4766 303.445 27.8203 304.102 28.5078C304.711 29.1484 305.016 29.8828 305.016 30.7109C305.016 31.6328 304.609 32.4375 303.797 33.125C299.5 36.75 295.125 38.5625 290.672 38.5625C287.156 38.5625 284.188 37.2812 281.766 34.7188C279.453 32.25 278.297 29.3438 278.297 26C278.297 20.7656 280.586 15.4219 285.164 9.96875C289.055 5.34375 293.031 3.03125 297.094 3.03125C297.781 3.03125 298.398 3.05469 298.945 3.10156C299.508 3.14844 300 3.21875 300.422 3.3125C301.109 2.64062 301.938 2.30469 302.906 2.30469C304.5 2.30469 305.484 3.21875 305.859 5.04688C306.125 6.35938 306.258 7.89062 306.258 9.64062C306.258 10.4219 306.031 11.1328 305.578 11.7734C304.984 12.6172 304.125 13.0391 303 13.0391ZM320.227 39.4297C316.258 39.4297 313.133 38.5469 310.852 36.7812C308.93 35.3125 307.969 33.6172 307.969 31.6953C307.969 30.7109 308.266 29.8984 308.859 29.2578C309.453 28.6016 310.273 28.2734 311.32 28.2734C312.727 28.2734 313.758 28.9922 314.414 30.4297C315.305 32.3516 317.32 33.3125 320.461 33.3125C323.148 33.3125 325.75 32.7266 328.266 31.5547C330.875 30.3516 332.18 29.0312 332.18 27.5938C332.18 25.625 331.367 24.3281 329.742 23.7031C328.586 23.25 326.266 22.9844 322.781 22.9062C320.078 22.8438 317.656 22.3359 315.516 21.3828C312.625 20.0859 311.203 18.2266 311.25 15.8047C311.297 12.7578 312.922 9.96875 316.125 7.4375C319.328 4.89062 322.859 3.61719 326.719 3.61719C328.25 3.61719 330.141 3.96875 332.391 4.67188C335.188 5.54688 336.586 6.55469 336.586 7.69531C336.586 8.50781 336.305 9.22656 335.742 9.85156C335.117 10.5547 334.312 10.9062 333.328 10.9062C332.594 10.9062 331.492 10.75 330.023 10.4375C328.57 10.125 327.469 9.96875 326.719 9.96875C324.703 9.98438 322.789 10.4688 320.977 11.4219C319.102 12.3906 318.164 13.4453 318.164 14.5859C318.164 15.1797 318.445 15.6719 319.008 16.0625C319.586 16.4375 320.445 16.7031 321.586 16.8594C323.586 16.9688 325.578 17.0781 327.562 17.1875C331.031 17.4531 333.773 18.4297 335.789 20.1172C338.008 21.9922 339.117 24.5859 339.117 27.8984C339.117 31.9297 336.82 34.9844 332.227 37.0625C328.727 38.6406 324.727 39.4297 320.227 39.4297Z" fill="url(#paint0_linear_14_48)"/>
<defs>
<linearGradient id="paint0_linear_14_48" x1="393.136" y1="6.67645" x2="-117.066" y2="58.7944" gradientUnits="userSpaceOnUse">
<stop stop-color="#EF4523"/>
<stop offset="1" stop-color="#FFF33B"/>
</linearGradient>
</defs>
</svg>
