<svg width="605" height="575" viewBox="0 0 605 575" fill="none" xmlns="http://www.w3.org/2000/svg">
<g clip-path="url(#clip0_206_7)">
<g style="mix-blend-mode:color-dodge">
<path d="M164.445 347.212L281 164L182.228 243.231L156.491 178.328L120.787 213.956L83.7179 410.231L156.491 394.087L105.595 528.32L94.7599 486.876L72.9791 507.859L60.2552 625L84.2279 601.102L133.249 543.707L156.615 512.631L117.685 534.37L245.186 334.355L164.445 347.212Z" fill="url(#paint0_linear_206_7)"/>
<path d="M105.595 528.32L94.7599 486.876L72.9791 507.859L60.2552 625L84.2279 601.102L133.249 543.707L156.615 512.631L117.685 534.37L162.156 464.614L130.685 462.139L105.595 528.32Z" fill="url(#paint1_linear_206_7)"/>
<g style="mix-blend-mode:overlay" opacity="0.2">
<path style="mix-blend-mode:overlay" opacity="0.2" d="M164.445 347.212L281 164L182.228 243.231L156.491 178.328L120.787 213.956L83.7179 410.231L156.491 394.087L105.595 528.32L94.7599 486.876L72.9791 507.859L60.2552 625L84.2279 601.102L133.249 543.707L156.615 512.631L117.685 534.37L245.186 334.355L164.445 347.212Z" fill="url(#paint2_linear_206_7)"/>
<path style="mix-blend-mode:overlay" opacity="0.2" d="M105.595 528.32L94.7599 486.876L72.9791 507.859L60.2552 625L84.2279 601.102L133.249 543.707L156.615 512.631L117.685 534.37L162.156 464.614L130.685 462.139L105.595 528.32Z" fill="url(#paint3_linear_206_7)"/>
</g>
<path d="M128.741 382.84L245.282 199.628L146.524 278.858L120.787 213.956L48 445.844L120.787 429.715L83.8143 549.303L72.9791 507.859L66.624 566.45L60.2552 625L97.5308 579.334L134.834 533.614L95.8903 555.367L209.482 369.969L128.741 382.84Z" fill="url(#paint4_linear_206_7)"/>
</g>
<g style="mix-blend-mode:color-dodge">
<path d="M344.445 231.212L461 48L362.228 127.231L336.491 62.328L300.787 97.9557L263.718 294.231L336.491 278.087L285.595 412.32L274.76 370.876L252.979 391.859L240.255 509L264.228 485.102L313.249 427.707L336.615 396.631L297.685 418.37L425.186 218.355L344.445 231.212Z" fill="url(#paint5_linear_206_7)"/>
<path d="M285.595 412.32L274.76 370.876L252.979 391.859L240.255 509L264.228 485.102L313.249 427.707L336.615 396.631L297.685 418.37L342.156 348.614L310.685 346.139L285.595 412.32Z" fill="url(#paint6_linear_206_7)"/>
<g style="mix-blend-mode:overlay" opacity="0.2">
<path style="mix-blend-mode:overlay" opacity="0.2" d="M344.445 231.212L461 48L362.228 127.231L336.491 62.328L300.787 97.9557L263.718 294.231L336.491 278.087L285.595 412.32L274.76 370.876L252.979 391.859L240.255 509L264.228 485.102L313.249 427.707L336.615 396.631L297.685 418.37L425.186 218.355L344.445 231.212Z" fill="url(#paint7_linear_206_7)"/>
<path style="mix-blend-mode:overlay" opacity="0.2" d="M285.595 412.32L274.76 370.876L252.979 391.859L240.255 509L264.228 485.102L313.249 427.707L336.615 396.631L297.685 418.37L342.156 348.614L310.685 346.139L285.595 412.32Z" fill="url(#paint8_linear_206_7)"/>
</g>
<path d="M308.741 266.84L425.282 83.6276L326.524 162.858L300.787 97.9556L228 329.844L300.787 313.715L263.814 433.303L252.979 391.859L246.624 450.45L240.255 509L277.531 463.334L314.834 417.614L275.89 439.367L389.482 253.969L308.741 266.84Z" fill="url(#paint9_linear_206_7)"/>
</g>
<g style="mix-blend-mode:color-dodge">
<path d="M524.445 100.609L641 -83L542.228 -3.59763L516.491 -68.6409L480.787 -32.936L443.718 163.765L516.491 147.587L465.595 282.11L454.76 240.576L432.979 261.605L420.255 379L444.228 355.05L493.249 297.531L516.615 266.387L477.685 288.174L605.186 87.7247L524.445 100.609Z" fill="url(#paint10_linear_206_7)"/>
<path d="M465.595 282.11L454.76 240.576L432.979 261.605L420.255 379L444.228 355.05L493.249 297.531L516.615 266.387L477.685 288.174L522.156 218.266L490.685 215.786L465.595 282.11Z" fill="url(#paint11_linear_206_7)"/>
<g style="mix-blend-mode:overlay" opacity="0.2">
<path style="mix-blend-mode:overlay" opacity="0.2" d="M524.445 100.609L641 -83L542.228 -3.59763L516.491 -68.6409L480.787 -32.936L443.718 163.765L516.491 147.587L465.595 282.11L454.76 240.576L432.979 261.605L420.255 379L444.228 355.05L493.249 297.531L516.615 266.387L477.685 288.174L605.186 87.7247L524.445 100.609Z" fill="url(#paint12_linear_206_7)"/>
<path style="mix-blend-mode:overlay" opacity="0.2" d="M465.595 282.11L454.76 240.576L432.979 261.605L420.255 379L444.228 355.05L493.249 297.531L516.615 266.387L477.685 288.174L522.156 218.266L490.685 215.786L465.595 282.11Z" fill="url(#paint13_linear_206_7)"/>
</g>
<path d="M488.741 136.314L605.282 -47.2952L506.524 32.1072L480.787 -32.936L408 199.456L480.787 183.291L443.814 303.139L432.979 261.605L426.624 320.323L420.255 379L457.531 333.235L494.834 287.416L455.89 309.216L569.482 123.416L488.741 136.314Z" fill="url(#paint14_linear_206_7)"/>
</g>
</g>
<defs>
<linearGradient id="paint0_linear_206_7" x1="53.5279" y1="283.52" x2="206.398" y2="429.139" gradientUnits="userSpaceOnUse">
<stop stop-color="#FDB515"/>
<stop offset="0.06" stop-color="#F6891F"/>
<stop offset="0.14" stop-color="#D36427"/>
<stop offset="0.31" stop-color="#9F4B23"/>
<stop offset="0.35" stop-color="#F6891F"/>
<stop offset="0.38" stop-color="#F6891F"/>
<stop offset="0.39" stop-color="#9F4B23"/>
<stop offset="0.49" stop-color="#994822"/>
<stop offset="0.56" stop-color="#994822"/>
<stop offset="0.58" stop-color="#9F4B23"/>
<stop offset="0.6" stop-color="#B65B22"/>
<stop offset="0.64" stop-color="#D97420"/>
<stop offset="0.68" stop-color="#EE831F"/>
<stop offset="0.7" stop-color="#F6891F"/>
<stop offset="0.81" stop-color="#F6891F"/>
<stop offset="0.83" stop-color="#8A3F1E"/>
<stop offset="0.96" stop-color="#8A3F1E"/>
</linearGradient>
<linearGradient id="paint1_linear_206_7" x1="16.3626" y1="454.934" x2="169.233" y2="600.539" gradientUnits="userSpaceOnUse">
<stop stop-color="#FDB515"/>
<stop offset="0.06" stop-color="#F6891F"/>
<stop offset="0.14" stop-color="#D36427"/>
<stop offset="0.35" stop-color="#F6891F"/>
<stop offset="0.46" stop-color="#994822"/>
<stop offset="0.48" stop-color="#8A3F1E"/>
<stop offset="0.54" stop-color="#8A3F1E"/>
<stop offset="0.6" stop-color="#8A3F1E"/>
<stop offset="0.61" stop-color="#8A3F1E"/>
<stop offset="0.62" stop-color="#B0591E"/>
<stop offset="0.63" stop-color="#CF6E1F"/>
<stop offset="0.64" stop-color="#E47D1F"/>
<stop offset="0.65" stop-color="#F2861F"/>
<stop offset="0.66" stop-color="#F6891F"/>
<stop offset="0.67" stop-color="#8A3F1E"/>
<stop offset="0.73" stop-color="#8A3F1E"/>
</linearGradient>
<linearGradient id="paint2_linear_206_7" x1="53.5279" y1="283.52" x2="206.398" y2="429.139" gradientUnits="userSpaceOnUse">
<stop stop-color="#FDB515"/>
<stop offset="0.06" stop-color="#F6891F"/>
<stop offset="0.14" stop-color="#D36427"/>
<stop offset="0.31" stop-color="#9F4B23"/>
<stop offset="0.35" stop-color="#F6891F"/>
<stop offset="0.38" stop-color="#F6891F"/>
<stop offset="0.39" stop-color="#9F4B23"/>
<stop offset="0.49" stop-color="#994822"/>
<stop offset="0.56" stop-color="#994822"/>
<stop offset="0.58" stop-color="#9F4B23"/>
<stop offset="0.6" stop-color="#B65B22"/>
<stop offset="0.64" stop-color="#D97420"/>
<stop offset="0.68" stop-color="#EE831F"/>
<stop offset="0.7" stop-color="#F6891F"/>
<stop offset="0.81" stop-color="#F6891F"/>
<stop offset="0.83" stop-color="#8A3F1E"/>
<stop offset="0.96" stop-color="#8A3F1E"/>
</linearGradient>
<linearGradient id="paint3_linear_206_7" x1="16.3626" y1="454.934" x2="169.233" y2="600.539" gradientUnits="userSpaceOnUse">
<stop stop-color="#FDB515"/>
<stop offset="0.06" stop-color="#F6891F"/>
<stop offset="0.14" stop-color="#D36427"/>
<stop offset="0.35" stop-color="#F6891F"/>
<stop offset="0.46" stop-color="#994822"/>
<stop offset="0.48" stop-color="#8A3F1E"/>
<stop offset="0.54" stop-color="#8A3F1E"/>
<stop offset="0.6" stop-color="#8A3F1E"/>
<stop offset="0.61" stop-color="#8A3F1E"/>
<stop offset="0.62" stop-color="#B0591E"/>
<stop offset="0.63" stop-color="#CF6E1F"/>
<stop offset="0.64" stop-color="#E47D1F"/>
<stop offset="0.65" stop-color="#F2861F"/>
<stop offset="0.66" stop-color="#F6891F"/>
<stop offset="0.67" stop-color="#8A3F1E"/>
<stop offset="0.73" stop-color="#8A3F1E"/>
</linearGradient>
<linearGradient id="paint4_linear_206_7" x1="105.002" y1="182.123" x2="189.125" y2="589.526" gradientUnits="userSpaceOnUse">
<stop stop-color="#F6C116"/>
<stop offset="0.32" stop-color="#F68F1E"/>
<stop offset="0.37" stop-color="#F6A51B"/>
<stop offset="0.42" stop-color="#F6B518"/>
<stop offset="0.47" stop-color="#F6BE16"/>
<stop offset="0.55" stop-color="#F6C116"/>
<stop offset="0.82" stop-color="#F6C116"/>
<stop offset="1" stop-color="#F6891F"/>
</linearGradient>
<linearGradient id="paint5_linear_206_7" x1="233.528" y1="167.52" x2="386.398" y2="313.139" gradientUnits="userSpaceOnUse">
<stop stop-color="#FDB515"/>
<stop offset="0.06" stop-color="#F6891F"/>
<stop offset="0.14" stop-color="#D36427"/>
<stop offset="0.31" stop-color="#9F4B23"/>
<stop offset="0.35" stop-color="#F6891F"/>
<stop offset="0.38" stop-color="#F6891F"/>
<stop offset="0.39" stop-color="#9F4B23"/>
<stop offset="0.49" stop-color="#994822"/>
<stop offset="0.56" stop-color="#994822"/>
<stop offset="0.58" stop-color="#9F4B23"/>
<stop offset="0.6" stop-color="#B65B22"/>
<stop offset="0.64" stop-color="#D97420"/>
<stop offset="0.68" stop-color="#EE831F"/>
<stop offset="0.7" stop-color="#F6891F"/>
<stop offset="0.81" stop-color="#F6891F"/>
<stop offset="0.83" stop-color="#8A3F1E"/>
<stop offset="0.96" stop-color="#8A3F1E"/>
</linearGradient>
<linearGradient id="paint6_linear_206_7" x1="196.363" y1="338.934" x2="349.233" y2="484.539" gradientUnits="userSpaceOnUse">
<stop stop-color="#FDB515"/>
<stop offset="0.06" stop-color="#F6891F"/>
<stop offset="0.14" stop-color="#D36427"/>
<stop offset="0.35" stop-color="#F6891F"/>
<stop offset="0.46" stop-color="#994822"/>
<stop offset="0.48" stop-color="#8A3F1E"/>
<stop offset="0.54" stop-color="#8A3F1E"/>
<stop offset="0.6" stop-color="#8A3F1E"/>
<stop offset="0.61" stop-color="#8A3F1E"/>
<stop offset="0.62" stop-color="#B0591E"/>
<stop offset="0.63" stop-color="#CF6E1F"/>
<stop offset="0.64" stop-color="#E47D1F"/>
<stop offset="0.65" stop-color="#F2861F"/>
<stop offset="0.66" stop-color="#F6891F"/>
<stop offset="0.67" stop-color="#8A3F1E"/>
<stop offset="0.73" stop-color="#8A3F1E"/>
</linearGradient>
<linearGradient id="paint7_linear_206_7" x1="233.528" y1="167.52" x2="386.398" y2="313.139" gradientUnits="userSpaceOnUse">
<stop stop-color="#FDB515"/>
<stop offset="0.06" stop-color="#F6891F"/>
<stop offset="0.14" stop-color="#D36427"/>
<stop offset="0.31" stop-color="#9F4B23"/>
<stop offset="0.35" stop-color="#F6891F"/>
<stop offset="0.38" stop-color="#F6891F"/>
<stop offset="0.39" stop-color="#9F4B23"/>
<stop offset="0.49" stop-color="#994822"/>
<stop offset="0.56" stop-color="#994822"/>
<stop offset="0.58" stop-color="#9F4B23"/>
<stop offset="0.6" stop-color="#B65B22"/>
<stop offset="0.64" stop-color="#D97420"/>
<stop offset="0.68" stop-color="#EE831F"/>
<stop offset="0.7" stop-color="#F6891F"/>
<stop offset="0.81" stop-color="#F6891F"/>
<stop offset="0.83" stop-color="#8A3F1E"/>
<stop offset="0.96" stop-color="#8A3F1E"/>
</linearGradient>
<linearGradient id="paint8_linear_206_7" x1="196.363" y1="338.934" x2="349.233" y2="484.539" gradientUnits="userSpaceOnUse">
<stop stop-color="#FDB515"/>
<stop offset="0.06" stop-color="#F6891F"/>
<stop offset="0.14" stop-color="#D36427"/>
<stop offset="0.35" stop-color="#F6891F"/>
<stop offset="0.46" stop-color="#994822"/>
<stop offset="0.48" stop-color="#8A3F1E"/>
<stop offset="0.54" stop-color="#8A3F1E"/>
<stop offset="0.6" stop-color="#8A3F1E"/>
<stop offset="0.61" stop-color="#8A3F1E"/>
<stop offset="0.62" stop-color="#B0591E"/>
<stop offset="0.63" stop-color="#CF6E1F"/>
<stop offset="0.64" stop-color="#E47D1F"/>
<stop offset="0.65" stop-color="#F2861F"/>
<stop offset="0.66" stop-color="#F6891F"/>
<stop offset="0.67" stop-color="#8A3F1E"/>
<stop offset="0.73" stop-color="#8A3F1E"/>
</linearGradient>
<linearGradient id="paint9_linear_206_7" x1="285.002" y1="66.1231" x2="369.125" y2="473.526" gradientUnits="userSpaceOnUse">
<stop stop-color="#F6C116"/>
<stop offset="0.32" stop-color="#F68F1E"/>
<stop offset="0.37" stop-color="#F6A51B"/>
<stop offset="0.42" stop-color="#F6B518"/>
<stop offset="0.47" stop-color="#F6BE16"/>
<stop offset="0.55" stop-color="#F6C116"/>
<stop offset="0.82" stop-color="#F6C116"/>
<stop offset="1" stop-color="#F6891F"/>
</linearGradient>
<linearGradient id="paint10_linear_206_7" x1="413.528" y1="36.7788" x2="566.713" y2="182.382" gradientUnits="userSpaceOnUse">
<stop stop-color="#FDB515"/>
<stop offset="0.06" stop-color="#F6891F"/>
<stop offset="0.14" stop-color="#D36427"/>
<stop offset="0.31" stop-color="#9F4B23"/>
<stop offset="0.35" stop-color="#F6891F"/>
<stop offset="0.38" stop-color="#F6891F"/>
<stop offset="0.39" stop-color="#9F4B23"/>
<stop offset="0.49" stop-color="#994822"/>
<stop offset="0.56" stop-color="#994822"/>
<stop offset="0.58" stop-color="#9F4B23"/>
<stop offset="0.6" stop-color="#B65B22"/>
<stop offset="0.64" stop-color="#D97420"/>
<stop offset="0.68" stop-color="#EE831F"/>
<stop offset="0.7" stop-color="#F6891F"/>
<stop offset="0.81" stop-color="#F6891F"/>
<stop offset="0.83" stop-color="#8A3F1E"/>
<stop offset="0.96" stop-color="#8A3F1E"/>
</linearGradient>
<linearGradient id="paint11_linear_206_7" x1="376.363" y1="208.565" x2="529.548" y2="354.154" gradientUnits="userSpaceOnUse">
<stop stop-color="#FDB515"/>
<stop offset="0.06" stop-color="#F6891F"/>
<stop offset="0.14" stop-color="#D36427"/>
<stop offset="0.35" stop-color="#F6891F"/>
<stop offset="0.46" stop-color="#994822"/>
<stop offset="0.48" stop-color="#8A3F1E"/>
<stop offset="0.54" stop-color="#8A3F1E"/>
<stop offset="0.6" stop-color="#8A3F1E"/>
<stop offset="0.61" stop-color="#8A3F1E"/>
<stop offset="0.62" stop-color="#B0591E"/>
<stop offset="0.63" stop-color="#CF6E1F"/>
<stop offset="0.64" stop-color="#E47D1F"/>
<stop offset="0.65" stop-color="#F2861F"/>
<stop offset="0.66" stop-color="#F6891F"/>
<stop offset="0.67" stop-color="#8A3F1E"/>
<stop offset="0.73" stop-color="#8A3F1E"/>
</linearGradient>
<linearGradient id="paint12_linear_206_7" x1="413.528" y1="36.7788" x2="566.713" y2="182.382" gradientUnits="userSpaceOnUse">
<stop stop-color="#FDB515"/>
<stop offset="0.06" stop-color="#F6891F"/>
<stop offset="0.14" stop-color="#D36427"/>
<stop offset="0.31" stop-color="#9F4B23"/>
<stop offset="0.35" stop-color="#F6891F"/>
<stop offset="0.38" stop-color="#F6891F"/>
<stop offset="0.39" stop-color="#9F4B23"/>
<stop offset="0.49" stop-color="#994822"/>
<stop offset="0.56" stop-color="#994822"/>
<stop offset="0.58" stop-color="#9F4B23"/>
<stop offset="0.6" stop-color="#B65B22"/>
<stop offset="0.64" stop-color="#D97420"/>
<stop offset="0.68" stop-color="#EE831F"/>
<stop offset="0.7" stop-color="#F6891F"/>
<stop offset="0.81" stop-color="#F6891F"/>
<stop offset="0.83" stop-color="#8A3F1E"/>
<stop offset="0.96" stop-color="#8A3F1E"/>
</linearGradient>
<linearGradient id="paint13_linear_206_7" x1="376.363" y1="208.565" x2="529.548" y2="354.154" gradientUnits="userSpaceOnUse">
<stop stop-color="#FDB515"/>
<stop offset="0.06" stop-color="#F6891F"/>
<stop offset="0.14" stop-color="#D36427"/>
<stop offset="0.35" stop-color="#F6891F"/>
<stop offset="0.46" stop-color="#994822"/>
<stop offset="0.48" stop-color="#8A3F1E"/>
<stop offset="0.54" stop-color="#8A3F1E"/>
<stop offset="0.6" stop-color="#8A3F1E"/>
<stop offset="0.61" stop-color="#8A3F1E"/>
<stop offset="0.62" stop-color="#B0591E"/>
<stop offset="0.63" stop-color="#CF6E1F"/>
<stop offset="0.64" stop-color="#E47D1F"/>
<stop offset="0.65" stop-color="#F2861F"/>
<stop offset="0.66" stop-color="#F6891F"/>
<stop offset="0.67" stop-color="#8A3F1E"/>
<stop offset="0.73" stop-color="#8A3F1E"/>
</linearGradient>
<linearGradient id="paint14_linear_206_7" x1="465.002" y1="-64.8376" x2="549.475" y2="343.376" gradientUnits="userSpaceOnUse">
<stop stop-color="#F6C116"/>
<stop offset="0.32" stop-color="#F68F1E"/>
<stop offset="0.37" stop-color="#F6A51B"/>
<stop offset="0.42" stop-color="#F6B518"/>
<stop offset="0.47" stop-color="#F6BE16"/>
<stop offset="0.55" stop-color="#F6C116"/>
<stop offset="0.82" stop-color="#F6C116"/>
<stop offset="1" stop-color="#F6891F"/>
</linearGradient>
<clipPath id="clip0_206_7">
<rect width="605" height="575" fill="white"/>
</clipPath>
</defs>
</svg>
