<svg width="176" height="35" viewBox="0 0 176 35" fill="none" xmlns="http://www.w3.org/2000/svg">
<path d="M17.26 27V22.248H5.884V1.476H0.916V27H17.26ZM25.4885 27V9.288H20.7005V27H25.4885ZM20.1245 3.492C20.1245 5.076 21.4565 6.408 23.0765 6.408C24.7325 6.408 26.0285 5.076 26.0285 3.492C26.0285 1.836 24.7325 0.503998 23.0765 0.503998C21.4565 0.503998 20.1245 1.836 20.1245 3.492ZM29.3546 27.972C29.8586 31.356 33.0986 34.38 37.9586 34.38C44.6186 34.38 47.2466 29.952 47.2466 25.092V9.288H42.6386V11.376C42.0266 10.188 40.4066 8.964 37.5986 8.964C32.7386 8.964 29.3546 12.924 29.3546 17.604C29.3546 22.572 32.8826 26.208 37.5986 26.208C40.1546 26.208 41.8106 25.092 42.5306 23.94V25.236C42.5306 28.656 40.8386 30.168 37.8146 30.168C35.5466 30.168 33.9986 28.764 33.6746 26.82L29.3546 27.972ZM38.4266 22.104C35.9426 22.104 34.1786 20.376 34.1786 17.604C34.1786 14.868 36.0506 13.14 38.4266 13.14C40.7306 13.14 42.6026 14.868 42.6026 17.604C42.6026 20.34 40.8746 22.104 38.4266 22.104ZM56.8831 16.596C56.9911 14.652 58.1791 13.14 60.1951 13.14C62.4991 13.14 63.4711 14.688 63.4711 16.668V27H68.2591V15.84C68.2591 11.952 66.1711 8.82 61.6711 8.82C59.9791 8.82 58.0351 9.396 56.8831 10.764V0.935999H52.0951V27H56.8831V16.596ZM79.0225 3.996H74.7025V6.48C74.7025 8.064 73.8385 9.288 71.9665 9.288H71.0665V13.536H74.2705V21.78C74.2705 25.2 76.4305 27.252 79.8865 27.252C81.2905 27.252 82.1545 27 82.5865 26.82V22.86C82.3345 22.932 81.6865 23.004 81.1105 23.004C79.7425 23.004 79.0225 22.5 79.0225 20.952V13.536H82.5865V9.288H79.0225V3.996Z" fill="#FEC60D"/>
<path d="M104.08 7.56C103.504 4.68 101.128 0.935999 94.9362 0.935999C90.1122 0.935999 86.0442 4.392 86.0442 8.928C86.0442 12.78 88.6722 15.408 92.7402 16.236L96.3042 16.956C98.2842 17.352 99.4002 18.504 99.4002 19.98C99.4002 21.78 97.9242 23.112 95.2602 23.112C91.6602 23.112 89.8962 20.844 89.6802 18.324L85.0722 19.548C85.4682 23.184 88.4562 27.54 95.2242 27.54C101.164 27.54 104.44 23.58 104.44 19.656C104.44 16.056 101.956 13.032 97.3122 12.132L93.7482 11.448C91.8762 11.088 90.9762 9.972 90.9762 8.568C90.9762 6.876 92.5602 5.328 94.9722 5.328C98.2122 5.328 99.3642 7.524 99.6162 8.928L104.08 7.56ZM117.827 9.288L113.975 20.664L110.699 9.288H105.659L111.311 27H116.171L120.239 14.904L124.379 27H129.167L134.711 9.288H129.959L126.683 20.7L122.867 9.288H117.827ZM136.55 22.176C136.55 24.948 138.854 27.504 142.634 27.504C145.262 27.504 146.954 26.28 147.854 24.876C147.854 25.56 147.926 26.532 148.034 27H152.426C152.318 26.388 152.21 25.128 152.21 24.192V15.48C152.21 11.916 150.122 8.748 144.506 8.748C139.754 8.748 137.198 11.808 136.91 14.58L141.158 15.48C141.302 13.932 142.454 12.6 144.542 12.6C146.558 12.6 147.53 13.644 147.53 14.904C147.53 15.516 147.206 16.02 146.198 16.164L141.842 16.812C138.89 17.244 136.55 19.008 136.55 22.176ZM143.642 23.94C142.094 23.94 141.338 22.932 141.338 21.888C141.338 20.52 142.31 19.836 143.534 19.656L147.53 19.044V19.836C147.53 22.968 145.658 23.94 143.642 23.94ZM161.824 33.84V25.272C162.688 26.46 164.488 27.432 166.936 27.432C171.94 27.432 175.288 23.472 175.288 18.108C175.288 12.852 172.3 8.892 167.116 8.892C164.452 8.892 162.472 10.08 161.68 11.448V9.288H157.036V33.84H161.824ZM170.572 18.144C170.572 21.312 168.628 23.148 166.18 23.148C163.732 23.148 161.752 21.276 161.752 18.144C161.752 15.012 163.732 13.176 166.18 13.176C168.628 13.176 170.572 15.012 170.572 18.144Z" fill="white"/>
</svg>
