<svg width="60" height="60" viewBox="0 0 60 60" fill="none" xmlns="http://www.w3.org/2000/svg">
<path d="M30 0C13.4314 0 0 13.4314 0 30C0 46.5686 13.4314 60 30 60C46.5686 60 60 46.5686 60 30C60 13.4314 46.5686 0 30 0ZM45.5928 18.9769L40.2646 44.4141C40.2001 44.7217 40.0594 45.0083 39.8553 45.2473C39.6512 45.4864 39.3903 45.6704 39.0965 45.7823C38.8028 45.8942 38.4856 45.9305 38.1742 45.8879C37.8627 45.8452 37.567 45.725 37.3141 45.5382L29.5638 39.8123L24.8684 44.242C24.8069 44.3 24.7345 44.3452 24.6554 44.3749C24.5763 44.4046 24.4921 44.4182 24.4076 44.415C24.3232 44.4118 24.2402 44.3918 24.1636 44.3562C24.087 44.3206 24.0182 44.2701 23.9613 44.2076L23.8604 44.0967L24.6763 36.2012L39.3814 22.7655C39.4542 22.6992 39.4994 22.608 39.5082 22.51C39.517 22.412 39.4887 22.3142 39.429 22.236C39.3692 22.1577 39.2823 22.1047 39.1854 22.0874C39.0885 22.0701 38.9887 22.0898 38.9055 22.1425L20.0994 34.0452L12 31.325C11.7846 31.2527 11.5969 31.1155 11.4627 30.9322C11.3284 30.749 11.2541 30.5287 11.25 30.3015C11.2459 30.0744 11.3121 29.8515 11.4397 29.6635C11.5673 29.4755 11.7499 29.3316 11.9625 29.2515L43.6523 17.3138C43.8968 17.2218 44.1615 17.1971 44.4187 17.2424C44.6759 17.2877 44.9163 17.4013 45.1146 17.5713C45.3129 17.7412 45.4619 17.9614 45.5461 18.2086C45.6302 18.4559 45.6463 18.7212 45.5928 18.9769Z" fill="url(#paint0_linear_29_64)"/>
<defs>
<linearGradient id="paint0_linear_29_64" x1="69.1736" y1="19.4117" x2="-21.4983" y2="21.2316" gradientUnits="userSpaceOnUse">
<stop stop-color="#EF4523"/>
<stop offset="1" stop-color="#FFF33B"/>
</linearGradient>
</defs>
</svg>
