<svg width="65" height="33" viewBox="0 0 65 33" fill="none" xmlns="http://www.w3.org/2000/svg">
<rect width="65" height="33" rx="16.5" fill="black"/>
<circle cx="18" cy="17" r="14" fill="#FEC60D"/>
<path d="M18 11.375C16.8875 11.375 15.7999 11.7049 14.8749 12.323C13.9499 12.9411 13.2289 13.8196 12.8032 14.8474C12.3774 15.8752 12.266 17.0062 12.4831 18.0974C12.7001 19.1885 13.2359 20.1908 14.0225 20.9775C14.8092 21.7641 15.8115 22.2999 16.9026 22.5169C17.9938 22.734 19.1248 22.6226 20.1526 22.1968C21.1804 21.7711 22.0589 21.0501 22.677 20.1251C23.2951 19.2001 23.625 18.1125 23.625 17C23.6233 15.5087 23.0302 14.0789 21.9756 13.0244C20.9211 11.9698 19.4913 11.3767 18 11.375ZM18 21.875C17.0358 21.875 16.0933 21.5891 15.2916 21.0534C14.4899 20.5177 13.8651 19.7564 13.4961 18.8656C13.1271 17.9748 13.0306 16.9946 13.2187 16.0489C13.4068 15.1033 13.8711 14.2346 14.5529 13.5529C15.2346 12.8711 16.1033 12.4068 17.0489 12.2187C17.9946 12.0306 18.9748 12.1271 19.8656 12.4961C20.7564 12.8651 21.5177 13.4899 22.0534 14.2916C22.5891 15.0933 22.875 16.0358 22.875 17C22.8735 18.2925 22.3595 19.5316 21.4455 20.4455C20.5316 21.3595 19.2925 21.8735 18 21.875Z" fill="black"/>
<path d="M18 9.875C18.0995 9.875 18.1948 9.83549 18.2652 9.76516C18.3355 9.69484 18.375 9.59946 18.375 9.5V6.125C18.375 6.02554 18.3355 5.93016 18.2652 5.85983C18.1948 5.78951 18.0995 5.75 18 5.75C17.9005 5.75 17.8052 5.78951 17.7348 5.85983C17.6645 5.93016 17.625 6.02554 17.625 6.125V9.5C17.625 9.59946 17.6645 9.69484 17.7348 9.76516C17.8052 9.83549 17.9005 9.875 18 9.875Z" fill="black"/>
<path d="M12.4312 11.9618C12.4658 11.9975 12.5072 12.0259 12.5529 12.0455C12.5986 12.065 12.6478 12.0753 12.6975 12.0757C12.7473 12.0761 12.7966 12.0665 12.8426 12.0477C12.8886 12.0288 12.9304 12.001 12.9655 11.9659C13.0007 11.9307 13.0285 11.8889 13.0474 11.8429C13.0662 11.7969 13.0758 11.7476 13.0754 11.6978C13.075 11.6481 13.0647 11.599 13.0452 11.5532C13.0256 11.5075 12.9972 11.4661 12.9615 11.4315L11.3707 9.84051C11.336 9.80496 11.2946 9.77665 11.249 9.75722C11.2033 9.73779 11.1542 9.72762 11.1045 9.7273C11.0549 9.72699 11.0057 9.73653 10.9598 9.75539C10.9138 9.77424 10.8721 9.80203 10.837 9.83713C10.8019 9.87223 10.7741 9.91396 10.7553 9.95989C10.7364 10.0058 10.7269 10.055 10.7272 10.1047C10.7275 10.1543 10.7377 10.2034 10.7571 10.2491C10.7765 10.2948 10.8048 10.3361 10.8404 10.3708L12.4312 11.9618Z" fill="black"/>
<path d="M10.875 17C10.875 16.9005 10.8355 16.8052 10.7652 16.7348C10.6948 16.6645 10.5995 16.625 10.5 16.625H7.125C7.02554 16.625 6.93016 16.6645 6.85983 16.7348C6.78951 16.8052 6.75 16.9005 6.75 17C6.75 17.0995 6.78951 17.1948 6.85983 17.2652C6.93016 17.3355 7.02554 17.375 7.125 17.375H10.5C10.5995 17.375 10.6948 17.3355 10.7652 17.2652C10.8355 17.1948 10.875 17.0995 10.875 17Z" fill="black"/>
<path d="M12.4312 22.0382L10.8404 23.6292C10.8048 23.6639 10.7765 23.7052 10.7571 23.7509C10.7377 23.7966 10.7275 23.8457 10.7272 23.8953C10.7269 23.945 10.7364 23.9942 10.7553 24.0401C10.7741 24.086 10.8019 24.1278 10.837 24.1629C10.8721 24.198 10.9138 24.2258 10.9598 24.2446C11.0057 24.2635 11.0549 24.273 11.1045 24.2727C11.1542 24.2724 11.2033 24.2622 11.249 24.2428C11.2946 24.2233 11.336 24.195 11.3707 24.1595L12.9615 22.5685C12.9972 22.5339 13.0256 22.4925 13.0452 22.4468C13.0647 22.401 13.075 22.3519 13.0754 22.3022C13.0758 22.2524 13.0662 22.2031 13.0474 22.1571C13.0285 22.1111 13.0007 22.0693 12.9655 22.0341C12.9304 21.999 12.8886 21.9712 12.8426 21.9523C12.7966 21.9335 12.7473 21.9239 12.6975 21.9243C12.6478 21.9247 12.5986 21.935 12.5529 21.9545C12.5072 21.9741 12.4658 22.0025 12.4312 22.0382Z" fill="black"/>
<path d="M18 24.125C17.9005 24.125 17.8052 24.1645 17.7348 24.2348C17.6645 24.3052 17.625 24.4005 17.625 24.5V27.875C17.625 27.9745 17.6645 28.0698 17.7348 28.1402C17.8052 28.2105 17.9005 28.25 18 28.25C18.0995 28.25 18.1948 28.2105 18.2652 28.1402C18.3355 28.0698 18.375 27.9745 18.375 27.875V24.5C18.375 24.4005 18.3355 24.3052 18.2652 24.2348C18.1948 24.1645 18.0995 24.125 18 24.125Z" fill="black"/>
<path d="M23.5687 22.0382C23.5341 22.0025 23.4927 21.9741 23.447 21.9545C23.4013 21.935 23.3521 21.9247 23.3024 21.9243C23.2527 21.9239 23.2034 21.9335 23.1574 21.9523C23.1114 21.9712 23.0696 21.999 23.0344 22.0341C22.9992 22.0693 22.9714 22.1111 22.9526 22.1571C22.9337 22.2031 22.9242 22.2524 22.9246 22.3022C22.9249 22.3519 22.9352 22.401 22.9548 22.4468C22.9743 22.4925 23.0028 22.5339 23.0384 22.5685L24.6293 24.1595C24.6999 24.2283 24.7948 24.2666 24.8934 24.266C24.9921 24.2654 25.0865 24.2259 25.1562 24.1561C25.226 24.0864 25.2654 23.992 25.266 23.8934C25.2667 23.7947 25.2284 23.6998 25.1596 23.6292L23.5687 22.0382Z" fill="black"/>
<path d="M28.875 16.625H25.5C25.4005 16.625 25.3052 16.6645 25.2348 16.7348C25.1645 16.8052 25.125 16.9005 25.125 17C25.125 17.0995 25.1645 17.1948 25.2348 17.2652C25.3052 17.3355 25.4005 17.375 25.5 17.375H28.875C28.9745 17.375 29.0698 17.3355 29.1402 17.2652C29.2105 17.1948 29.25 17.0995 29.25 17C29.25 16.9005 29.2105 16.8052 29.1402 16.7348C29.0698 16.6645 28.9745 16.625 28.875 16.625Z" fill="black"/>
<path d="M23.3034 12.0718C23.3527 12.0718 23.4015 12.0622 23.447 12.0433C23.4925 12.0244 23.5338 11.9968 23.5686 11.9619L25.1594 10.3709C25.2282 10.3003 25.2665 10.2054 25.2659 10.1068C25.2652 10.0081 25.2258 9.91371 25.156 9.84397C25.0863 9.77422 24.9919 9.73476 24.8932 9.73414C24.7946 9.73351 24.6997 9.77177 24.6291 9.84063L23.0383 11.4316C22.9858 11.4841 22.9501 11.5509 22.9357 11.6236C22.9212 11.6964 22.9286 11.7718 22.957 11.8403C22.9854 11.9088 23.0335 11.9674 23.0951 12.0086C23.1568 12.0498 23.2293 12.0718 23.3034 12.0718Z" fill="black"/>
</svg>
