<svg width="60" height="60" viewBox="0 0 60 60" fill="none" xmlns="http://www.w3.org/2000/svg">
<path d="M30.0012 0C13.432 0 0 13.4345 0 30.0012C0 46.5704 13.432 60 30.0012 60C46.5704 60 60 46.5704 60 30.0012C60 13.4345 46.5692 0 30.0012 0ZM45.1133 23.9522C45.1291 24.2763 45.1352 24.6016 45.1352 24.9306C45.1352 34.922 37.5305 46.4413 23.6245 46.4413C19.3555 46.4413 15.3801 45.1901 12.0346 43.0458C12.6267 43.1153 13.2273 43.1506 13.8377 43.1506C17.3806 43.1506 20.6408 41.942 23.2273 39.9147C19.9196 39.8526 17.1284 37.6657 16.1659 34.6625C16.6265 34.7527 17.1004 34.7978 17.5877 34.7978C18.2773 34.7978 18.9449 34.7076 19.5797 34.5334C16.1196 33.8389 13.5136 30.7809 13.5136 27.1211C13.5136 27.0882 13.5136 27.0565 13.5149 27.0236C14.5334 27.5902 15.6993 27.9301 16.9396 27.9703C14.9098 26.6118 13.5758 24.3007 13.5758 21.6764C13.5758 20.2912 13.9486 18.9912 14.5992 17.8752C18.3285 22.4488 23.8999 25.4593 30.184 25.7736C30.0548 25.2217 29.9878 24.643 29.9878 24.0509C29.9878 19.877 33.3723 16.4912 37.5487 16.4912C39.7234 16.4912 41.6874 17.4098 43.0665 18.8779C44.7892 18.5405 46.4072 17.9094 47.8679 17.0431C47.3014 18.8097 46.1038 20.2912 44.5419 21.2256C46.0733 21.0429 47.5305 20.636 48.8852 20.0353C47.874 21.5546 46.5911 22.8862 45.1133 23.9522Z" fill="url(#paint0_linear_29_66)"/>
<defs>
<linearGradient id="paint0_linear_29_66" x1="69.1736" y1="19.4117" x2="-21.4983" y2="21.2316" gradientUnits="userSpaceOnUse">
<stop stop-color="#EF4523"/>
<stop offset="1" stop-color="#FFF33B"/>
</linearGradient>
</defs>
</svg>
