<svg width="20" height="21" viewBox="0 0 20 21" fill="none" xmlns="http://www.w3.org/2000/svg">
<path d="M17.0626 3.93749C15.0251 1.89999 12.1376 0.72499 8.96259 1.04999C4.37509 1.51249 0.600088 5.23749 0.0875877 9.82499C-0.599912 15.8875 4.08759 21 10.0001 21C13.9876 21 17.4126 18.6625 19.0126 15.3C19.4126 14.4625 18.8126 13.5 17.8876 13.5C17.4251 13.5 16.9876 13.75 16.7876 14.1625C15.3751 17.2 11.9876 19.125 8.28759 18.3C5.51259 17.6875 3.27509 15.425 2.68759 12.65C1.63759 7.79999 5.32509 3.49999 10.0001 3.49999C12.0751 3.49999 13.9251 4.36249 15.2751 5.72499L13.3876 7.61249C12.6001 8.39999 13.1501 9.74999 14.2626 9.74999H18.7501C19.4376 9.74999 20.0001 9.18749 20.0001 8.49999V4.01249C20.0001 2.89999 18.6501 2.33749 17.8626 3.12499L17.0626 3.93749Z" fill="#FEC60D"/>
</svg>
