<svg width="296" height="21" viewBox="0 0 296 21" fill="none" xmlns="http://www.w3.org/2000/svg">
<path d="M15.1875 4.94922C14.5781 4.94922 13.6289 4.90625 12.3398 4.82031C11.0977 4.73438 10.1484 4.69531 9.49219 4.70312C9.52344 5.59375 9.62891 7.17969 9.80859 9.46094C9.97266 11.4766 10.0547 13.0703 10.0547 14.2422C10.0547 14.5078 10.082 14.9023 10.1367 15.4258C10.1914 15.9492 10.2188 16.3438 10.2188 16.6094C10.2188 17.1953 10.0938 17.7227 9.84375 18.1914C9.52344 18.793 9.06641 19.0938 8.47266 19.0938C8.04297 19.0938 7.66406 18.957 7.33594 18.6836C6.96875 18.3789 6.78516 17.9961 6.78516 17.5352C6.78516 17.4258 6.80469 17.2617 6.84375 17.043C6.88281 16.8164 6.90234 16.6445 6.90234 16.5273C6.90234 16.168 6.875 15.625 6.82031 14.8984C6.77344 14.1719 6.75 13.625 6.75 13.2578C6.75 12.2109 6.66797 10.793 6.50391 9.00391C6.31641 6.94922 6.20703 5.53125 6.17578 4.75H5.56641C3.82422 4.75 2.44141 4.625 1.41797 4.375C0.550781 4.16406 0.117188 3.65234 0.117188 2.83984C0.117188 2.44141 0.257812 2.08203 0.539062 1.76172C0.867188 1.37891 1.29688 1.20703 1.82812 1.24609C2.10156 1.26172 2.72266 1.32812 3.69141 1.44531C4.46484 1.53125 5.08984 1.57422 5.56641 1.57422C6.04297 1.57422 6.75391 1.56641 7.69922 1.55078C8.65234 1.53516 9.36719 1.52734 9.84375 1.52734C10.4375 1.52734 11.3281 1.57031 12.5156 1.65625C13.7031 1.73438 14.5938 1.77344 15.1875 1.77344C15.6562 1.77344 16.0469 1.92578 16.3594 2.23047C16.6797 2.53516 16.8398 2.91016 16.8398 3.35547C16.8398 3.80078 16.6797 4.17969 16.3594 4.49219C16.0469 4.79688 15.6562 4.94922 15.1875 4.94922ZM34.3008 2.74609C34.1445 3.31641 34.0664 3.8125 34.0664 4.23438C34.0664 4.45312 34.043 4.79297 33.9961 5.25391C33.957 5.70703 33.9375 6.04297 33.9375 6.26172C33.9375 7.00391 33.8984 8.10547 33.8203 9.56641C33.7422 11.0273 33.7031 12.1289 33.7031 12.8711C33.7031 13.4414 33.7461 14.293 33.832 15.4258C33.918 16.5586 33.9609 17.4102 33.9609 17.9805C33.9609 18.4102 33.8086 18.7734 33.5039 19.0703C33.1992 19.3672 32.8203 19.5156 32.3672 19.5156C31.9062 19.5156 31.5078 19.3672 31.1719 19.0703C30.8359 18.7812 30.668 18.4258 30.668 18.0039C30.668 17.4336 30.6406 16.5781 30.5859 15.4375C30.5391 14.2969 30.5156 13.4414 30.5156 12.8711C30.5156 12.4258 30.5234 12.0312 30.5391 11.6875C29.3125 11.7422 27.7969 11.9336 25.9922 12.2617C24.4922 12.5352 22.9922 12.8125 21.4922 13.0938C21.4766 13.625 21.4219 14.5117 21.3281 15.7539C21.25 16.8477 21.2109 17.7422 21.2109 18.4375C21.2109 18.8672 21.0586 19.2305 20.7539 19.5273C20.4492 19.8242 20.0703 19.9727 19.6172 19.9727C19.1641 19.9727 18.7852 19.8242 18.4805 19.5273C18.1758 19.2305 18.0234 18.8672 18.0234 18.4375C18.0234 17.6484 18.0898 16.4688 18.2227 14.8984C18.3633 13.3281 18.4336 12.1484 18.4336 11.3594C18.4336 10.3594 18.457 8.85547 18.5039 6.84766C18.5508 4.83203 18.5742 3.32422 18.5742 2.32422C18.5742 1.89453 18.7266 1.53125 19.0312 1.23438C19.3359 0.9375 19.7148 0.789062 20.168 0.789062C20.6211 0.789062 21 0.9375 21.3047 1.23438C21.6094 1.53125 21.7617 1.89453 21.7617 2.32422C21.7617 2.91797 21.7383 3.8125 21.6914 5.00781C21.6523 6.19531 21.6328 7.08594 21.6328 7.67969C21.6328 7.875 21.6055 8.25 21.5508 8.80469C21.5039 9.32031 21.4844 9.71484 21.4922 9.98828L25.9922 9.14453C27.75 8.83203 29.2656 8.65234 30.5391 8.60547C30.5703 8.08203 30.6211 6.67578 30.6914 4.38672C30.707 3.78516 30.8906 3.09375 31.2422 2.3125C31.6797 1.35156 32.1758 0.871094 32.7305 0.871094C33.1445 0.871094 33.5117 1.00781 33.832 1.28125C34.1758 1.57812 34.3477 1.94922 34.3477 2.39453C34.3477 2.51172 34.332 2.62891 34.3008 2.74609ZM48.1523 3.97656C47.9961 3.97656 47.832 3.95312 47.6602 3.90625C46.3945 3.5625 45.1641 3.39062 43.9688 3.39062C43.3828 3.39062 42.7539 3.4375 42.082 3.53125C41.4102 3.625 40.6953 3.76562 39.9375 3.95312C39.9375 4.99219 39.9023 6.53516 39.832 8.58203C40.2695 8.55078 41.7969 8.40625 44.4141 8.14844C45.9062 8 46.8516 7.92578 47.25 7.92578C47.7109 7.92578 48.1055 8.07422 48.4336 8.37109C48.7617 8.66016 48.9258 9.04688 48.9258 9.53125C48.9258 10.4609 48.4297 10.9883 47.4375 11.1133C46.8125 11.1602 45.8789 11.2383 44.6367 11.3477C43.5273 11.4727 41.8555 11.625 39.6211 11.8047C39.5664 12.7969 39.5391 13.5977 39.5391 14.207C39.5391 15.7383 39.6289 16.6094 39.8086 16.8203C39.8945 16.9219 40.3867 16.9727 41.2852 16.9727C41.7695 16.9727 42.5 16.9609 43.4766 16.9375C44.4531 16.9141 45.1836 16.9023 45.668 16.9023C45.8242 16.9023 46.0547 16.8789 46.3594 16.832C46.6641 16.7852 46.8906 16.7617 47.0391 16.7617C47.4922 16.7617 47.8789 16.8906 48.1992 17.1484C48.5664 17.4375 48.75 17.8438 48.75 18.3672C48.75 19.2422 48.293 19.7656 47.3789 19.9375C46.5977 20.0859 44.9766 20.1602 42.5156 20.1602C39.9688 20.1602 38.3086 19.8164 37.5352 19.1289C36.6836 18.3711 36.2578 16.7305 36.2578 14.207C36.2578 13.1602 36.332 11.5898 36.4805 9.49609C36.6367 7.39453 36.7148 5.82422 36.7148 4.78516C36.7148 4.51172 36.6758 4.10938 36.5977 3.57812C36.5195 3.03906 36.4805 2.63281 36.4805 2.35938C36.4805 1.17188 37.0273 0.578125 38.1211 0.578125C38.4648 0.578125 38.7812 0.675781 39.0703 0.871094C39.9766 0.644531 40.8359 0.476562 41.6484 0.367188C42.4688 0.25 43.2422 0.191406 43.9688 0.191406C45.9375 0.191406 47.5117 0.417969 48.6914 0.871094C49.4102 1.14453 49.7695 1.64062 49.7695 2.35938C49.7695 2.76562 49.6289 3.125 49.3477 3.4375C49.0352 3.79688 48.6367 3.97656 48.1523 3.97656ZM67.2539 19.7148C65.2695 19.7148 63.707 19.2734 62.5664 18.3906C61.6055 17.6562 61.125 16.8086 61.125 15.8477C61.125 15.3555 61.2734 14.9492 61.5703 14.6289C61.8672 14.3008 62.2773 14.1367 62.8008 14.1367C63.5039 14.1367 64.0195 14.4961 64.3477 15.2148C64.793 16.1758 65.8008 16.6562 67.3711 16.6562C68.7148 16.6562 70.0156 16.3633 71.2734 15.7773C72.5781 15.1758 73.2305 14.5156 73.2305 13.7969C73.2305 12.8125 72.8242 12.1641 72.0117 11.8516C71.4336 11.625 70.2734 11.4922 68.5312 11.4531C67.1797 11.4219 65.9688 11.168 64.8984 10.6914C63.4531 10.043 62.7422 9.11328 62.7656 7.90234C62.7891 6.37891 63.6016 4.98438 65.2031 3.71875C66.8047 2.44531 68.5703 1.80859 70.5 1.80859C71.2656 1.80859 72.2109 1.98438 73.3359 2.33594C74.7344 2.77344 75.4336 3.27734 75.4336 3.84766C75.4336 4.25391 75.293 4.61328 75.0117 4.92578C74.6992 5.27734 74.2969 5.45312 73.8047 5.45312C73.4375 5.45312 72.8867 5.375 72.1523 5.21875C71.4258 5.0625 70.875 4.98438 70.5 4.98438C69.4922 4.99219 68.5352 5.23438 67.6289 5.71094C66.6914 6.19531 66.2227 6.72266 66.2227 7.29297C66.2227 7.58984 66.3633 7.83594 66.6445 8.03125C66.9336 8.21875 67.3633 8.35156 67.9336 8.42969C68.9336 8.48438 69.9297 8.53906 70.9219 8.59375C72.6562 8.72656 74.0273 9.21484 75.0352 10.0586C76.1445 10.9961 76.6992 12.293 76.6992 13.9492C76.6992 15.9648 75.5508 17.4922 73.2539 18.5312C71.5039 19.3203 69.5039 19.7148 67.2539 19.7148ZM82.043 12.4609C81.9102 12.4609 81.582 12.4336 81.0586 12.3789C81.0117 13.4727 80.9883 15.2695 80.9883 17.7695C80.9883 18.1836 80.8438 18.5391 80.5547 18.8359C80.2656 19.1328 79.8984 19.2812 79.4531 19.2812C79.0078 19.2812 78.6367 19.1328 78.3398 18.8359C78.0508 18.5391 77.9062 18.1836 77.9062 17.7695V14.5C77.9062 13.2891 77.9844 11.4961 78.1406 9.12109C78.2891 6.70703 78.3672 4.90625 78.375 3.71875C78.3828 1.6875 78.9531 0.714844 80.0859 0.800781C80.3516 0.730469 80.7188 0.679688 81.1875 0.648438C81.6562 0.609375 82.2266 0.589844 82.8984 0.589844C84.4297 0.589844 85.8672 1.08594 87.2109 2.07812C88.7031 3.1875 89.4492 4.53906 89.4492 6.13281C89.4492 8.13281 88.6562 9.72266 87.0703 10.9023C85.6641 11.9414 83.9883 12.4609 82.043 12.4609ZM82.6289 3.61328C82.3789 3.61328 82.1562 3.61719 81.9609 3.625C81.7734 3.625 81.6133 3.63281 81.4805 3.64844C81.4805 4.01562 81.4766 4.56641 81.4688 5.30078C81.4531 6.16797 81.3789 7.51953 81.2461 9.35547C81.6445 9.41797 81.9102 9.44922 82.043 9.44922C83.2617 9.44922 84.2734 9.16016 85.0781 8.58203C85.9375 7.96484 86.3672 7.14844 86.3672 6.13281C86.3672 5.46875 85.9648 4.87891 85.1602 4.36328C84.3867 3.86328 83.543 3.61328 82.6289 3.61328ZM102.996 3.97656C102.84 3.97656 102.676 3.95312 102.504 3.90625C101.238 3.5625 100.008 3.39062 98.8125 3.39062C98.2266 3.39062 97.5977 3.4375 96.9258 3.53125C96.2539 3.625 95.5391 3.76562 94.7812 3.95312C94.7812 4.99219 94.7461 6.53516 94.6758 8.58203C95.1133 8.55078 96.6406 8.40625 99.2578 8.14844C100.75 8 101.695 7.92578 102.094 7.92578C102.555 7.92578 102.949 8.07422 103.277 8.37109C103.605 8.66016 103.77 9.04688 103.77 9.53125C103.77 10.4609 103.273 10.9883 102.281 11.1133C101.656 11.1602 100.723 11.2383 99.4805 11.3477C98.3711 11.4727 96.6992 11.625 94.4648 11.8047C94.4102 12.7969 94.3828 13.5977 94.3828 14.207C94.3828 15.7383 94.4727 16.6094 94.6523 16.8203C94.7383 16.9219 95.2305 16.9727 96.1289 16.9727C96.6133 16.9727 97.3438 16.9609 98.3203 16.9375C99.2969 16.9141 100.027 16.9023 100.512 16.9023C100.668 16.9023 100.898 16.8789 101.203 16.832C101.508 16.7852 101.734 16.7617 101.883 16.7617C102.336 16.7617 102.723 16.8906 103.043 17.1484C103.41 17.4375 103.594 17.8438 103.594 18.3672C103.594 19.2422 103.137 19.7656 102.223 19.9375C101.441 20.0859 99.8203 20.1602 97.3594 20.1602C94.8125 20.1602 93.1523 19.8164 92.3789 19.1289C91.5273 18.3711 91.1016 16.7305 91.1016 14.207C91.1016 13.1602 91.1758 11.5898 91.3242 9.49609C91.4805 7.39453 91.5586 5.82422 91.5586 4.78516C91.5586 4.51172 91.5195 4.10938 91.4414 3.57812C91.3633 3.03906 91.3242 2.63281 91.3242 2.35938C91.3242 1.17188 91.8711 0.578125 92.9648 0.578125C93.3086 0.578125 93.625 0.675781 93.9141 0.871094C94.8203 0.644531 95.6797 0.476562 96.4922 0.367188C97.3125 0.25 98.0859 0.191406 98.8125 0.191406C100.781 0.191406 102.355 0.417969 103.535 0.871094C104.254 1.14453 104.613 1.64062 104.613 2.35938C104.613 2.76562 104.473 3.125 104.191 3.4375C103.879 3.79688 103.48 3.97656 102.996 3.97656ZM117.996 3.97656C117.84 3.97656 117.676 3.95312 117.504 3.90625C116.238 3.5625 115.008 3.39062 113.812 3.39062C113.227 3.39062 112.598 3.4375 111.926 3.53125C111.254 3.625 110.539 3.76562 109.781 3.95312C109.781 4.99219 109.746 6.53516 109.676 8.58203C110.113 8.55078 111.641 8.40625 114.258 8.14844C115.75 8 116.695 7.92578 117.094 7.92578C117.555 7.92578 117.949 8.07422 118.277 8.37109C118.605 8.66016 118.77 9.04688 118.77 9.53125C118.77 10.4609 118.273 10.9883 117.281 11.1133C116.656 11.1602 115.723 11.2383 114.48 11.3477C113.371 11.4727 111.699 11.625 109.465 11.8047C109.41 12.7969 109.383 13.5977 109.383 14.207C109.383 15.7383 109.473 16.6094 109.652 16.8203C109.738 16.9219 110.23 16.9727 111.129 16.9727C111.613 16.9727 112.344 16.9609 113.32 16.9375C114.297 16.9141 115.027 16.9023 115.512 16.9023C115.668 16.9023 115.898 16.8789 116.203 16.832C116.508 16.7852 116.734 16.7617 116.883 16.7617C117.336 16.7617 117.723 16.8906 118.043 17.1484C118.41 17.4375 118.594 17.8438 118.594 18.3672C118.594 19.2422 118.137 19.7656 117.223 19.9375C116.441 20.0859 114.82 20.1602 112.359 20.1602C109.812 20.1602 108.152 19.8164 107.379 19.1289C106.527 18.3711 106.102 16.7305 106.102 14.207C106.102 13.1602 106.176 11.5898 106.324 9.49609C106.48 7.39453 106.559 5.82422 106.559 4.78516C106.559 4.51172 106.52 4.10938 106.441 3.57812C106.363 3.03906 106.324 2.63281 106.324 2.35938C106.324 1.17188 106.871 0.578125 107.965 0.578125C108.309 0.578125 108.625 0.675781 108.914 0.871094C109.82 0.644531 110.68 0.476562 111.492 0.367188C112.312 0.25 113.086 0.191406 113.812 0.191406C115.781 0.191406 117.355 0.417969 118.535 0.871094C119.254 1.14453 119.613 1.64062 119.613 2.35938C119.613 2.76562 119.473 3.125 119.191 3.4375C118.879 3.79688 118.48 3.97656 117.996 3.97656ZM123.305 19.1172C122.844 19.1094 122.457 18.9531 122.145 18.6484C121.832 18.3359 121.676 17.9609 121.676 17.5234C121.676 16.7422 121.711 15.5703 121.781 14.0078C121.859 12.4453 121.898 11.2734 121.898 10.4922C121.898 9.625 121.879 8.32422 121.84 6.58984C121.809 4.85547 121.793 3.55469 121.793 2.6875C121.793 2.25781 122 1.83203 122.414 1.41016C122.828 0.980469 123.27 0.765625 123.738 0.765625C123.996 0.765625 124.645 1.00781 125.684 1.49219C126.895 2.07031 127.613 2.39453 127.84 2.46484C130.129 3.20703 132.082 4.35547 133.699 5.91016C135.629 7.76172 136.594 9.80859 136.594 12.0508C136.594 13.4023 136.262 14.6875 135.598 15.9062C134.934 17.1484 134.023 18.1445 132.867 18.8945C131.57 19.7383 129.746 20.1602 127.395 20.1602C126.824 20.1602 126.168 20.0781 125.426 19.9141C124.527 19.7109 123.82 19.4453 123.305 19.1172ZM129.891 7.07031C129.133 6.59375 127.508 5.84375 125.016 4.82031V16.4219C125.32 16.6172 125.668 16.7656 126.059 16.8672C126.457 16.9609 126.898 17.0078 127.383 17.0078C129.07 17.0078 130.281 16.7734 131.016 16.3047C131.711 15.8594 132.262 15.2539 132.668 14.4883C133.082 13.7227 133.289 12.9258 133.289 12.0977C133.289 10.1602 132.156 8.48438 129.891 7.07031ZM144.012 19.7148C142.027 19.7148 140.465 19.2734 139.324 18.3906C138.363 17.6562 137.883 16.8086 137.883 15.8477C137.883 15.3555 138.031 14.9492 138.328 14.6289C138.625 14.3008 139.035 14.1367 139.559 14.1367C140.262 14.1367 140.777 14.4961 141.105 15.2148C141.551 16.1758 142.559 16.6562 144.129 16.6562C145.473 16.6562 146.773 16.3633 148.031 15.7773C149.336 15.1758 149.988 14.5156 149.988 13.7969C149.988 12.8125 149.582 12.1641 148.77 11.8516C148.191 11.625 147.031 11.4922 145.289 11.4531C143.938 11.4219 142.727 11.168 141.656 10.6914C140.211 10.043 139.5 9.11328 139.523 7.90234C139.547 6.37891 140.359 4.98438 141.961 3.71875C143.562 2.44531 145.328 1.80859 147.258 1.80859C148.023 1.80859 148.969 1.98438 150.094 2.33594C151.492 2.77344 152.191 3.27734 152.191 3.84766C152.191 4.25391 152.051 4.61328 151.77 4.92578C151.457 5.27734 151.055 5.45312 150.562 5.45312C150.195 5.45312 149.645 5.375 148.91 5.21875C148.184 5.0625 147.633 4.98438 147.258 4.98438C146.25 4.99219 145.293 5.23438 144.387 5.71094C143.449 6.19531 142.98 6.72266 142.98 7.29297C142.98 7.58984 143.121 7.83594 143.402 8.03125C143.691 8.21875 144.121 8.35156 144.691 8.42969C145.691 8.48438 146.688 8.53906 147.68 8.59375C149.414 8.72656 150.785 9.21484 151.793 10.0586C152.902 10.9961 153.457 12.293 153.457 13.9492C153.457 15.9648 152.309 17.4922 150.012 18.5312C148.262 19.3203 146.262 19.7148 144.012 19.7148ZM169.148 4.94922C168.539 4.94922 167.59 4.90625 166.301 4.82031C165.059 4.73438 164.109 4.69531 163.453 4.70312C163.484 5.59375 163.59 7.17969 163.77 9.46094C163.934 11.4766 164.016 13.0703 164.016 14.2422C164.016 14.5078 164.043 14.9023 164.098 15.4258C164.152 15.9492 164.18 16.3438 164.18 16.6094C164.18 17.1953 164.055 17.7227 163.805 18.1914C163.484 18.793 163.027 19.0938 162.434 19.0938C162.004 19.0938 161.625 18.957 161.297 18.6836C160.93 18.3789 160.746 17.9961 160.746 17.5352C160.746 17.4258 160.766 17.2617 160.805 17.043C160.844 16.8164 160.863 16.6445 160.863 16.5273C160.863 16.168 160.836 15.625 160.781 14.8984C160.734 14.1719 160.711 13.625 160.711 13.2578C160.711 12.2109 160.629 10.793 160.465 9.00391C160.277 6.94922 160.168 5.53125 160.137 4.75H159.527C157.785 4.75 156.402 4.625 155.379 4.375C154.512 4.16406 154.078 3.65234 154.078 2.83984C154.078 2.44141 154.219 2.08203 154.5 1.76172C154.828 1.37891 155.258 1.20703 155.789 1.24609C156.062 1.26172 156.684 1.32812 157.652 1.44531C158.426 1.53125 159.051 1.57422 159.527 1.57422C160.004 1.57422 160.715 1.56641 161.66 1.55078C162.613 1.53516 163.328 1.52734 163.805 1.52734C164.398 1.52734 165.289 1.57031 166.477 1.65625C167.664 1.73438 168.555 1.77344 169.148 1.77344C169.617 1.77344 170.008 1.92578 170.32 2.23047C170.641 2.53516 170.801 2.91016 170.801 3.35547C170.801 3.80078 170.641 4.17969 170.32 4.49219C170.008 4.79688 169.617 4.94922 169.148 4.94922ZM183.668 3.97656C183.512 3.97656 183.348 3.95312 183.176 3.90625C181.91 3.5625 180.68 3.39062 179.484 3.39062C178.898 3.39062 178.27 3.4375 177.598 3.53125C176.926 3.625 176.211 3.76562 175.453 3.95312C175.453 4.99219 175.418 6.53516 175.348 8.58203C175.785 8.55078 177.312 8.40625 179.93 8.14844C181.422 8 182.367 7.92578 182.766 7.92578C183.227 7.92578 183.621 8.07422 183.949 8.37109C184.277 8.66016 184.441 9.04688 184.441 9.53125C184.441 10.4609 183.945 10.9883 182.953 11.1133C182.328 11.1602 181.395 11.2383 180.152 11.3477C179.043 11.4727 177.371 11.625 175.137 11.8047C175.082 12.7969 175.055 13.5977 175.055 14.207C175.055 15.7383 175.145 16.6094 175.324 16.8203C175.41 16.9219 175.902 16.9727 176.801 16.9727C177.285 16.9727 178.016 16.9609 178.992 16.9375C179.969 16.9141 180.699 16.9023 181.184 16.9023C181.34 16.9023 181.57 16.8789 181.875 16.832C182.18 16.7852 182.406 16.7617 182.555 16.7617C183.008 16.7617 183.395 16.8906 183.715 17.1484C184.082 17.4375 184.266 17.8438 184.266 18.3672C184.266 19.2422 183.809 19.7656 182.895 19.9375C182.113 20.0859 180.492 20.1602 178.031 20.1602C175.484 20.1602 173.824 19.8164 173.051 19.1289C172.199 18.3711 171.773 16.7305 171.773 14.207C171.773 13.1602 171.848 11.5898 171.996 9.49609C172.152 7.39453 172.23 5.82422 172.23 4.78516C172.23 4.51172 172.191 4.10938 172.113 3.57812C172.035 3.03906 171.996 2.63281 171.996 2.35938C171.996 1.17188 172.543 0.578125 173.637 0.578125C173.98 0.578125 174.297 0.675781 174.586 0.871094C175.492 0.644531 176.352 0.476562 177.164 0.367188C177.984 0.25 178.758 0.191406 179.484 0.191406C181.453 0.191406 183.027 0.417969 184.207 0.871094C184.926 1.14453 185.285 1.64062 185.285 2.35938C185.285 2.76562 185.145 3.125 184.863 3.4375C184.551 3.79688 184.152 3.97656 183.668 3.97656ZM198.867 19.1406C198.445 19.1406 198.059 18.9766 197.707 18.6484C195.34 16.4297 192.738 14.8906 189.902 14.0312C189.988 16.3047 190.031 17.5664 190.031 17.8164C190.031 18.2617 189.875 18.6406 189.562 18.9531C189.25 19.2578 188.859 19.4102 188.391 19.4102C187.922 19.4102 187.531 19.2578 187.219 18.9531C186.906 18.6406 186.75 18.2617 186.75 17.8164C186.75 17.2305 186.758 16.3555 186.773 15.1914C186.789 14.0195 186.797 13.1406 186.797 12.5547L186.82 3.09766C186.82 2.58984 186.973 2.12891 187.277 1.71484C187.676 1.18359 188.227 0.945312 188.93 1C190.828 1.14062 191.801 1.21484 191.848 1.22266C192.941 1.35547 193.871 1.61719 194.637 2.00781C197.973 3.6875 199.641 5.76953 199.641 8.25391C199.641 9.27734 199.289 10.1836 198.586 10.9727C197.891 11.7539 196.844 12.4141 195.445 12.9531C197.516 14.1094 199.074 15.2891 200.121 16.4922C200.395 16.8047 200.531 17.1523 200.531 17.5352C200.531 17.9727 200.367 18.3516 200.039 18.6719C199.711 18.9844 199.32 19.1406 198.867 19.1406ZM191.355 4.39844C191.293 4.39062 190.836 4.35938 189.984 4.30469V10.5273C190.18 10.5352 190.352 10.5391 190.5 10.5391C192.414 10.5391 193.832 10.3008 194.754 9.82422C195.152 9.62109 195.516 9.35156 195.844 9.01562C196.18 8.67969 196.348 8.42578 196.348 8.25391C196.348 7.37891 195.793 6.53516 194.684 5.72266C193.629 4.95703 192.52 4.51562 191.355 4.39844ZM226.641 4.94922C226.031 4.94922 225.082 4.90625 223.793 4.82031C222.551 4.73438 221.602 4.69531 220.945 4.70312C220.977 5.59375 221.082 7.17969 221.262 9.46094C221.426 11.4766 221.508 13.0703 221.508 14.2422C221.508 14.5078 221.535 14.9023 221.59 15.4258C221.645 15.9492 221.672 16.3438 221.672 16.6094C221.672 17.1953 221.547 17.7227 221.297 18.1914C220.977 18.793 220.52 19.0938 219.926 19.0938C219.496 19.0938 219.117 18.957 218.789 18.6836C218.422 18.3789 218.238 17.9961 218.238 17.5352C218.238 17.4258 218.258 17.2617 218.297 17.043C218.336 16.8164 218.355 16.6445 218.355 16.5273C218.355 16.168 218.328 15.625 218.273 14.8984C218.227 14.1719 218.203 13.625 218.203 13.2578C218.203 12.2109 218.121 10.793 217.957 9.00391C217.77 6.94922 217.66 5.53125 217.629 4.75H217.02C215.277 4.75 213.895 4.625 212.871 4.375C212.004 4.16406 211.57 3.65234 211.57 2.83984C211.57 2.44141 211.711 2.08203 211.992 1.76172C212.32 1.37891 212.75 1.20703 213.281 1.24609C213.555 1.26172 214.176 1.32812 215.145 1.44531C215.918 1.53125 216.543 1.57422 217.02 1.57422C217.496 1.57422 218.207 1.56641 219.152 1.55078C220.105 1.53516 220.82 1.52734 221.297 1.52734C221.891 1.52734 222.781 1.57031 223.969 1.65625C225.156 1.73438 226.047 1.77344 226.641 1.77344C227.109 1.77344 227.5 1.92578 227.812 2.23047C228.133 2.53516 228.293 2.91016 228.293 3.35547C228.293 3.80078 228.133 4.17969 227.812 4.49219C227.5 4.79688 227.109 4.94922 226.641 4.94922ZM237.375 19.7148C235.062 19.7148 233.094 19.0508 231.469 17.7227C229.734 16.3008 228.867 14.4609 228.867 12.2031C228.867 9.54688 229.699 7.125 231.363 4.9375C233.23 2.47656 235.582 1.24609 238.418 1.24609C241.145 1.24609 243.188 1.87109 244.547 3.12109C245.906 4.37109 246.586 6.25 246.586 8.75781C246.586 11.4141 245.82 13.8203 244.289 15.9766C242.523 18.4688 240.219 19.7148 237.375 19.7148ZM238.418 4.42188C236.676 4.42188 235.184 5.26562 233.941 6.95312C232.777 8.53125 232.195 10.2812 232.195 12.2031C232.195 13.5 232.699 14.5547 233.707 15.3672C234.676 16.1484 235.898 16.5391 237.375 16.5391C239.094 16.5391 240.527 15.6953 241.676 14.0078C242.73 12.4688 243.258 10.7188 243.258 8.75781C243.258 7.11719 242.891 5.97656 242.156 5.33594C241.453 4.72656 240.207 4.42188 238.418 4.42188ZM251.965 13.8086L251.953 18.7422C251.953 19.0859 251.855 19.4023 251.66 19.6914C251.387 20.0898 250.988 20.2891 250.465 20.2891C249.848 20.2891 249.363 20.0391 249.012 19.5391C248.738 19.1484 248.602 18.7305 248.602 18.2852C248.602 16.5508 248.656 13.9453 248.766 10.4688C248.875 6.99219 248.93 4.38672 248.93 2.65234C248.93 2.21484 249.086 1.83984 249.398 1.52734C249.711 1.21484 250.102 1.05859 250.57 1.05859C251.039 1.05859 251.426 1.21484 251.73 1.52734C252.043 1.83984 252.199 2.21484 252.199 2.65234C252.199 3.35547 252.164 4.30469 252.094 5.5C252.008 6.89062 251.957 7.83984 251.941 8.34766C252.488 7.83203 254.516 5.66016 258.023 1.83203C258.383 1.44141 258.797 1.24609 259.266 1.24609C259.711 1.24609 260.098 1.40234 260.426 1.71484C260.762 2.02734 260.93 2.40625 260.93 2.85156C260.93 3.33594 260 4.59375 258.141 6.625C256.766 8.11719 255.316 9.58984 253.793 11.043C254.645 11.8477 255.5 12.6523 256.359 13.457C257.359 14.3789 258.258 15.1367 259.055 15.7305C259.453 16.0195 259.883 16.2383 260.344 16.3867C261.18 16.6523 261.598 17.1641 261.598 17.9219C261.598 18.2578 261.492 18.582 261.281 18.8945C260.992 19.3164 260.59 19.5273 260.074 19.5273C258.957 19.5273 257.508 18.7969 255.727 17.3359C255.195 16.8984 253.941 15.7227 251.965 13.8086ZM275.004 3.97656C274.848 3.97656 274.684 3.95312 274.512 3.90625C273.246 3.5625 272.016 3.39062 270.82 3.39062C270.234 3.39062 269.605 3.4375 268.934 3.53125C268.262 3.625 267.547 3.76562 266.789 3.95312C266.789 4.99219 266.754 6.53516 266.684 8.58203C267.121 8.55078 268.648 8.40625 271.266 8.14844C272.758 8 273.703 7.92578 274.102 7.92578C274.562 7.92578 274.957 8.07422 275.285 8.37109C275.613 8.66016 275.777 9.04688 275.777 9.53125C275.777 10.4609 275.281 10.9883 274.289 11.1133C273.664 11.1602 272.73 11.2383 271.488 11.3477C270.379 11.4727 268.707 11.625 266.473 11.8047C266.418 12.7969 266.391 13.5977 266.391 14.207C266.391 15.7383 266.48 16.6094 266.66 16.8203C266.746 16.9219 267.238 16.9727 268.137 16.9727C268.621 16.9727 269.352 16.9609 270.328 16.9375C271.305 16.9141 272.035 16.9023 272.52 16.9023C272.676 16.9023 272.906 16.8789 273.211 16.832C273.516 16.7852 273.742 16.7617 273.891 16.7617C274.344 16.7617 274.73 16.8906 275.051 17.1484C275.418 17.4375 275.602 17.8438 275.602 18.3672C275.602 19.2422 275.145 19.7656 274.23 19.9375C273.449 20.0859 271.828 20.1602 269.367 20.1602C266.82 20.1602 265.16 19.8164 264.387 19.1289C263.535 18.3711 263.109 16.7305 263.109 14.207C263.109 13.1602 263.184 11.5898 263.332 9.49609C263.488 7.39453 263.566 5.82422 263.566 4.78516C263.566 4.51172 263.527 4.10938 263.449 3.57812C263.371 3.03906 263.332 2.63281 263.332 2.35938C263.332 1.17188 263.879 0.578125 264.973 0.578125C265.316 0.578125 265.633 0.675781 265.922 0.871094C266.828 0.644531 267.688 0.476562 268.5 0.367188C269.32 0.25 270.094 0.191406 270.82 0.191406C272.789 0.191406 274.363 0.417969 275.543 0.871094C276.262 1.14453 276.621 1.64062 276.621 2.35938C276.621 2.76562 276.48 3.125 276.199 3.4375C275.887 3.79688 275.488 3.97656 275.004 3.97656ZM295.535 16.1172C295.535 16.5078 295.469 17.125 295.336 17.9688C295.18 18.9766 294.609 19.4805 293.625 19.4805C293.078 19.4805 292.461 19.1719 291.773 18.5547C288.766 15.8438 285.371 12.043 281.59 7.15234C281.543 9.18359 281.52 10.4297 281.52 10.8906C281.52 11.5078 281.531 12.4375 281.555 13.6797C281.586 14.9219 281.602 15.8516 281.602 16.4688C281.602 18.7734 281.039 19.9258 279.914 19.9258C279.344 19.9258 278.887 19.75 278.543 19.3984C278.238 19.0859 278.086 18.707 278.086 18.2617C278.086 17.9492 278.109 17.4766 278.156 16.8438C278.211 16.2109 278.238 15.7383 278.238 15.4258C278.238 14.9648 278.254 14.2734 278.285 13.3516C278.316 12.4297 278.332 11.7383 278.332 11.2773C278.332 10.7852 278.32 10.043 278.297 9.05078C278.273 8.05859 278.262 7.31641 278.262 6.82422C278.262 6.35547 278.215 5.65625 278.121 4.72656C278.027 3.79688 277.98 3.09766 277.98 2.62891C277.98 2.16016 278.18 1.74219 278.578 1.375C278.984 1.00781 279.445 0.824219 279.961 0.824219C280.539 0.824219 281.18 1.32422 281.883 2.32422C285.43 7.38672 288.93 11.5156 292.383 14.7109C292.391 14.4609 292.395 13.8672 292.395 12.9297C292.395 9.07812 292.355 6.48047 292.277 5.13672C292.262 4.91016 292.211 4.48828 292.125 3.87109C292.047 3.32422 292.008 2.89453 292.008 2.58203C292.008 1.50391 292.578 0.964844 293.719 0.964844C294.992 0.964844 295.629 2.92969 295.629 6.85938C295.629 6.94531 295.621 7.5625 295.605 8.71094C295.559 12.6797 295.535 15.1484 295.535 16.1172Z" fill="url(#paint0_linear_14_35)"/>
<defs>
<linearGradient id="paint0_linear_14_35" x1="342.409" y1="3.67646" x2="-92.4093" y2="82.221" gradientUnits="userSpaceOnUse">
<stop stop-color="#EF4523"/>
<stop offset="1" stop-color="#FFF33B"/>
</linearGradient>
</defs>
</svg>
